<svg width="4002" height="784" xmlns="http://www.w3.org/2000/svg" xmlns:xlink="http://www.w3.org/1999/xlink" xml:space="preserve" overflow="hidden"><defs><clipPath id="clip0"><rect x="199" y="746" width="4002" height="784"/></clipPath></defs><g clip-path="url(#clip0)" transform="translate(-199 -746)"><path d="M3461 1408.33C3461 1394.89 3471.89 1384 3485.33 1384L4176.67 1384C4190.1 1384 4201 1394.89 4201 1408.33L4201 1505.67C4201 1519.11 4190.1 1530 4176.67 1530L3485.33 1530C3471.89 1530 3461 1519.11 3461 1505.67Z" fill="#FFFFFF" fill-rule="evenodd"/><path d="M3034 1055.33C3034 1041.89 3044.89 1031 3058.33 1031L3749.67 1031C3763.11 1031 3774 1041.89 3774 1055.33L3774 1152.67C3774 1166.11 3763.11 1177 3749.67 1177L3058.33 1177C3044.89 1177 3034 1166.11 3034 1152.67Z" fill="#FFFFFF" fill-rule="evenodd"/><path d="M1718 1408.33C1718 1394.89 1728.89 1384 1742.33 1384L2432.67 1384C2446.11 1384 2457 1394.89 2457 1408.33L2457 1505.67C2457 1519.11 2446.11 1530 2432.67 1530L1742.33 1530C1728.89 1530 1718 1519.11 1718 1505.67Z" fill="#FFFFFF" fill-rule="evenodd"/><path d="M1963 1055.33C1963 1041.89 1973.89 1031 1987.33 1031L2677.67 1031C2691.11 1031 2702 1041.89 2702 1055.33L2702 1152.67C2702 1166.11 2691.11 1177 2677.67 1177L1987.33 1177C1973.89 1177 1963 1166.11 1963 1152.67Z" fill="#FFFFFF" fill-rule="evenodd"/><path d="M2340 770.334C2340 756.894 2350.89 746 2364.33 746L3054.67 746C3068.11 746 3079 756.894 3079 770.334L3079 867.666C3079 881.105 3068.11 892 3054.67 892L2364.33 892C2350.89 892 2340 881.105 2340 867.666Z" fill="#FFFFFF" fill-rule="evenodd"/><path d="M852 1057.33C852 1043.89 862.895 1033 876.334 1033L1566.67 1033C1580.11 1033 1591 1043.89 1591 1057.33L1591 1154.67C1591 1168.11 1580.11 1179 1566.67 1179L876.334 1179C862.895 1179 852 1168.11 852 1154.67Z" fill="#FFFFFF" fill-rule="evenodd"/><path d="M199 1408.33C199 1394.89 209.895 1384 223.334 1384L914.666 1384C928.105 1384 939 1394.89 939 1408.33L939 1505.67C939 1519.11 928.105 1530 914.666 1530L223.334 1530C209.895 1530 199 1519.11 199 1505.67Z" fill="#FFFFFF" fill-rule="evenodd"/></g></svg>