<svg width="152" height="376" xmlns="http://www.w3.org/2000/svg" xmlns:xlink="http://www.w3.org/1999/xlink" xml:space="preserve" overflow="hidden"><defs><clipPath id="clip0"><rect x="81" y="168" width="152" height="376"/></clipPath></defs><g clip-path="url(#clip0)" transform="translate(-81 -168)"><path d="M374.044 67.2136C374.631 67.8573 374.888 68.736 374.74 69.5944 374.044 74.1897 372.114 78.4125 370.351 82.6256 368.332 83.2527 365.883 81.8026 364.178 83.9386 363.962 84.2004 363.666 84.383 363.335 84.4578 361.454 84.1835 360.719 82.8118 361.376 81.3421 362.228 79.5491 361.376 78.1578 361.131 76.4432 360.504 77.423 360.514 78.8926 359.171 78.9514 357.829 79.0102 357.829 77.8051 357.555 76.9135 358.24 74.8461 355.311 75.3556 355.301 73.7781 356.536 71.3875 357.192 68.5265 360.562 68.0072 361.542 67.8602 360.984 66.7628 361.248 66.1456 362.062 64.9502 362.914 65.0776 364.413 66.2142 363.894 66.0672 363.953 65.9202 363.904 65.6067 363.659 64.0978 362.581 61.9423 364.247 61.3054 366.402 60.4824 366.706 63.0886 367.49 64.4604 368.469 66.1162 368.852 68.4873 371.683 66.5865 372.52 66.2193 373.5 66.4794 374.044 67.2136Z" fill="#703543" transform="matrix(6.12323e-17 1 -1.01862 6.23723e-17 233 168.61)"/><path d="M31.1994 72.9844C31.3268 74.3374 27.5949 76.3107 26.6249 75.9984 25.6549 75.6863 23.0432 73.0914 24.4083 72.5193 27.5205 71.2151 27.868 71.998 29.1417 72.2235 31.3952 72.6311 32.1976 74.2279 34.7353 72.528 35.4007 72.3 36.1163 72.261 36.8027 72.4153 38.9025 72.6381 40.7097 73.9978 41.5056 75.9538 41.2992 76.8503 40.66 77.5852 39.8008 77.9138 37.8412 78.9546 35.8817 79.8045 35.8817 82.3456 35.8817 83.4037 34.4512 83.6205 33.295 83.6205 32.3635 83.5863 31.4688 83.2482 30.7476 82.6578 29.4346 78.8852 25.3587 76.4654 24.4083 72.5193" fill="#713C46" transform="matrix(6.12323e-17 1 -1.01862 6.23723e-17 233 168.61)"/><path d="M361.67 95.8724C360.324 97.0145 359.273 98.463 358.603 100.095 356.998 102.8 354.874 105.162 352.352 107.042 350.226 106.689 350.236 108.198 350.128 109.609 348.501 112.098 346.689 114.253 343.269 113.646 342.162 113.754 344.318 111.588 342.172 112.166 340.634 112.578 340.3 111.187 340.585 110.06 341.055 108.1 340.32 107.052 338.625 106.288 337.871 105.945 336.979 105.553 337.116 104.475 337.253 103.397 338.194 103.26 339.027 103.084 340.418 102.8 342.084 103.084 340.82 100.556 340.124 99.1743 341.947 98.7236 343.034 98.2435 347.561 97.8124 347.561 97.8124 348.119 103.877 349.334 103.299 350.49 102.584 351.833 102.8 356.389 99.6348 357.417 97.1069 356.212 92.0218 356.565 90.6109 357.045 89.0825 358.672 88.9453 360.082 88.8277 360.259 90.4934 360.984 91.3752 361.161 91.6859 361.306 92.0142 361.415 92.355 361.749 93.496 361.836 94.6952 361.67 95.8724Z" fill="#773E4E" transform="matrix(6.12323e-17 1 -1.01862 6.23723e-17 233 168.61)"/><path d="M322.444 38.0374C320.798 36.2542 326.777 33.3195 326.552 31.0464 328.041 32.4279 325.574 34.3002 326.089 35.8231 329.136 37.6847 330.008 37.3711 330.831 33.8635 331.115 32.6877 331.389 31.7961 332.839 32.0705L333.466 32.7857C335.426 33.3344 335.984 35.294 337.317 36.4697 337.836 37.5573 336.935 38.2529 336.612 39.1152 336.102 40.4575 336.102 41.7802 337.591 42.5346 338.287 42.8775 339.502 42.6228 339.267 43.9063 339.071 44.9547 338.13 45.4446 337.199 45.7679 336.075 46.3161 334.725 46.0919 333.839 45.2094 333.447 44.8175 332.859 45.0429 332.555 45.6797 328.773 46.1794 326.677 43.0343 324.109 41.3295 322.346 40.1929 324.345 39.0466 325.56 38.1941 324.639 38.9654 323.281 38.8971 322.444 38.0374Z" fill="#683743" transform="matrix(6.12323e-17 1 -1.01862 6.23723e-17 233 168.61)"/><path d="M374.044 67.2136C371.703 66.7237 370.125 67.6643 368.959 70.633 367.994 67.1507 366.483 63.8436 364.482 60.8351L364.482 66.5277C363.433 66.3513 362.522 65.0384 361.542 66.4787 358.75 67.772 356.144 65.7733 353.41 66.0182 353.034 66.0043 352.699 65.7758 352.548 65.4303 351.627 63.0396 353.743 61.6483 354.507 59.8063 354.896 58.943 355.911 58.5582 356.775 58.9471 356.984 59.0415 357.173 59.1771 357.329 59.3458 360.562 62.4812 362.365 60.1591 364.247 57.7782 365.422 56.1125 366.804 55.025 368.94 56.1713 369.919 56.671 371.046 56.9454 371.281 58.2485 371.517 58.9735 371.664 59.8161 370.752 60.0513 369.596 60.3354 368.156 60.1003 368.509 62.0109 368.783 63.4414 369.39 64.5191 371.095 64.4995 371.464 64.5248 371.811 64.6812 372.075 64.9404 373.035 65.4303 374.28 65.7047 374.044 67.2136Z" fill="#5F2D38" transform="matrix(6.12323e-17 1 -1.01862 6.23723e-17 233 168.61)"/><path d="M239.764 139.796C237.011 141.217 234.248 140.58 231.475 139.796 228.409 139.326 225.371 138.817 223.176 136.269 222.473 135.463 222.157 134.389 222.314 133.33 222.98 131.155 223.176 128.754 225.322 127.314 226.4 126.589 227.36 125.197 228.81 126.05 230.18 126.78 230.746 128.448 230.104 129.861 229.663 131.4 228.144 132.615 228.428 134.956 230.848 132.997 233.111 131.38 235.081 134.829 235.777 136.69 237.432 136.573 239 136.788 241.44 137.171 242.096 138.15 239.764 139.796Z" fill="#663C46" transform="matrix(6.12323e-17 1 -1.01862 6.23723e-17 233 168.61)"/><path d="M312.406 129.695C310.936 130.792 309.173 130.753 307.507 130.763 303.323 130.763 299.326 131.174 295.612 133.467 293.222 134.956 290.39 134.182 287.774 134.065 284.501 133.927 281.425 133.8 278.486 136.103 276.222 137.876 273.185 137.357 270.481 136.299 272.234 134.28 275.017 136.005 276.918 134.535 278.877 133.467 275.791 132.076 277.133 130.968 278.174 130.177 279.542 129.956 280.778 130.381 284.178 133.408 288.411 131.791 292.34 132.458 292.702 132.575 292.399 131.782 292.399 132.272 292.399 132.389 292.281 132.389 292.046 132.321 290.89 131.978 289.44 131.772 289.469 130.243 289.498 128.715 290.89 128.833 291.948 128.617 294.045 128.617 296.063 127.765 298.179 128.107 301.961 130.145 306.018 129.166 310.103 128.852 308.428 126.942 309.662 126.05 311.436 125.374 311.788 125.246 312.152 125.158 312.523 125.109 313.457 124.936 314.421 125.117 315.228 125.619 315.492 127.784 313.209 128.254 312.406 129.695Z" fill="#7E535D" transform="matrix(6.12323e-17 1 -1.01862 6.23723e-17 233 168.61)"/><path d="M347.659 38.5449C351.686 38.4175 355.017 39.4267 356.526 43.7084 357.506 46.4028 360.641 45.7562 362.405 47.314 362.307 47.461 362.209 47.5982 362.12 47.7451 360.925 48.5976 359.416 48.9503 358.348 49.9791 356.026 52.213 353.567 51.3704 351.284 50.175 347.59 48.2154 347.306 46.5204 350.147 43.5027 351.921 41.6215 350.48 41.063 349.168 40.3085 348.452 39.8774 347.335 39.8088 347.659 38.5449Z" fill="#65333E" transform="matrix(6.12323e-17 1 -1.01862 6.23723e-17 233 168.61)"/><path d="M347.659 38.5449C348.168 39.4757 349.158 39.2798 349.971 39.5247 349.383 42.4641 347.139 43.8652 344.71 44.6392 342.123 45.4622 340.085 43.9044 338.488 41.8762 337.655 40.9043 337.716 39.4546 338.625 38.5547 339.987 36.9773 340.692 35.0569 341.731 33.303 342.048 33.1948 342.393 33.1948 342.711 33.303 346.483 33.0875 345.66 37.134 347.659 38.5449Z" fill="#67323D" transform="matrix(6.12323e-17 1 -1.01862 6.23723e-17 233 168.61)"/><path d="M132.458 148.624C132.486 148.393 132.438 148.159 132.321 147.958 136.455 146.586 140.717 145.646 144.881 144.333 146.237 144.029 147.635 143.95 149.016 144.098 150.545 144.294 151.73 145.244 153.033 145.959 155.336 147.462 158.305 147.482 160.627 146.008 161.381 145.538 162.028 144.93 162.812 144.509 164.369 143.843 166.104 144.186 167.711 143.608 168.808 143.363 169.944 143.363 171.042 143.608 172.08 143.882 173.139 144.078 174.207 144.254 174.543 144.323 174.871 144.425 175.186 144.558 177.156 145.954 179.791 145.954 181.761 144.558 182.275 144.346 182.833 144.259 183.387 144.303 183.962 144.353 184.486 144.655 184.818 145.126 181.702 148.066 178.018 148.389 174.295 146.841 170.547 145.191 166.232 145.465 162.723 147.576 159.074 149.776 154.519 149.828 150.819 147.713 147.928 146.019 144.366 145.942 141.403 147.507 138.607 148.79 135.483 149.18 132.458 148.624Z" fill="#665150" transform="matrix(6.12323e-17 1 -1.01862 6.23723e-17 233 168.61)"/><path d="M362.375 47.314C363.333 47.3729 364.175 47.9741 364.54 48.8621 364.247 52.0072 366.255 55.2503 364.188 58.3269 361.562 60.7567 359.779 60.502 357.153 57.3471 354.87 54.5743 355.027 53.3691 358.133 51.2136 359.672 50.2365 361.049 49.0269 362.218 47.6276Z" fill="#5F2D38" transform="matrix(6.12323e-17 1 -1.01862 6.23723e-17 233 168.61)"/><path d="M258.204 138.248C255.509 139.287 252.972 138.434 250.434 137.621 248.965 136.896 247.387 137.288 245.878 137.288 242.322 137.288 242.322 137.347 241.714 134.025 241.616 133.134 242.184 132.859 242.909 132.722 244.203 132.967 245.516 132.908 246.829 133.065 248.193 133.516 249.695 133.134 250.679 132.085 251.845 130.939 253.276 130.361 254.53 132.085 254.53 132.654 253.746 133.467 255.088 133.653 256.282 133.884 257.439 134.276 258.527 134.819 259.292 135.162 260.252 135.515 260.271 136.475 260.291 137.817 259.027 137.837 258.204 138.248Z" fill="#663C46" transform="matrix(6.12323e-17 1 -1.01862 6.23723e-17 233 168.61)"/><path d="M223.392 136.093C225.934 137.641 228.642 138.896 231.465 139.836 228.771 139.836 226.008 139.071 223.451 140.561 220.808 141.881 217.743 142.072 214.956 141.09 212.84 138.307 212.898 138.052 216.044 136.299 218.493 136.103 220.923 134.937 223.392 136.093Z" fill="#814756" transform="matrix(6.12323e-17 1 -1.01862 6.23723e-17 233 168.61)"/><path d="M277.849 134.701C275.889 137.572 272.832 135.417 270.441 136.299 268.658 136.103 266.826 136.299 265.151 135.456 263.338 134.829 262.829 133.134 262.054 131.664 261.908 131.14 262.016 130.577 262.348 130.145 262.8 129.851 263.358 129.764 263.877 129.91 265.611 131.194 267.13 131.791 269.217 130.087 270.451 129.107 272.597 128.695 273.626 131.066 272.646 132.585 272.342 133.771 274.811 133.839 275.879 133.839 277.035 133.741 277.849 134.701Z" fill="#5D4244" transform="matrix(6.12323e-17 1 -1.01862 6.23723e-17 233 168.61)"/><path d="M342.75 33.3128 341.692 33.548C340.849 34.1589 340.136 34.9316 339.595 35.8211 339.194 36.7502 338.117 37.1787 337.187 36.778 336.991 36.6933 336.811 36.5751 336.656 36.4286 333.814 36.7225 334.618 33.4892 332.981 32.6172 336.097 28.7666 337.547 28.698 341.29 32.382 341.741 32.7453 342.231 33.0574 342.75 33.3128Z" fill="#794050" transform="matrix(6.12323e-17 1 -1.01862 6.23723e-17 233 168.61)"/><path d="M241.841 133.927C242.88 134.163 244.193 134.172 244.399 135.495 244.555 136.543 242.762 135.701 242.674 136.769 245.241 137.357 247.995 136.034 250.434 137.621 246.584 136.896 243.145 138.219 239.764 139.796 241.205 137.837 240.333 137.494 238.383 137.641 236.433 137.788 234.062 138.013 234.522 134.701 235.249 134.002 236.24 133.646 237.246 133.722 238.775 133.898 240.333 133.33 241.841 133.927Z" fill="#854459" transform="matrix(6.12323e-17 1 -1.01862 6.23723e-17 233 168.61)"/><path d="M262.466 131.782C264.671 132.046 263.534 134.721 265.151 135.456 262.397 135.309 260.889 138.248 258.194 138.248 259.889 137.053 260.34 136.073 257.792 135.456 256.646 135.182 255.558 134.652 254.402 134.476 253.687 134.349 252.541 135.172 252.492 133.8 252.492 132.82 253.472 132.624 254.373 132.507 257.058 132.056 259.703 131.292 262.466 131.782Z" fill="#814357" transform="matrix(6.12323e-17 1 -1.01862 6.23723e-17 233 168.61)"/><path d="M184.788 145.087 183.074 144.96C182.41 144.229 182.248 143.172 182.662 142.275 182.843 141.948 183.112 141.677 183.436 141.491 184.21 141.158 185.298 140.678 185.817 141.305 188.756 144.803 193.136 142.697 196.595 144.245 198.006 144.891 196.36 142.873 197.467 143.02 199.867 142.687 202.366 141.256 204.531 143.559 201.925 146.577 198.535 146.831 194.958 146.077 191.62 145.339 188.206 145.007 184.788 145.087Z" fill="#694A4E" transform="matrix(6.12323e-17 1 -1.01862 6.23723e-17 233 168.61)"/><path d="M332.345 31.8921C331.59 32.4016 330.787 32.627 331.188 34.0477 331.806 36.262 330.14 37.183 328.298 37.8689 326.026 38.71 326.33 36.6602 325.622 35.6927L325.569 34.9591C326.423 33.614 325.58 31.7271 326.995 30.5596L327.021 30.5446C328.01 29.9479 329.269 30.0464 330.152 30.7898 330.839 31.2397 331.574 31.6096 332.345 31.8921Z" fill="#794050" transform="matrix(6.12323e-17 1 -1.01862 6.23723e-17 233 168.61)"/><path d="M204.492 143.588 197.055 143.588C195.576 144.107 194.116 143.941 193.283 142.608 192.548 141.482 193.45 140.649 194.469 140.12 195.04 139.934 195.645 139.874 196.242 139.943 198.545 140.325 200.788 139.502 203.101 139.551 204.443 139.551 205.775 139.385 206.804 140.531 207.101 141.056 206.968 141.72 206.491 142.089Z" fill="#834453" transform="matrix(6.12323e-17 1 -1.01862 6.23723e-17 233 168.61)"/><path d="M206.481 142.069 206.569 140.61C209.22 139.782 212.06 139.782 214.711 140.61L223.47 140.61C222.059 143.088 219.639 143.353 217.219 143.206 213.594 142.932 210.057 142.432 206.481 142.069Z" fill="#6D5953" transform="matrix(6.12323e-17 1 -1.01862 6.23723e-17 233 168.61)"/><path d="M372.065 64.9404C369.185 65.6557 366.608 63.6961 367.117 60.9037 367.333 59.7935 368.408 59.0686 369.518 59.2843 369.663 59.3124 369.804 59.356 369.939 59.4144 371.134 59.8651 370.919 58.7482 371.281 58.2387 372.908 60.3158 372.624 62.6183 372.065 64.9404Z" fill="#814756" transform="matrix(6.12323e-17 1 -1.01862 6.23723e-17 233 168.61)"/><path d="M363.806 84.0855C363.982 82.1749 363.982 82.3219 366.118 82.3611 367.548 82.3611 369.057 80.235 370.36 82.6256 368.93 84.5852 367.502 86.5676 366.079 88.573 363.443 88.0243 365.011 85.3593 363.806 84.0855Z" fill="#7C3B4E" transform="matrix(6.12323e-17 1 -1.01862 6.23723e-17 233 168.61)"/><path d="M363.806 84.0855C364.952 83.5662 365.285 84.0267 365.285 85.1829 365.285 86.3391 364.883 87.6618 366.079 88.573L364.648 90.1406C363.424 90.3562 361.826 92.7175 361.199 89.5332 361.349 88.9198 361.004 88.2938 360.406 88.0929 359.633 87.7281 359.057 87.0449 358.828 86.2215 358.602 85.3839 358.829 84.4893 359.426 83.8602 360.239 83.047 360.896 83.4291 361.552 84.1541 362.14 84.7764 363.122 84.8041 363.744 84.2159 363.765 84.196 363.786 84.1753 363.806 84.1541Z" fill="#925565" transform="matrix(6.12323e-17 1 -1.01862 6.23723e-17 233 168.61)"/><path d="M363.786 58.415C364.158 57.5234 364.903 56.5828 364.433 55.6422 363.414 53.4881 363.454 50.9828 364.54 48.8621 366.814 50.8217 365.804 54.7408 368.94 56.1713 366.784 55.6324 365.844 57.4549 364.491 58.464 364.307 58.647 364.009 58.6458 363.826 58.4613 363.811 58.4468 363.799 58.4313 363.786 58.415Z" fill="#85525C" transform="matrix(6.12323e-17 1 -1.01862 6.23723e-17 233 168.61)"/><path d="M361.67 95.8724C360.96 94.7989 360.694 93.4931 360.925 92.2276 361.983 91.336 363.09 90.6305 364.521 91.434 364.227 93.3347 362.757 94.4811 361.67 95.8724Z" fill="#925565" transform="matrix(6.12323e-17 1 -1.01862 6.23723e-17 233 168.61)"/><path d="M364.482 91.434 360.886 92.2276 360.798 92.1198C360.298 90.9539 359.553 89.7291 361.562 89.1804 361.787 92.1982 363.953 88.5436 364.609 90.072 364.607 90.5289 364.565 90.9847 364.482 91.434Z" fill="#773E4E" transform="matrix(6.12323e-17 1 -1.01862 6.23723e-17 233 168.61)"/><path d="M363.786 58.415C364.022 58.4167 364.257 58.4331 364.491 58.464 363.972 60.3746 362.062 60.9919 360.847 62.2558 360.053 63.0886 359.318 62.7751 358.613 61.6386 357.388 59.679 355.82 57.6606 354.625 61.7855 354.468 62.3146 353.871 62.7653 353.488 63.1768 353.106 63.5883 352.509 64.4408 353.048 65.1364 353.494 65.5372 354.114 65.6847 354.694 65.5283 357.27 64.186 359.24 66.5081 361.552 66.5081 362.218 67.8994 364.834 70.2705 360.239 68.9576 359.306 68.6964 358.338 69.2408 358.078 70.1736 358.059 70.2377 358.045 70.3027 358.035 70.3685 358.035 72.1517 356.212 72.524 355.673 73.8271 355.36 74.7383 355.144 75.8455 353.822 75.6006 352.602 75.3342 351.648 74.3812 351.382 73.1609 350.774 71.2013 351.382 69.3103 351.245 67.3899 351.068 66.438 350.626 65.5551 349.971 64.8425 348.09 62.393 345.787 60.3844 344.474 57.3373 343.602 55.3189 341.849 52.5559 338.478 53.036 337.851 53.1242 337.077 52.7519 336.999 52.1836 336.558 48.9993 333.599 47.6276 332.1 45.1879L332.1 41.9056C334.059 46.0795 336.107 45.5602 338.243 43.679 337.939 41.788 336.127 44.9821 335.372 42.3563 334.618 39.7305 334.931 38.153 336.577 36.4188 337.782 36.2914 339.223 36.4188 339.262 34.665 339.262 32.5486 340.82 33.8713 341.623 33.5382 341.986 35.2107 341.353 36.9425 339.997 37.9864 338.88 38.9662 337.616 40.3575 339.644 42.1701 341.316 43.8175 343.779 44.3688 345.993 43.5908 344.788 39.848 350.02 42.1995 349.912 39.4855 352.332 41.1414 353.939 42.66 350.02 44.6392 348.619 45.3447 347.972 46.7458 349.932 48.2742 352.871 50.5473 355.458 51.4683 358.525 48.7053 359.448 47.6885 360.856 47.263 362.189 47.5982 362.385 49.9399 360.523 50.5375 359.034 51.6643 357.829 52.5461 355.115 52.7813 356.781 55.4855 359.063 59.0225 361.199 59.9337 363.786 58.415Z" fill="#452129" transform="matrix(6.12323e-17 1 -1.01862 6.23723e-17 233 168.61)"/><path d="M363.806 84.0855C361.983 85.6434 361.846 85.7512 360.719 84.4089 359.74 83.2821 359.671 84.3109 359.485 84.7812 358.946 86.2019 360.073 86.9073 360.886 87.7206 358.985 88.8277 356.281 88.5632 355.193 91.042 355.027 91.4241 354.213 91.7671 354.703 92.11 355.193 92.4529 355.82 91.7965 356.408 92.11 359.544 94.001 357.192 96.5583 356.849 98.5668 356.438 100.997 354.253 102.653 351.95 103.828 351.274 102.329 351.235 100.566 349.991 99.2527 349.403 98.6256 349.648 97.9202 350.431 97.4792 351.215 97.0383 352.048 97.1853 352.773 96.4995 351.96 96.1761 351.176 96.6856 350.451 96.4407 347.345 94.7652 347.198 94.0696 349.471 91.7573 349.971 91.238 350.676 90.9147 350.941 90.1798 351.238 89.6453 351.653 89.1861 352.156 88.8375 352.782 88.4696 353.255 87.8889 353.488 87.2013 351.921 89.396 350.324 90.8657 347.757 89.3568 346.935 88.6194 346.637 87.4596 347.002 86.4174 347.147 85.9112 347.505 85.4927 347.982 85.2711 348.962 85.4082 350.079 85.761 349.383 84.0267 350.529 81.6263 348.335 79.8234 348.247 77.6483 348.052 76.254 348.176 74.8336 348.609 73.494 350.255 72.0635 350.569 73.8663 351.206 74.6306 352.029 75.6568 352.322 77.0099 351.999 78.2852 354.292 78.1774 355.654 75.7181 357.937 76.7371 358.358 77.2858 358.995 78.3832 359.161 78.3146 360.964 77.5601 359.602 75.6985 360.641 74.1113 362.579 75.6722 363.28 78.3093 362.375 80.6269 361.689 82.7236 361.924 83.4977 363.806 84.0855Z" fill="#7C3B4E" transform="matrix(6.12323e-17 1 -1.01862 6.23723e-17 233 168.61)"/><path d="M357.917 76.7469C356.418 77.4622 354.762 77.8247 353.547 79.1376 352.763 79.9704 351.813 79.6765 350.97 78.9612 350.128 78.246 351.147 77.7071 351.186 77.276 351.333 75.6397 350.206 74.3366 349.05 73.1413 345.248 72.1125 343.495 69.4279 343.005 65.7047 344.455 63.2552 346.189 62.5987 348.443 64.8131 349.471 65.7929 350.99 66.1456 352.029 67.1744 353.116 68.889 351.48 70.5938 352.029 72.3085 352.665 74.268 353.224 76.3746 355.693 73.7977 355.992 74.3349 356.619 74.5979 357.212 74.4346 357.888 74.2778 358.632 73.9055 359.044 74.8167 359.583 75.9435 358.133 76.0023 357.917 76.7469Z" fill="#58303C" transform="matrix(6.12323e-17 1 -1.01862 6.23723e-17 233 168.61)"/><path d="M370.899 75.9435C370.752 78.2362 367.833 80.3035 365.873 79.4805 365.168 79.1768 364.442 78.6085 365.05 77.8835 365.657 77.1584 366.412 75.6201 367.088 76.5999 369.136 79.5393 369.655 76.0807 370.899 75.9435Z" fill="#944C62" transform="matrix(6.12323e-17 1 -1.01862 6.23723e-17 233 168.61)"/><path d="M311.593 86.8191C315.051 82.1749 318.951 77.8541 321.44 72.5142 324.085 66.8608 323.84 61.2662 321.694 55.5835 321.224 54.3489 320.861 51.9024 320.45 50.6483L321.175 51.8309C322.155 52.115 322.508 52.9184 322.841 53.7414 323.518 56.0329 324.625 58.1744 326.103 60.0513 326.779 62.0109 325.76 64.039 325.956 66.4983 326.133 64.3918 325.692 62.491 327.21 61.3544 328.396 60.4726 329.17 61.7169 329.856 62.5596 331.208 65.352 330.336 68.1444 329.366 70.6918 325.72 79.9846 320.46 88.5592 313.827 96.0194 313.008 97.0939 311.92 97.9323 310.672 98.4492 307.746 98.6815 305.372 100.912 304.959 103.818 305.939 106.405 308.369 105.229 310.064 105.425 311.759 105.621 310.339 103.975 310.623 103.221 311.299 101.389 312.435 101.702 313.709 102.555 316.462 105.318 316.648 108.678 316.1 112.254 315.414 114.606 313.082 113.93 311.544 114.733 308.902 115.173 306.214 115.262 303.549 114.998 301.658 114.91 300.609 114.126 301.236 111.931 302.108 108.825 301.177 105.954 299.698 103.221 299.286 101.885 299.756 100.435 300.874 99.5956 304.793 97.1265 306.321 92.4235 310.074 89.7977 311.171 89.0727 311.162 87.8479 311.593 86.8191Z" fill="#703644" transform="matrix(6.12323e-17 1 -1.01862 6.23723e-17 233 168.61)"/><path d="M352.163 67.3823C350.964 67.6553 349.708 67.2841 348.851 66.4025 346.999 64.002 345.226 64.2469 343.247 66.0596 341.414 66.618 340.827 65.5011 340.493 64.0412 340.508 63.9241 340.508 63.8055 340.493 63.6885 339.955 62.2286 343.286 61.5427 341.473 60.0926 339.661 58.6426 338.054 56.1735 334.938 57.0063 333.048 57.5433 331.018 57.2437 329.363 56.1833 328.102 55.2201 327.196 53.866 326.786 52.3327 326.081 50.3731 325.336 48.4136 323.034 51.0982 322.594 51.554 321.889 51.6244 321.368 51.2647 321.309 55.0836 319.165 46.2902 318.994 43.5168 318.945 41.4866 319.968 39.5805 321.687 38.5004 321.855 38.3804 322.002 38.234 322.122 38.067L325.591 38.067C323.122 40.3793 323.749 41.5158 326.404 42.0841 328.677 42.574 329.618 45.6114 332.342 45.3566 334.732 46.8949 337.74 47.8943 337.642 51.5881 337.642 51.9114 338.24 52.5679 338.505 52.5679 343.962 51.9408 344.873 55.8991 346.745 59.6713 347.47 61.141 348.959 63.4141 350.889 64.3547 352.408 65.0994 352.084 66.2261 352.163 67.3823Z" fill="#381E23" transform="matrix(6.12323e-17 1 -1.01862 6.23723e-17 233 168.61)"/><path d="M321.195 51.0666C321.822 50.7135 322.43 50.3277 323.017 49.9105 323.732 49.3422 323.017 47.51 324.398 47.7745 325.716 48.1527 326.724 49.2195 327.024 50.5571 327.427 52.3323 328.202 54.002 329.297 55.4561 329.392 56.1047 329.432 56.7603 329.415 57.4157 329.467 58.4123 329.637 59.3991 329.924 60.355 330.168 61.2397 329.955 62.1876 329.356 62.8829 328.376 62.0109 327.475 60.8155 326.779 63.265 326.456 64.4016 327.416 66.0966 325.075 66.8216 325.574 64.572 325.743 62.2614 325.574 59.9631 323.918 58.2779 324.242 55.4169 322.067 54.0844L321.175 51.919C321.185 51.5467 321.195 51.3116 321.195 51.0666Z" fill="#552A32" transform="matrix(6.12323e-17 1 -1.01862 6.23723e-17 233 168.61)"/><path d="M127.265 145.685C125.638 145.685 123.973 146.145 122.415 145.264 121.708 145.357 121.008 145.494 120.318 145.675 119.064 145.577 117.379 146.204 116.85 144.578 116.321 142.951 117.908 143.049 118.75 142.618 115.184 143.451 111.363 140.933 107.904 143.382 100.311 143.382 94.3733 138.875 87.8577 135.936 87.2985 133.625 87.2217 131.223 87.6324 128.882 89.7879 128.882 90.5032 127.961 90.1504 125.736 89.7389 123.13 89.7291 120.455 91.9043 118.388 93.9912 118.574 94.0696 119.818 93.4817 121.386 92.9624 122.787 92.7273 124.149 93.9324 125.354 94.6346 125.857 95.1676 126.56 95.4609 127.373 95.574 128.496 95.1135 129.602 94.2361 130.312 92.7763 131.821 93.4719 133.251 94.3831 134.603 94.795 135.516 95.8686 135.921 96.781 135.51 96.8116 135.496 96.8419 135.481 96.8718 135.466 97.7863 135.014 98.266 133.988 98.0279 132.997 97.775 132.184 97.447 131.397 97.0481 130.645 96.4113 128.813 97.3225 127.402 99.0077 127.706 101.643 128.098 104.034 126.981 106.562 127.157 107.732 128.877 109.272 130.313 111.069 131.36 112.686 129.313 110.834 125.678 114.175 124.414 116.281 129.126 120.779 128.588 124.737 129.195 125.717 129.352 126.432 128.852 126.167 127.725 125.872 126.542 125.992 125.293 126.51 124.188 127.079 122.954 126.432 121.494 127.196 120.269 127.961 119.044 128.627 117.575 130.518 118.662 131.554 121.017 131.643 123.681 130.763 126.099 129.971 128.265 130.124 130.664 131.184 132.712 130.893 133.939 129.663 134.699 128.437 134.408 128.29 134.373 128.147 134.323 128.009 134.261 125.149 132.556 124.149 134.466 122.954 136.318 122.257 136.493 121.524 136.22 121.112 135.632 120.663 134.639 119.774 133.914 118.711 133.673 117.232 133.34 115.772 132.242 114.273 133.477 113.633 134.093 113.542 135.086 114.057 135.809 114.88 137.484 115.87 138.973 118.074 138.836 118.556 138.813 119.038 138.764 119.515 138.689 121.122 138.748 122.846 136.926 124.355 139.306 125.021 140.355 125.981 138.846 126.844 138.63 127.986 138.112 129.326 138.324 130.253 139.169 130.528 140.374 129.91 141.364 129.479 142.403 128.352 143.196 128.235 144.734 127.265 145.685Z" fill="#48292F" transform="matrix(6.12323e-17 1 -1.01862 6.23723e-17 233 168.61)"/><path d="M55.9166 111.363C54.4077 109.668 51.9974 108.708 51.4683 106.219 51.1548 103.838 49.6459 101.702 50.3024 99.0959 48.7641 99.5858 49.9791 102.809 47.2748 101.663 45.6766 100.847 44.3468 99.5887 43.4439 98.0377 40.3575 95.6372 38.7213 92.1002 36.311 89.1608 36.0792 88.9021 35.8907 88.6077 35.7525 88.2888 35.5809 87.7837 35.5809 87.236 35.7525 86.731 36.6441 85.2417 38.2118 85.4474 39.5247 85.2417 39.9754 84.8498 40.6319 86.3292 41.1414 84.938 41.6702 83.896 42.495 83.0336 43.5124 82.4591 43.8508 82.3842 44.205 82.4515 44.4922 82.6452 44.8188 83.0372 45.0712 83.4854 45.2369 83.9679 48.6936 88.4737 52.8993 92.3514 57.6704 95.4315 58.8853 96.1859 60.0807 97.2343 58.5522 98.557 55.8872 100.889 56.9454 102.672 59.0617 104.436 59.2712 105.122 58.9785 105.861 58.3563 106.219 56.8572 106.601 55.6031 107.081 56.3967 109.09 56.8477 109.858 56.6396 110.843 55.9166 111.363Z" fill="#743949" transform="matrix(6.12323e-17 1 -1.01862 6.23723e-17 233 168.61)"/><path d="M58.2093 106.101 58.9245 104.583C57.9447 102.084 56.5926 99.4584 61.1781 99.2723 61.7757 99.2723 61.9815 98.4688 62.3538 98.0279 65.6361 96.5583 64.7935 100.575 66.4591 101.036 66.8314 101.555 67.0764 100.752 66.7628 101.134 66.6491 101.124 66.5525 101.047 66.5179 100.938 65.881 99.2135 63.0299 97.9202 65.4695 95.5981 67.8798 96.8718 70.5056 97.8516 72.1125 100.272 72.2852 101.102 72.778 101.83 73.4842 102.3 74.6685 101.382 76.7475 99.8592 77.4322 101.07 78.7933 103.79 77.8345 103.897 76.1982 104.896 75.1309 105.023 74.0507 104.985 72.9943 104.788 70.0549 103.995 70.2313 106.444 69.565 108.032 69.2809 108.59 68.84 109.266 68.2521 109.1 64.96 108.169 64.1076 109.952 64.333 112.666 64.4701 114.626 63.0103 115.36 62.0109 116.507 61.0311 116.879 60.3354 116.183 59.5908 115.723 58.6795 115.176 57.9631 114.357 57.543 113.381 57.4244 112.416 57.5146 111.437 57.8076 110.51 58.6911 109.396 58.8693 107.88 58.2681 106.591 58.2256 106.432 58.2058 106.267 58.2093 106.101Z" fill="#803A4F" transform="matrix(6.12323e-17 1 -1.01862 6.23723e-17 233 168.61)"/><path d="M119.907 145.009 122.415 145.273C118.731 147.057 114.978 147.351 111.304 145.391 109.034 144.237 106.54 143.588 103.995 143.49 98.4492 143.108 93.2759 141.599 88.9551 137.925 87.456 136.661 85.516 136.877 83.8798 136.132 80.9404 134.868 79.0984 132.076 76.1786 130.684 74.6894 129.979 74.5424 128.117 75.0225 126.461 76.5509 125.031 78.4713 124.953 79.3042 126.716 81.1266 130.635 84.6048 132.732 87.603 135.397 91.238 136.142 94.2263 138.895 98.1455 138.777 100.046 143.725 104.681 141.834 108.179 142.795 111 142.795 113.401 144.362 116.017 144.921 117.369 145.195 118.604 145.734 119.907 145.009Z" fill="#665150" transform="matrix(6.12323e-17 1 -1.01862 6.23723e-17 233 168.61)"/><path d="M127.265 145.685C127.441 144.127 126.432 141.854 129.479 142.03 131.451 141.047 133.72 140.837 135.838 141.442 137.242 141.845 138.717 141.935 140.159 141.707 142.746 141.09 144.009 142.285 144.725 144.529 144.803 144.686 144.862 144.852 144.93 145.009 140.855 146.537 136.867 148.467 132.321 147.948 130.361 147.811 128.901 146.547 127.265 145.685Z" fill="#644848" transform="matrix(6.12323e-17 1 -1.01862 6.23723e-17 233 168.61)"/><path d="M47.2748 101.663C49.4206 101.32 48.4212 99.5956 48.6857 98.4492 48.8229 97.8124 49.0287 97.0775 49.6655 97.0677 50.2281 97.1839 50.7255 97.5096 51.0568 97.9789 49.9987 100.801 53.0164 103.407 51.4977 106.219 49.695 105.121 48.233 103.544 47.2748 101.663Z" fill="#8C5061" transform="matrix(6.12323e-17 1 -1.01862 6.23723e-17 233 168.61)"/><path d="M58.2877 110.491C58.0231 111.471 58.5522 112.637 57.5038 113.43L55.9166 111.412C55.799 110.589 55.7206 109.766 55.5639 108.953 55.3777 107.973 54.1236 107.12 55.1817 106.013 56.2399 104.906 57.1413 106.268 58.2093 106.15L58.2093 106.15C59.0749 107.459 59.1055 109.151 58.2877 110.491Z" fill="#45232A" transform="matrix(6.12323e-17 1 -1.01862 6.23723e-17 233 168.61)"/><path d="M39.8676 85.5258C38.9956 86.9563 36.9283 85.5258 36.0954 87.1523 33.8435 86.3945 31.9676 84.8026 30.8536 82.704 31.7354 82.5277 33.4108 82.5963 33.0581 81.5283 31.8628 77.9423 34.5768 77.6091 36.6441 76.5705 37.5328 75.9905 38.3543 75.3136 39.0936 74.5522L39.4071 74.2484C39.8178 74.0611 40.3031 74.1784 40.5829 74.5326 40.8278 75.3164 40.5339 76.6783 42.1505 75.9141 43.1303 75.4536 43.7182 76.0611 44.2571 76.7371 45.8541 78.6967 47.1965 80.6563 44.2571 82.6158L43.5418 82.6158C42.2975 82.3807 42.2289 80.9894 41.2883 80.3329 42.4151 82.5473 41.0238 84.0071 39.8676 85.5258Z" fill="#803D50" transform="matrix(6.12323e-17 1 -1.01862 6.23723e-17 233 168.61)"/><path d="M341.574 115.517C339.885 116.097 338.361 117.079 337.136 118.378 335.382 120.171 333.04 120.034 330.757 120.014 329.65 116.281 331.58 110.785 334.784 109.1 335.97 108.472 336.489 108.198 335.764 106.758 334.696 104.71 335.989 102.28 335.098 100.125 337.175 99.2429 338.488 100.183 339.389 101.839 339.114 100.768 339.235 99.6338 339.732 98.6452 340.034 97.9746 340.723 97.5638 341.457 97.6164 342.191 97.7004 342.847 98.12 343.23 98.753 340.34 100.291 340.957 101.398 343.965 102.074 342.201 104.269 339.752 103.515 337.782 104.201 338.008 105.954 339.742 105.337 340.565 106.16 341.388 106.983 342.887 107.483 341.741 109.198 341.29 109.854 340.565 110.961 341.525 111.441 342.799 112.088 342.985 110.706 343.377 109.854 343.495 109.609 343.857 109.472 344.288 109.168 344.582 110.893 343.602 112.108 343.377 113.509Z" fill="#623340" transform="matrix(6.12323e-17 1 -1.01862 6.23723e-17 233 168.61)"/><path d="M343.201 98.753C342.625 98.8147 342.063 98.5453 341.751 98.0573L341.898 97.5772C344.778 95.4707 345.817 91.3164 349.736 90.3562 350.232 90.2371 350.753 90.289 351.215 90.5032 351.891 91.8847 350.392 91.9434 349.883 92.4039 348.002 94.0598 348.443 95.0592 350.529 95.8528 351.111 96.3036 351.217 97.1405 350.767 97.7223 350.698 97.811 350.619 97.8907 350.529 97.9594 351.01 99.9189 353.4 101.408 352.048 103.838 350.167 102.986 349.217 104.23 348.129 106.141 347.766 103.946 346.169 103.123 347.09 100.605 348.011 98.0867 344.7 99.1351 343.201 98.753Z" fill="#602B3A" transform="matrix(6.12323e-17 1 -1.01862 6.23723e-17 233 168.61)"/><path d="M356.408 92.1002C355.213 92.7077 354.272 94.1676 352.538 93.2858 354.439 90.0133 356.379 86.9563 360.886 87.701 361.503 87.8283 362.375 87.5148 362.64 88.2692 362.904 89.0237 362.062 88.9943 361.601 89.1902 360.514 89.9447 360.984 91.1498 360.837 92.1296 359.416 91.8455 359.73 90.1112 358.662 89.4744Z" fill="#602B3A" transform="matrix(6.12323e-17 1 -1.01862 6.23723e-17 233 168.61)"/><path d="M352.058 106.738C351.882 108.012 350.774 108.453 349.932 109.139 348.825 108.228 348.834 107.336 350.128 106.689 350.696 106.405 351.48 104.71 352.058 106.738Z" fill="#4F2F32" transform="matrix(6.12323e-17 1 -1.01862 6.23723e-17 233 168.61)"/><path d="M241.841 133.927C240.509 134.907 238.98 134.77 237.462 134.603 237.56 133.271 240.607 131.958 237.462 130.616 237.307 130.431 237.182 130.222 237.089 129.998 236.521 128.921 238.422 127.451 236.874 126.746 235.326 126.04 234.199 127.363 233.209 128.48 232.584 129.236 231.852 129.897 231.034 130.439 230.403 130.697 229.682 130.393 229.425 129.762 229.407 129.718 229.391 129.672 229.379 129.626 230.153 128.039 228.849 126.383 228.056 126.618 225.928 127.108 224.301 128.827 223.931 130.978 223.813 132.085 223.696 132.781 222.745 133.281 221.001 132.546 220.629 131.164 220.923 129.45 221.109 128.352 220.747 127.823 219.561 128.343 218.042 127.706 216.484 126.785 216.68 125.031 216.857 123.424 218.983 124.051 219.973 123.228 222.108 122.415 224.538 124.365 226.557 122.493 228.683 121.719 230.927 122.248 233.082 121.886 235.238 121.523 237.109 120.906 236.737 117.967 236.551 116.517 236.737 114.949 238.824 114.763 239.803 117.026 240.597 119.505 243.331 120.397 242.929 124.678 242.165 128.96 243.262 133.251 242.702 133.205 242.16 133.464 241.841 133.927Z" fill="#4C2830" transform="matrix(6.12323e-17 1 -1.01862 6.23723e-17 233 168.61)"/><path d="M219.826 128.098C219.973 127.363 219.512 126.138 220.805 126.265 221.623 126.443 222.143 127.249 221.965 128.067 221.954 128.12 221.94 128.173 221.922 128.225 221.619 129.998 221.55 131.693 222.716 133.212L223.363 136.054C221.011 136.679 218.584 136.976 216.151 136.935 214.107 137.183 212.168 137.986 210.547 139.257 209.882 140.03 208.757 140.212 207.882 139.689 206.902 138.964 206.902 137.837 207.127 136.7 207.843 133.173 209.881 132.066 213.3 133.369 216.896 134.741 218.885 133.545 219.277 129.734 219.385 129.166 219.336 128.558 219.826 128.098Z" fill="#3B2027" transform="matrix(6.12323e-17 1 -1.01862 6.23723e-17 233 168.61)"/><path d="M237.511 130.312C238.618 130.42 239.999 129.832 240.372 131.684 240.881 134.221 238.412 133.643 237.432 134.574L234.493 134.701C233.17 134.28 231.632 131.321 230.682 135.142 230.26 136.837 228.81 135.515 227.909 135.573 226.645 135.652 226.978 134.231 227.203 133.614 227.837 132.207 228.56 130.843 229.369 129.528L230.78 130.253C233.043 130.606 235.277 131.801 237.511 130.312Z" fill="#381E25" transform="matrix(6.12323e-17 1 -1.01862 6.23723e-17 233 168.61)"/><path d="M311.632 114.194C312.141 111.931 314.571 114.371 315.326 112.676 315.825 111.912 316.619 111.098 317.354 111.912 318.725 113.43 316.531 114.43 316.541 116.036 317.52 112.578 319.284 110.912 322.978 112.284 324.533 112.891 326.289 112.687 327.661 111.735 329.709 113.293 328.347 115.017 327.749 116.556 327.367 117.536 326.368 117.291 325.672 116.556 324.222 115.017 323.154 115.694 322.214 117.144 321.097 118.848 319.588 120.259 318.471 122.043 319.487 120.963 320.908 120.356 322.39 120.367 324.183 120.749 326.191 120.083 327.759 121.504 326.113 125.031 322.919 125.276 319.607 125.423 318.18 125.543 316.76 125.746 315.355 126.03L312.347 125.893C312.063 124.61 313.758 124.717 313.915 123.483 311.71 123.649 309.662 124.463 307.262 124.463 308.732 125.55 310.623 124.619 311.681 126.03 310.113 126.853 308.741 127.735 311.73 129.607 306.674 129.538 302.383 132.066 298.385 128.833 296.376 127.471 296.288 125.717 297.405 123.777 298.06 122.742 298.488 121.58 298.659 120.367 298.323 121.795 297.743 123.154 296.945 124.384 294.985 127.794 293.192 128.617 289.381 127.52 287.999 127.118 286.794 126.618 285.863 128.107 285.275 129.087 283.639 130.067 284.884 131.155 286.128 132.242 286.843 130.733 287.568 129.714 289.038 127.647 290.037 127.686 291.811 129.656 291.242 129.793 290.39 129.754 290.155 130.106 289.626 130.929 290.537 130.988 291.046 131.174 291.723 131.426 292.413 131.639 293.114 131.811 293.761 131.93 294.416 132.008 295.073 132.046 291.468 134.329 283.002 133.594 280.67 130.998 278.525 129.548 278.711 127.353 278.789 125.178 279.603 123.581 281.219 122.141 279.818 120.083 279.749 118.378 283.13 119.358 282.219 116.997 287.284 116.399 288.156 116.752 289.802 120.083 291.35 117.771 291.36 117.722 289.234 117.144 288.205 116.85 287.029 116.948 286.432 115.792 288.058 112.852 290.85 112.127 293.369 114.136 293.898 113.156 293.369 112.539 292.585 112.108 289.077 110.256 289.077 110.246 292.585 107.845 293.163 106.866 293.565 105.7 295.054 105.807 297.121 106.503 297.748 108.041 297.552 110.05 297.369 111.952 297.303 113.862 297.356 115.772 299.071 115.86 300.462 114.322 302.02 115.449 302.912 118.074 303.509 115.106 304.274 115.321 304.999 115.057 305.88 114.91 306.37 115.419 308.8 117.771 310.28 116.399 311.632 114.194Z" fill="#5E303B" transform="matrix(6.12323e-17 1 -1.01862 6.23723e-17 233 168.61)"/><path d="M291.811 129.577C289.959 128.539 288.342 128.117 288.087 131.066 287.97 132.419 286.99 132.536 285.971 132.487 284.952 132.438 283.904 132.859 283.296 131.84 282.689 130.821 283.218 129.763 284.041 128.901 285.648 127.245 286.059 123.904 290.008 126.746 292.859 128.784 296.964 125.305 297.542 120.867 297.66 119.985 297.542 119.27 298.434 118.809 299.032 118.515 299.512 117.594 300.276 118.339 300.786 118.829 300.472 119.466 300.149 119.995 299.963 120.308 299.669 120.563 299.512 120.886 298.316 123.375 296.7 125.785 298.395 128.725 296.161 128.705 294.103 130.096 291.811 129.577Z" fill="#3F242A" transform="matrix(6.12323e-17 1 -1.01862 6.23723e-17 233 168.61)"/><path d="M279.318 125.168C279.475 127.146 279.945 129.088 280.71 130.919 279.475 131.204 278.094 130.577 276.996 131.566 275.585 132.81 274.517 131.968 273.489 130.978 271.411 130.106 269.922 129.803 268.09 132.154 266.424 134.29 265.082 131.615 263.926 130.332 264.151 127.735 266.326 126.844 268.07 125.57 269.001 125.482 269.569 126.167 270.275 126.55 273.214 127.608 275.811 127.461 277.888 124.845 278.385 124.637 278.959 124.766 279.318 125.168Z" fill="#381E24" transform="matrix(6.12323e-17 1 -1.01862 6.23723e-17 233 168.61)"/><path d="M311.691 125.952C310.015 125.825 308.32 125.776 306.655 125.531 306.037 125.433 305.126 125.07 305.42 124.09 305.665 123.277 306.331 123.111 307.164 123.326 309.241 123.826 311.211 123.14 313.043 122.454 314.121 122.062 314.846 121.122 315.384 122.993 315.816 124.482 315.277 124.953 313.925 125.188 313.365 125.342 312.825 125.562 312.318 125.844 312.111 125.893 311.901 125.928 311.691 125.952Z" fill="#381D23" transform="matrix(6.12323e-17 1 -1.01862 6.23723e-17 233 168.61)"/><path d="M273.489 130.978 276.996 131.566C276.369 132.859 280.68 132.81 277.849 134.701 276.634 134.701 275.419 134.77 274.214 134.701 273.009 134.633 271.568 135.211 271.343 133.359 271.157 131.831 272.107 131.164 273.489 130.978Z" fill="#794050" transform="matrix(6.12323e-17 1 -1.01862 6.23723e-17 233 168.61)"/><path d="M171.297 144.196 167.622 144.303C164.928 144.93 165.379 142.491 164.614 141.227 164.276 140.358 164.159 139.419 164.271 138.493 164.541 137.408 165.208 136.463 166.143 135.848 166.645 135.651 167.198 135.633 167.711 135.799 168.102 136.083 167.632 135.662 168.024 135.956 173.815 140.247 175.108 139.806 177.038 132.869 179.742 131.057 179.978 131.145 181.065 134.554 181.05 136.452 181.656 138.303 182.79 139.826 183.289 140.453 183.828 141.178 183.064 142.011L183.064 142.089C182.379 142.685 181.441 142.897 180.565 142.657 178.978 141.521 177.43 142.863 175.853 142.746 175.522 142.723 175.194 142.67 174.873 142.589 173.139 141.834 172.384 143.392 171.297 144.196Z" fill="#3E2429" transform="matrix(6.12323e-17 1 -1.01862 6.23723e-17 233 168.61)"/><path d="M162.537 145.009C162.599 145.764 162.038 146.427 161.282 146.488 161.208 146.494 161.132 146.494 161.058 146.488 158.477 147.595 155.555 147.595 152.975 146.488 151.358 146.959 150.721 145.068 149.32 144.999 148.34 143.764 148.781 142.736 149.81 141.795 151.416 141.084 153.159 140.733 154.915 140.766 156.326 141.055 157.765 141.193 159.206 141.178 161.43 141.178 162.557 142.236 162.537 144.48Z" fill="#753D4D" transform="matrix(6.12323e-17 1 -1.01862 6.23723e-17 233 168.61)"/><path d="M175.02 142.011 175.725 142.069C177.264 143.902 178.665 140.894 180.183 141.952L183.123 142.089 183.123 144.96 181.673 145.009C179.597 146.076 177.134 146.076 175.059 145.009L174.383 145.009C173.609 143.745 173.021 142.579 175.02 142.011Z" fill="#88445A" transform="matrix(6.12323e-17 1 -1.01862 6.23723e-17 233 168.61)"/><path d="M152.975 146.459 161.058 146.459C158.51 148.536 154.993 148.536 152.975 146.459Z" fill="#694A4E" transform="matrix(6.12323e-17 1 -1.01862 6.23723e-17 233 168.61)"/><path d="M165.447 140.61C166.006 141.942 165.643 143.813 167.622 144.303 166.074 145.597 164.232 144.715 162.537 144.979L162.537 144.979C162.753 143.049 162.694 140.845 165.447 140.61Z" fill="#694A4E" transform="matrix(6.12323e-17 1 -1.01862 6.23723e-17 233 168.61)"/><path d="M175.02 142.011C173.962 142.795 174.334 143.911 174.334 144.95 173.276 144.891 172.09 145.313 171.297 144.196 171.463 141.55 172.521 140.59 175.02 142.011Z" fill="#694A4E" transform="matrix(6.12323e-17 1 -1.01862 6.23723e-17 233 168.61)"/><path d="M175.01 145.009 181.624 145.009C179.399 147.586 177.195 147.027 175.01 145.009Z" fill="#694A4E" transform="matrix(6.12323e-17 1 -1.01862 6.23723e-17 233 168.61)"/><path d="M150.025 142.069C149.468 142.942 149.219 143.978 149.32 145.009L144.93 145.009 144.872 144.94C146.096 143.108 147.174 141.001 150.025 142.069Z" fill="#644848" transform="matrix(6.12323e-17 1 -1.01862 6.23723e-17 233 168.61)"/><path d="M243.282 133.251C240.871 131.537 242.037 128.823 241.665 126.628 241.461 124.552 242.061 122.476 243.34 120.828 244.026 120.259 244.644 120.504 245.251 120.975 245.516 121.21 245.731 121.562 246.035 121.68 250.542 123.502 250.767 123.992 249.16 128.539 247.75 130.106 247.407 132.232 246.221 133.937Z" fill="#5F303C" transform="matrix(6.12323e-17 1 -1.01862 6.23723e-17 233 168.61)"/><path d="M246.27 133.947C245.741 131.527 247.054 129.803 248.484 128.068 248.874 127.722 249.385 127.546 249.905 127.578 254.344 129.881 255.323 129.734 258.821 126.226 259.987 125.666 261.386 126.157 261.947 127.322 261.947 127.322 261.947 127.322 261.947 127.322L261.956 127.343C262.224 128.302 262.389 129.288 262.446 130.283L262.446 131.752C259.781 132.321 257.195 133.898 254.353 132.448 253.423 131.468 251.825 131.419 251.502 132.291 250.385 135.387 248.2 134.035 246.27 133.947Z" fill="#381E24" transform="matrix(6.12323e-17 1 -1.01862 6.23723e-17 233 168.61)"/><path d="M219.826 128.098C221.207 130.861 220.208 132.997 217.866 134.613 215.524 136.23 213.692 134.799 211.928 133.731 210.772 133.036 210.165 132.605 209.42 134.045 208.676 135.485 207.039 136.984 208.097 138.944 208.587 139.855 209.636 139.208 209.93 138.758 211.527 136.328 213.849 136.886 216.142 136.955 214.358 137.631 213.77 138.787 214.662 140.561 211.992 141.256 209.19 141.256 206.52 140.561 203.835 140.212 201.111 140.351 198.476 140.972 197.604 141.158 196.859 141.374 196.213 140.6 196.533 139.711 197.011 138.888 197.624 138.17 197.923 138 198.259 137.906 198.603 137.896 200.328 138.464 201.788 138.807 200.935 136.034 200.455 134.466 201.21 132.889 201.239 131.302 201.213 129.947 200.593 128.671 199.544 127.814 198.731 126.991 198.564 125.795 199.926 125.58 203.571 125.021 203.012 121.915 202.944 119.907 202.875 117.898 200.808 116.507 198.447 116.389 198.078 116.347 197.721 116.24 197.388 116.076 197.082 115.885 196.866 115.577 196.791 115.223 196.87 114.864 197.093 114.552 197.408 114.361 199.289 113.636 201.19 112.999 203.287 113.567 204.884 115.076 206.079 117.046 208.264 117.888 208.529 118.652 207.284 119.358 208.676 120.328 211.615 122.288 211.39 123.267 208.176 124.668 212.095 125.844 214.77 122.297 218.287 122.327 219.018 122.456 219.614 122.987 219.826 123.698 219.826 125.893 217.935 124.149 217.102 125.07Z" fill="#5C2F39" transform="matrix(6.12323e-17 1 -1.01862 6.23723e-17 233 168.61)"/><path d="M262.446 130.312C261.28 129.881 261.124 129.136 261.731 128.137 261.949 127.525 262.234 126.94 262.584 126.393 262.765 126.102 262.961 125.821 263.171 125.55 264.151 124.188 265.601 123.15 266.111 121.406 266.336 120.583 266.718 119.72 267.806 119.809 268.841 119.871 269.65 120.731 269.648 121.768 269.746 123.287 270.187 125.002 268.335 125.942 266.885 127.431 265.432 128.914 263.975 130.39Z" fill="#6B3845" transform="matrix(6.12323e-17 1 -1.01862 6.23723e-17 233 168.61)"/><path d="M327.769 121.494C325.809 121.19 323.722 122.229 321.89 120.779 321.547 119.26 322.694 118.819 323.722 118.613 328.729 117.829 329.924 114.234 330.326 109.981 330.692 109.029 331.193 108.134 331.815 107.326 333.677 104.201 330.444 102.574 329.719 100.213 329.691 99.4976 330.041 98.8216 330.64 98.4296 332.394 97.8516 333.344 95.5981 335.588 96.039 336.25 96.195 336.855 96.5346 337.332 97.0187 338.057 99.1057 335.784 99.1057 335.108 100.223 336.087 101.536 338.047 102.535 336.029 104.593 335.539 105.082 335.803 106.121 336.695 106.738 339.517 108.698 337.508 109.511 335.715 109.678 334.347 109.667 333.154 110.602 332.834 111.931 332.433 114.724 330.277 117.046 330.738 120.034Z" fill="#48232D" transform="matrix(6.12323e-17 1 -1.01862 6.23723e-17 233 168.61)"/><path d="M197.085 115.008 197.085 115.654C200.2 118.594 199.348 122.17 198.407 125.57 197.88 126.767 198.038 128.155 198.819 129.205 201.641 133.251 201.415 134.594 197.79 138.376L197.79 138.376C195.615 139.904 193.665 138.532 191.657 137.896 190.745 137.602 189.766 136.093 188.923 137.592 188.178 138.905 187.639 140.815 188.815 141.952 189.707 142.824 190.589 141.256 191.382 140.6 192.529 139.62 193.675 138.238 194.861 140.6 193.626 141.501 192.45 142.373 195.105 142.873 195.781 143.056 196.436 143.302 197.065 143.608 197.065 144.098 198.662 144.911 197.241 144.93 193.853 145.023 190.465 144.713 187.15 144.009 185.866 143.715 185.239 141.197 183.074 142.05 181.486 139.865 179.85 137.69 180.134 134.75 182.878 130.968 184.347 130.4 188.854 131.987 190.687 132.634 190.814 131.331 191.48 130.41 191.886 129.799 192.482 129.337 193.175 129.097 194.998 128.637 192.872 128.284 193.175 127.892 194.086 126.403 194.87 125.168 194.155 122.993 193.548 121.131 195.713 118.897 194.371 116.693 194.87 115.468 195.223 114.047 197.085 115.008Z" fill="#61343D" transform="matrix(6.12323e-17 1 -1.01862 6.23723e-17 233 168.61)"/><path d="M194.861 140.551C193.557 139.297 192.676 140.061 191.97 141.207 191.392 142.187 190.785 143.167 189.658 143.363 188.296 143.578 186.483 144.068 187.336 141.403 187.718 140.169 187.385 138.719 187.728 137.484 188.227 135.662 188.972 134.251 191.069 136.426 192.842 138.258 195.36 138.385 197.79 138.385 197.79 139.512 197.741 140.551 196.262 140.649Z" fill="#3F2127" transform="matrix(6.12323e-17 1 -1.01862 6.23723e-17 233 168.61)"/><path d="M44.2571 82.6158C45.9129 80.6563 44.5216 78.6967 44.2571 76.7371 48.1568 76.7425 51.882 78.3552 54.5547 81.1952 56.5143 82.1749 56.9846 83.9679 57.3961 85.8492 57.3708 86.9811 58.1655 87.9664 59.2773 88.181 61.0054 88.7261 62.4754 89.8827 63.412 91.434 64.1862 91.8176 64.7344 92.5438 64.8915 93.3935 65.2246 94.197 66.1456 94.8436 65.5185 95.8822 64.284 98.6746 67.6153 99.9189 67.7034 102.907 66.2534 101.526 64.4701 101.242 64.3624 98.9881 64.3624 98.1945 63.3238 98.1063 62.589 98.0671 58.3563 97.009 55.9558 93.854 57.8664 90.8853 55.9068 92.0218 54.3979 93.3249 52.5069 91.6495 50.9001 90.219 50.3906 88.7689 51.2822 86.8289 51.4193 85.1045 49.5969 83.4879 51.5565 81.4597 49.0483 81.734 47.3238 82.2729 46.1089 83.9288 45.521 84.3991 44.9233 84.7224 44.2571 84.0463Z" fill="#8D4259" transform="matrix(6.12323e-17 1 -1.01862 6.23723e-17 233 168.61)"/><path d="M65.5185 95.8332C65.0396 95.096 64.819 94.2207 64.8915 93.3445 67.8308 95.1278 71.1033 96.5093 72.1125 100.272 69.9472 98.7432 67.047 98.3023 65.5185 95.8332Z" fill="#A6577A" transform="matrix(6.12323e-17 1 -1.01862 6.23723e-17 233 168.61)"/><path d="M56.7494 86.2215 58.4248 86.2215C60.7861 87.2992 62.7261 88.7787 63.412 91.4535 61.8247 90.5619 60.7273 88.9355 58.513 89.0237 57.2996 88.8121 56.4874 87.6571 56.6988 86.4436 56.7119 86.3687 56.7288 86.2947 56.7494 86.2215Z" fill="#A95C7F" transform="matrix(6.12323e-17 1 -1.01862 6.23723e-17 233 168.61)"/><path d="M346.845 49.5675C343.906 51.7329 341.378 50.028 338.948 49.7145 336.871 49.45 338.841 47.6178 338.645 46.4812 338.409 45.0703 339.987 44.9821 341.016 45.5994 342.926 46.7752 344.778 48.1371 346.845 49.5675Z" fill="#61313E" transform="matrix(6.12323e-17 1 -1.01862 6.23723e-17 233 168.61)"/><path d="M353.537 54.0256C352.558 55.1425 353.312 56.7102 351.989 57.4255 351.264 54.976 347.502 56.965 347.365 54.6918 347.277 53.1438 349.491 51.7525 351.039 51.341 352.371 51.0176 352.607 53.134 353.537 54.0256Z" fill="#693646" transform="matrix(6.12323e-17 1 -1.01862 6.23723e-17 233 168.61)"/><path d="M349.021 78.2754C348.58 73.641 343.955 71.4169 342.603 67.3213 342.378 66.6355 341.026 66.3415 340.193 65.8516 337.89 64.5289 335.568 63.3728 334.255 60.7469 333.04 58.3073 330.552 58.0427 329.258 59.8651 328.19 59.1107 328.729 57.9839 328.572 57.0139 331.11 56.2791 333.706 56.4163 335.597 58.1897 337.519 59.8527 339.329 61.6397 341.016 63.5393 341.019 64.7352 341.923 65.7363 343.112 65.8615 344.631 68.6538 346.267 71.3679 349.05 73.1413Z" fill="#7A646B" transform="matrix(6.12323e-17 1 -1.01862 6.23723e-17 233 168.61)"/><path d="M343.906 90.6403 347.541 86.0353C347.894 87.0151 347.228 88.3476 348.335 89.1804 349.05 89.6213 349.687 90.072 348.903 90.9832 347.461 91.6908 345.779 91.7266 344.308 91.0812Z" fill="#924A6A" transform="matrix(6.12323e-17 1 -1.01862 6.23723e-17 233 168.61)"/><path d="M349.119 90.6109 348.345 89.1608C351.176 90.1406 352.264 87.6128 353.792 85.8883 355.105 89.1021 352.127 89.1021 351.206 90.4836L349.853 90.7383C349.55 91.0224 349.295 90.9832 349.119 90.6109Z" fill="#9E506C" transform="matrix(6.12323e-17 1 -1.01862 6.23723e-17 233 168.61)"/><path d="M350.471 97.9789 350.471 95.8724C351.735 96.0684 352.724 95.3041 353.988 94.824 354.566 97.9789 352.724 98.1357 350.471 97.9789Z" fill="#773E4E" transform="matrix(6.12323e-17 1 -1.01862 6.23723e-17 233 168.61)"/><path d="M348.08 85.4376 349.785 84.0071C349.844 84.1136 349.893 84.2251 349.932 84.3403 350.157 85.3201 351.646 86.3978 350.402 87.2796 348.619 88.4456 349.471 85.2907 348.08 85.4376Z" fill="#924A6A" transform="matrix(6.12323e-17 1 -1.01862 6.23723e-17 233 168.61)"/><path d="M93.4131 125.942C90.9049 124.708 91.7377 122.601 92.6097 121.043 93.4033 119.671 93.1486 119.152 92.0218 118.515 90.6893 116.644 92.2864 115.576 93.1388 114.263 94.4223 113.901 95.4021 111.784 96.8326 112.98 98.3954 114.144 98.995 116.204 98.3023 118.025 97.93 119.005 99.0665 118.192 99.2821 118.564 101.555 119.907 102.525 117.585 103.926 116.771 104.622 116.36 105.2 115.419 105.886 114.812L107.845 114.028C110.393 113.871 113.401 112.558 114.253 116.605 113.528 118.78 111.696 117.957 110.236 118.025 108.776 118.094 107.934 118.388 108.453 120.201 109.217 122.875 108.012 125.158 106.611 127.343 104.191 127.843 101.976 129.714 99.2625 128.245 98.5404 127.953 97.7177 128.302 97.4258 129.025L97.4205 129.038C96.9796 129.871 97.6948 130.341 98.0769 130.939 99.723 133.477 99.0567 136.279 96.7346 136.818 95.3727 137.112 93.8638 137.043 93.5111 135.309 93.1584 133.575 90.3954 132.203 92.8546 130.214 93.8344 129.44 94.8142 128.764 94.8142 127.353 95.4413 126.314 96.6268 127.353 97.1461 126.902 96.0194 127.147 94.8828 125.56 93.4131 125.942Z" fill="#713344" transform="matrix(6.12323e-17 1 -1.01862 6.23723e-17 233 168.61)"/><path d="M294.858 106.111C293.545 106.435 293.516 107.258 293.996 108.286 291.899 109.266 289.773 107.904 287.666 108.365 285.609 108.443 284.159 106.993 282.405 106.288 281.383 106.299 280.362 106.207 279.358 106.013 279.016 105.888 278.705 105.691 278.446 105.435 278.446 101.418 281.543 103.711 283.208 103.113 285.765 105.239 288.215 102.79 289.724 101.957 296.112 98.3905 302.99 95.4511 308.203 90.0133 309.271 88.8963 309.907 87.2796 311.593 86.8191 312.282 88.3264 311.709 90.1113 310.27 90.9343 306.459 93.1388 305.978 98.4492 301.452 99.9973 300.658 100.272 300.384 102.055 299.865 103.133 299.198 104.651 298.032 104.779 296.651 104.289 295.083 101.781 293.516 103.407 292.212 104.289 293.3 103.76 294.525 102.408 296.132 103.691 296.808 105.102 295.524 105.445 294.858 106.111Z" fill="#8A3D57" transform="matrix(6.12323e-17 1 -1.01862 6.23723e-17 233 168.61)"/><path d="M149.193 116.242C154.297 113.577 159.079 113.861 163.889 117.222 165.864 118.587 168.488 118.544 170.415 117.114 175.823 112.656 181.418 112.813 187.375 115.547 189.481 115.262 191.294 116.379 193.303 116.693 194.331 117.957 195.36 119.495 193.91 120.808 192.646 121.954 191.216 121.024 190.118 119.887 189.962 119.711 190.04 118.799 189.315 119.564 187.022 121.945 185.396 120.122 183.926 118.506 182.456 116.889 180.761 116.399 178.772 117.526 177.931 117.765 177.061 117.883 176.186 117.878 173.893 118.692 172.11 120.377 169.788 121.259 164.438 123.297 163.478 123.287 159.324 119.035 156.433 117.291 152.935 118.143 149.937 116.859 149.633 116.732 149.374 116.518 149.193 116.242Z" fill="#93445F" transform="matrix(6.12323e-17 1 -1.01862 6.23723e-17 233 168.61)"/><path d="M238.882 114.861C237.707 115.357 237.132 116.693 237.579 117.888 238.618 120.994 236.727 122.003 234.307 122.66 231.71 123.355 229.036 122.787 226.4 123.013 223.274 123.738 222.726 123.395 223.343 120.573 223.833 118.349 222.804 116.517 222.255 114.586 221.707 112.656 219.541 113.989 218.464 112.96 217.935 111 219.718 111.402 220.6 110.883 220.92 110.789 221.247 110.723 221.579 110.687 222.657 110.618 223.794 111.128 224.803 110.363 225.075 110.199 225.428 110.277 225.606 110.54L227.086 112.049C227.086 113.087 226.88 114.43 228.565 114.194 230.525 113.93 232.328 114.978 234.66 114.802 233.895 113.692 234.053 112.191 235.032 111.265 235.833 110.467 237.079 110.325 238.04 110.922 238.442 112.205 239.833 113.283 238.882 114.861Z" fill="#6D3343" transform="matrix(6.12323e-17 1 -1.01862 6.23723e-17 233 168.61)"/><path d="M246.976 108.316C247.498 108.528 247.819 109.057 247.769 109.619 248.053 110.804 249.592 110.765 249.954 111.872 250.728 112.989 250.081 114.263 250.346 115.429 250.562 116.409 251.257 117.026 252.208 116.585 253.667 115.909 251.874 115.772 251.825 115.233 251.718 113.979 252.041 112.862 253.07 112.431 254.706 111.745 255.529 110.119 257.087 109.403 260.751 110.765 259.272 113.636 259.047 116.134 259.096 119.299 257.254 120.632 254.373 120.945 252.222 121.131 250.062 121.171 247.906 121.063 245.32 120.975 243.909 120.191 244.399 117.065 244.938 113.695 242.949 110.932 241.126 108.247 243.125 106.797 245.055 107.316 246.976 108.316Z" fill="#6F3544" transform="matrix(6.12323e-17 1 -1.01862 6.23723e-17 233 168.61)"/><path d="M246.976 108.316C245.085 108.649 242.968 107.483 241.254 109.139 240.881 110.775 239.343 110.746 238.187 111.265 235.042 111.51 235.042 111.51 235.806 114.204 236.051 115.076 234.326 116.409 233.2 115.948 231.495 115.243 229.947 114.714 228.026 115.321 227.047 115.625 225.851 114.626 225.499 113.724 225.146 112.823 226.743 112.823 227.086 112.039 228.908 112.509 230.084 111.902 231.446 110.452 234.534 107.034 239.171 105.455 243.703 106.278 245.064 106.373 246.29 107.136 246.976 108.316Z" fill="#8F455F" transform="matrix(6.12323e-17 1 -1.01862 6.23723e-17 233 168.61)"/><path d="M114.077 117.016C113.156 113.705 110.383 114.224 107.934 114.077 112.98 111.961 117.34 113.293 121.073 116.928 122.121 117.908 122.905 118.809 124.384 117.908 125.55 117.908 126.971 117.477 127.451 118.946 127.931 120.416 126.422 120.906 125.491 121.572 124.758 122.175 123.985 122.727 123.179 123.228 119.711 123.512 118.28 122.572 117.153 119.495 116.84 118.643 117.359 116.801 115.292 117.389 114.849 117.515 114.373 117.37 114.077 117.016Z" fill="#8C3F59" transform="matrix(6.12323e-17 1 -1.01862 6.23723e-17 233 168.61)"/><path d="M134.701 114.807C137.513 115.12 140.178 115.649 141.923 118.275 143.088 120.019 144.558 119.51 146.008 118.54 147.096 117.815 147.752 116.482 149.193 116.267 149.298 116.371 149.396 116.482 149.486 116.6 149.624 117.58 148.712 118.148 148.791 119.059 150.016 120.891 149.006 122.077 147.507 122.89 145.489 123.978 143.343 125.193 141.001 124.036 139.649 123.37 140.345 122.283 142.961 121.097 138.062 120.676 138.062 120.676 135.583 117.668 135.093 116.786 134.006 116.071 134.701 114.807Z" fill="#944862" transform="matrix(6.12323e-17 1 -1.01862 6.23723e-17 233 168.61)"/><path d="M134.701 114.782 136.142 117.055C135.68 118.203 134.806 119.136 133.692 119.671 132.431 119.94 131.12 119.54 130.224 118.613 126.442 119.172 128.578 122.66 127.284 124.492 125.634 124.687 123.985 124.125 122.797 122.964 123.61 121.171 125.609 120.769 126.922 119.544 126.618 118.035 124.835 119.035 124.355 117.937 125.193 116.743 126.454 115.913 127.882 115.615 130.077 115.05 132.337 114.779 134.603 114.812Z" fill="#733245" transform="matrix(6.12323e-17 1 -1.01862 6.23723e-17 233 168.61)"/><path d="M225.606 110.54C225.42 110.601 225.224 110.627 225.028 110.618 223.98 111.882 222.402 110.109 221.334 111.255L221.334 111.255C218.752 111.479 216.345 112.656 214.584 114.557 214.419 114.844 214.225 115.114 214.006 115.36 211.537 118.731 210.645 119.133 205.844 113.46 210.165 114.714 213.222 111.696 216.514 110.001 219.806 108.306 222.647 109.041 225.606 110.54Z" fill="#AC577D" transform="matrix(6.12323e-17 1 -1.01862 6.23723e-17 233 168.61)"/><path d="M205.815 113.469 207.353 114.312C209.097 115.292 212.644 115.566 213.917 114.89 214.848 115.674 216.857 115.87 216.24 117.555 215.622 119.24 213.8 119.828 212.007 119.446 210.57 119.309 209.208 118.749 208.088 117.839 205.295 118.231 203.884 116.957 203.679 114.214 203.285 113.775 203.322 113.1 203.761 112.706L203.796 112.676C204.121 112.366 204.637 112.38 204.945 112.705 204.969 112.731 204.991 112.756 205.011 112.784Z" fill="#8B415A" transform="matrix(6.12323e-17 1 -1.01862 6.23723e-17 233 168.61)"/><path d="M283.208 103.113C281.905 104.416 279.23 102.711 278.495 105.269 277.78 106.356 276.536 106.738 275.556 107.483 274.41 108.13 273.126 108.463 271.941 108.992 269.618 110.079 268.021 109.56 267.531 106.866 269.599 107.081 271.196 106.062 272.754 104.906 275.697 102.547 279.648 101.87 283.208 103.113Z" fill="#B25F86" transform="matrix(6.12323e-17 1 -1.01862 6.23723e-17 233 168.61)"/><path d="M267.483 106.866C270.246 110.785 272.832 106.67 275.507 106.689 276.84 107.071 277.633 107.904 277.378 109.335 277.153 110.589 275.967 110.795 274.988 111.294 272.127 112.715 269.599 110.314 266.855 110.706 266.071 110.7 265.298 110.519 264.592 110.177 262.388 107.865 263.554 106.777 266.052 106.17 266.816 105.817 267.042 106.621 267.483 106.866Z" fill="#843B51" transform="matrix(6.12323e-17 1 -1.01862 6.23723e-17 233 168.61)"/><path d="M97.2507 120.047C98.5511 117.297 91.2369 114.241 96.3269 112.229 97.7571 111.817 97.6044 112.617 98.5756 113.908 101.264 115.969 102.992 116.45 105.657 115.03 105.123 117.506 102.295 118.903 100.678 120.676 99.6446 121.799 98.3934 120.372 97.2507 120.047Z" fill="#9B4E67" transform="matrix(6.12323e-17 1 -1.01862 6.23723e-17 233 168.61)"/><path d="M249.768 109.58C254.598 103.985 258.841 102.515 263.955 104.681 262.584 106.425 259.86 105.523 258.566 107.424 258.342 107.669 258.069 107.863 257.763 107.992 256.432 107.972 255.138 108.431 254.118 109.286 253.205 110.313 251.78 110.717 250.464 110.324 250.144 110.175 249.894 109.909 249.768 109.58Z" fill="#B05B88" transform="matrix(6.12323e-17 1 -1.01862 6.23723e-17 233 168.61)"/><path d="M193.391 117.104C191.128 117.594 188.342 115.611 186.304 115.219 190.314 115.096 194.242 114.059 197.79 112.186 198.633 113.391 197.79 114.087 197.016 114.822L197.085 115.008C195.38 114.577 195.448 116.203 194.782 116.967 194.371 117.575 193.891 117.516 193.391 117.104Z" fill="#B55881" transform="matrix(6.12323e-17 1 -1.01862 6.23723e-17 233 168.61)"/><path d="M197.016 114.822C197.269 113.979 197.513 113.145 197.756 112.303 197.776 112.234 197.839 112.186 197.912 112.185 200.284 112.144 202.727 110.924 204.962 112.774 203.982 112.774 203.649 113.342 203.649 114.214Z" fill="#A25479" transform="matrix(6.12323e-17 1 -1.01862 6.23723e-17 233 168.61)"/><path d="M257.969 107.502C258.655 103.818 262.045 105.768 263.955 104.642 264.465 104.71 264.994 104.759 265.131 105.396 264.151 106.924 262.388 106.817 260.987 107.473 259.987 107.777 258.988 108.443 257.969 107.502Z" fill="#843B51" transform="matrix(6.12323e-17 1 -1.01862 6.23723e-17 233 168.61)"/><path d="M260.947 106.797C262.133 105.709 263.798 106.023 265.131 105.386L266.111 106.15C265.131 107.13 263.171 107.718 264.7 109.707 264.468 109.946 264.159 110.095 263.828 110.128 261.731 109.981 262.495 107.405 260.947 106.797Z" fill="#682F3E" transform="matrix(6.12323e-17 1 -1.01862 6.23723e-17 233 168.61)"/><path d="M134.633 114.792C132.536 116.272 130.165 115.458 127.912 115.596 130.038 114.42 132.272 113.656 134.633 114.792Z" fill="#944862" transform="matrix(6.12323e-17 1 -1.01862 6.23723e-17 233 168.61)"/><path d="M249.219 111.931C249.278 110.824 245.908 111.863 247.769 109.619L249.729 109.619 249.974 109.972C250.64 110.314 251.159 110.795 250.826 111.608 250.493 112.421 249.915 112.45 249.219 111.931Z" fill="#A14C66" transform="matrix(6.12323e-17 1 -1.01862 6.23723e-17 233 168.61)"/><path d="M296.23 103.907C297.498 104.124 298.803 103.847 299.874 103.133 300.658 103.387 302.138 102.8 301.775 104.514 301.187 107.287 304.381 109.981 301.775 112.911 300.972 113.812 302.402 114.155 303.255 114.165L311.642 114.165C310.662 118.564 309.986 118.907 306.929 116.389 306.164 115.768 305.164 115.513 304.195 115.694 303.57 116.199 302.665 116.157 302.089 115.596 300.913 115.664 299.688 115.439 298.738 116.507 296.661 118.848 296.778 115.899 295.936 115.311 297.307 113.881 295.936 112.078 296.563 110.579 297.444 108.492 296.7 107.101 294.868 106.082 294.466 104.818 295.906 104.69 296.249 103.877Z" fill="#361A20" transform="matrix(6.12323e-17 1 -1.01862 6.23723e-17 233 168.61)"/><path d="M327.789 111.961C326.211 114.224 323.438 113.92 321.91 113.126 318.863 111.618 318.422 113.313 317.599 115.341 317.207 116.321 316.972 117.438 315.639 118.133 315.022 116.272 315.904 114.9 316.717 113.528 317.001 113.058 317.765 112.548 316.717 112.254 316.345 112.147 315.825 112.519 315.375 112.676 315.813 109.112 315.036 105.505 313.17 102.437 313.221 102.121 313.348 101.821 313.542 101.565 313.774 101.34 314.034 101.145 314.316 100.987 315.042 100.602 315.813 100.305 316.609 100.105 318.441 99.8601 320.626 98.7726 320.528 102.28 320.528 103.75 323.82 102.447 323.193 104.749 322.841 106.072 320.783 105.964 320.254 107.316 319.852 108.443 319.5 109.687 321.488 109.874 322.801 109.991 324.124 110.217 325.408 110.393 326.446 110.53 327.818 110.285 327.789 111.961Z" fill="#3F2026" transform="matrix(6.12323e-17 1 -1.01862 6.23723e-17 233 168.61)"/><path d="M310.27 97.9789C310.27 98.4982 309.506 99.4682 310.985 99.0175 312.465 98.5668 313.68 97.5674 315.306 97.9496 316.786 99.9091 314.757 100.605 313.876 101.702L313.876 101.702C312.553 102.31 311.015 101.888 309.849 103.583 308.585 105.425 306.282 105.308 304.352 103.858 304.969 99.4388 306.576 97.832 310.27 97.9789Z" fill="#A35372" transform="matrix(6.12323e-17 1 -1.01862 6.23723e-17 233 168.61)"/><path d="M304.352 103.858C306.635 103.75 309.065 104.485 310.828 102.035 311.22 101.487 312.788 101.79 313.876 101.702L313.121 102.417C311.22 102.417 310.427 102.848 312.004 104.622 313.582 106.395 312.132 106.983 310.838 106.699 308.79 106.248 306.752 106.229 304.705 105.984 303.078 105.817 302.363 104.945 304.352 103.858Z" fill="#8C3E57" transform="matrix(6.12323e-17 1 -1.01862 6.23723e-17 233 168.61)"/><path d="M322.067 53.9472C325.8 54.4077 324.487 57.8664 325.574 59.8259 323.184 58.6208 322.831 56.1615 322.067 53.9472Z" fill="#60333B" transform="matrix(6.12323e-17 1 -1.01862 6.23723e-17 233 168.61)"/><path d="M341.016 63.5393C338.908 62.9836 337.1 61.6311 335.97 59.7672 334.324 57.0433 331.228 57.4549 328.572 56.9944 328.454 56.3679 328.745 55.735 329.297 55.4169 331.394 56.0048 333.442 56.6514 335.637 55.652 336.861 55.0936 337.969 55.652 338.88 56.6318 339.546 57.3373 340.163 58.3073 340.996 58.5914 345.033 59.9239 344.043 61.3054 341.192 62.8829 341.055 62.9417 341.074 63.314 341.016 63.5393Z" fill="#4F2B36" transform="matrix(6.12323e-17 1 -1.01862 6.23723e-17 233 168.61)"/><path d="M130.224 118.613C131.566 118.153 132.605 119.368 133.878 119.27 134.339 118.692 135.368 118.006 135.505 118.829 136.005 121.768 139.669 123.934 137.69 127.48 137.366 128.049 137.847 128.617 138.209 129.107 139.502 130.439 140.09 131.762 137.758 132.526 135.152 133.379 135.799 135.025 136.563 136.749 137.033 137.729 136.612 139.189 137.905 139.512 139.199 139.836 140.012 138.611 140.737 137.66 141.136 136.926 141.656 136.262 142.275 135.701 144.235 134.476 145.558 135.848 146.959 136.867 149.114 137.847 150.878 139.61 153.19 136.328 154.444 134.554 152.21 134.505 152.828 133.604 152.259 131.86 149.947 131.086 150.202 128.882 151.113 126.785 151.848 124.757 151.26 122.307 150.897 120.818 150.672 118.839 152.818 117.996 154.454 118.153 156.11 117.702 157.717 118.104 157.981 120.651 160.235 122.699 159.627 125.482 159.049 126.971 160.156 127.716 161.019 128.529 162.586 130.028 162.449 131.468 160.48 132.144 157.766 133.124 157.423 134.603 158.216 137.171 159.255 140.551 158.824 140.943 155.14 141.384L150.006 142.109C147.684 141.971 147.066 144.891 144.852 144.97L144.49 144.97C140.286 142.618 137.631 142.128 130.145 142.295 129.904 142.26 129.671 142.18 129.46 142.06 129.009 141.08 128.294 140.051 130.185 139.865 132.683 137.905 131.909 135.603 130.919 133.271 129.097 131.145 128.107 129.254 129.744 126.167 130.831 124.12 130.136 121.161 130.224 118.613Z" fill="#321B20" transform="matrix(6.12323e-17 1 -1.01862 6.23723e-17 233 168.61)"/><path d="M122.826 122.944C124.59 122.66 125.981 123.463 127.314 124.472 126.785 125.452 126.226 126.344 127.059 127.49 128.725 129.773 127.137 130.351 125.315 130.214 122.915 130.038 120.553 129.46 118.163 129.087 115.753 128.946 113.914 126.88 114.055 124.47L114.057 124.433C113.234 121.709 113.332 119.152 115.507 117.006 115.495 116.545 115.56 116.083 115.703 115.645 116.174 115.047 116.566 115.645 116.771 115.997 117.434 116.867 117.901 117.87 118.143 118.937 118.3 121.994 120.348 122.65 122.826 122.944Z" fill="#713344" transform="matrix(6.12323e-17 1 -1.01862 6.23723e-17 233 168.61)"/><path d="M115.507 117.006C115.027 119.485 114.528 121.964 114.057 124.433 112.01 127.128 113.322 130.851 111.118 133.927 110.393 132.419 109.883 131.076 108.257 130.488 107.209 130.106 105.778 129.117 106.748 127.382 106.635 126.049 106.911 124.712 107.542 123.532 108.035 122.831 108.248 121.971 108.139 121.122 107.316 116.889 107.326 116.85 111.716 117.202 112.568 117.271 113.362 117.516 114.126 116.977Z" fill="#2F191D" transform="matrix(6.12323e-17 1 -1.01862 6.23723e-17 233 168.61)"/><path d="M93.4327 114.204C94.0598 116.007 91.4731 116.762 92.0218 118.555 91.1792 121.151 90.3464 123.698 91.1792 126.54 91.4829 127.52 91.7965 129.107 90.7187 129.92 89.4058 130.9 88.6709 129.156 87.603 128.842L87.1621 128.607C86.1823 126.912 83.9778 126.226 83.5368 124.11 83.6936 123.424 84.2521 123.042 84.6832 122.562 84.8792 122.297 85.0653 122.033 85.2319 121.758 86.2117 120.054 87.0053 118.427 86.1137 116.321 85.1339 114.038 86.2313 112.891 88.6611 112.931 90.2484 113.342 92.0904 112.833 93.4229 114.204Z" fill="#2B171A" transform="matrix(6.12323e-17 1 -1.01862 6.23723e-17 233 168.61)"/><path d="M85.4376 123.022C85.1139 123.518 84.5367 123.789 83.9484 123.718 83.9484 126.275 85.7512 127.578 87.603 128.842L87.603 128.842C87.7695 131.017 90.0622 133.202 87.603 135.387 83.6838 134.153 80.7445 131.88 79.3139 127.902 78.5203 125.736 76.8351 126.128 75.1596 126.628L75.1596 123.689C74.751 123.334 74.7072 122.715 75.0619 122.306 75.1165 122.243 75.179 122.188 75.2478 122.141 76.7371 121.073 83.6936 121.7 85.4376 123.022Z" fill="#5D2C38" transform="matrix(6.12323e-17 1 -1.01862 6.23723e-17 233 168.61)"/><path d="M130.939 133.251C134.28 137.425 134.28 137.425 130.204 139.845 129.156 138.66 127.755 139.316 126.501 139.15 124.74 139.377 123.129 138.134 122.902 136.374 122.895 136.319 122.889 136.265 122.885 136.21 123.698 132.144 124.335 131.733 127.441 133.467 128.705 134.104 129.754 132.859 130.939 133.251Z" fill="#60323C" transform="matrix(6.12323e-17 1 -1.01862 6.23723e-17 233 168.61)"/><path d="M119.897 139.13C116.232 140.394 113.234 138.758 112.637 135.113 112.346 134.283 112.559 133.359 113.185 132.742 114.43 131.762 116.125 131.204 117.261 132.164 118.594 133.349 122.268 131.713 121.386 135.485 121.896 137.073 121.014 138.15 119.897 139.13Z" fill="#60323C" transform="matrix(6.12323e-17 1 -1.01862 6.23723e-17 233 168.61)"/><path d="M119.907 145.009C117.614 146.273 115.253 145.989 112.96 145.117 111.314 144.499 109.766 143.578 108.179 142.795 110.373 141.403 112.343 140.002 115.233 141.883 116.859 142.951 119.064 141.717 121.014 140.678 121.014 143.618 118.535 143.118 117.31 144.117 117.957 145.42 119.074 144.774 119.907 145.009Z" fill="#644848" transform="matrix(6.12323e-17 1 -1.01862 6.23723e-17 233 168.61)"/><path d="M109.06 137.406C105.856 138.385 103.711 137.043 102.045 134.701 101.306 133.818 101.357 132.518 102.163 131.693 103.084 130.714 104.034 131.419 104.71 132.017 106.386 133.516 108.414 134.76 109.06 137.406Z" fill="#6E3B47" transform="matrix(6.12323e-17 1 -1.01862 6.23723e-17 233 168.61)"/><path d="M119.897 139.13 121.386 135.485 122.885 136.191 126.501 139.13C124.806 141.09 124.835 141.09 123.336 139.071 122.229 137.582 121.053 140.325 119.897 139.13Z" fill="#321B20" transform="matrix(6.12323e-17 1 -1.01862 6.23723e-17 233 168.61)"/><path d="M93.4131 125.942C95.5981 123.767 96.6072 127.647 98.5276 127.373L94.9416 127.373Z" fill="#8F4A62" transform="matrix(6.12323e-17 1 -1.01862 6.23723e-17 233 168.61)"/><path d="M52.6263 87.2429C52.6263 88.4285 50.9018 89.4866 52.8222 90.8779 54.2233 91.8577 55.0561 92.3378 56.4572 91.1425 56.9569 90.7212 57.8485 90.7897 58.5344 90.5644 59.2202 90.339 60.0922 90.388 60.2098 91.2796 60.298 91.9459 60.4824 92.4547 59.777 92.3959 57.2197 92.2783 56.663 92.8571 58.2796 94.1602 59.8962 95.4634 61.3366 96.8938 62.8553 98.2758 63.6489 102.126 60.3764 99.8435 58.9361 100.892 59.1027 102.068 60.7095 103.439 59.2104 104.811 54.2233 102.655 55.0169 101.264 59.1027 97.4034 55.9379 95.9729 54.1449 92.5045 50.3825 92.1712 50.2748 92.1712 50.0984 92.0538 50.0886 91.9754 49.7359 88.3305 43.7736 86.9759 44.543 84.2643 45.1229 84.3534 45.7035 84.1068 46.0421 83.6275 48.9716 83.4903 50.7842 85.3911 52.6263 87.2429Z" fill="#5C2834" transform="matrix(6.12323e-17 1 -1.01862 6.23723e-17 233 168.61)"/><path d="M39.8676 85.5258C39.5149 83.5075 43.1107 81.3225 38.8976 79.3629 42.4739 78.6183 42.6992 80.9796 43.5418 82.5864 43.1107 84.5264 42.0428 85.7512 39.8676 85.5258Z" fill="#5C2834" transform="matrix(6.12323e-17 1 -1.01862 6.23723e-17 233 168.61)"/><path d="M85.4376 123.022C82.4199 121.249 79.118 124.09 76.0317 122.434 75.5124 122.16 75.2184 123.111 75.1205 123.708L72.1223 123.708C70.6624 117.055 72.622 110.53 72.8963 103.936 73.9103 103.845 74.9238 104.115 75.7573 104.7 76.8939 105.553 78.3636 104.7 79.5197 105.406 79.3923 108.59 80.9894 110.119 83.9092 108.884 86.3684 107.836 86.3586 111.412 88.328 110.657 88.394 111.025 88.2264 111.395 87.9067 111.588 87.0406 112.23 85.8415 112.168 85.0457 111.441 86.1921 112.666 85.5748 114.194 85.8394 115.566 86.0451 116.683 88.3182 117.604 86.4566 118.848 84.9771 119.828 83.7328 118.594 82.7432 117.428 81.8222 116.448 81.5675 115.135 80.6955 114.145 81.4793 115.125 80.813 116.938 82.655 117.34 83.2037 118.466 83.4193 119.73 84.8106 120.338 86.0059 120.857 85.9177 121.964 85.418 123.022Z" fill="#6F3243" transform="matrix(6.12323e-17 1 -1.01862 6.23723e-17 233 168.61)"/><path d="M72.8963 103.858C72.8963 104.103 72.7984 104.426 72.8963 104.583 75.5712 108.228 72.7102 111.627 72.3966 115.115 72.1321 117.957 73.9643 120.857 72.1027 123.63 69.4475 124.61 68.4873 122.65 67.5271 120.896 66.7983 119.415 66.1443 117.897 65.5675 116.35 64.7935 115.782 64.235 114.978 65.3422 114.39 68.2815 112.95 68.3991 110.07 69.1927 107.532 69.4671 103.407 69.4671 103.407 72.8963 103.858Z" fill="#432028" transform="matrix(6.12323e-17 1 -1.01862 6.23723e-17 233 168.61)"/><path d="M69.1927 107.591C69.3201 110.344 69.908 113.332 66.5375 114.694 65.5577 115.086 65.0384 115.321 65.5577 116.389 64.3232 116.389 63.0886 119.613 61.8541 116.389 63.8137 114.253 62.7261 111.187 64.5093 108.659 66.077 106.444 66.224 106.787 67.6055 108.335 68.3207 109.129 68.84 108.247 69.1927 107.591Z" fill="#6A3342" transform="matrix(6.12323e-17 1 -1.01862 6.23723e-17 233 168.61)"/><path d="M78.663 106.892C77.0512 106.948 74.8722 109.347 73.9342 106.71 73.8019 106.346 73.9418 105.939 74.27 105.733 75.5413 104.881 76.8152 105.094 74.6369 103.116 74.7825 102.654 75.303 102.064 75.3271 101.735 75.4697 100.989 76.1907 100.499 76.9373 100.642 77.2673 100.705 77.5628 100.886 77.7681 101.152 78.4963 102.364 78.1749 104.023 79.3257 105.097 79.6267 105.363 79.6977 105.805 79.4954 106.151 79.2996 106.477 79.0092 106.735 78.663 106.892Z" fill="#9B4C64" transform="matrix(6.12323e-17 1 -1.01862 6.23723e-17 233 168.61)"/><path d="M58.2877 110.491C58.2877 109.031 58.2387 107.551 58.2093 106.101 60.3256 107.522 60.2473 108.992 58.2877 110.491Z" fill="#743949" transform="matrix(6.12323e-17 1 -1.01862 6.23723e-17 233 168.61)"/><path d="M139.934 143.735C138.121 146.949 136.014 147.351 131.752 145.048 134.633 144.137 137.082 143.108 139.934 143.735Z" fill="#814556" transform="matrix(6.12323e-17 1 -1.01862 6.23723e-17 233 168.61)"/><path d="M335.754 95.7352C337.293 92.1394 339.84 90.17 343.916 90.6403L344.239 90.9147C346.463 92.6489 345.082 94.2851 344.004 95.8136 343.416 96.6562 342.172 96.911 341.741 97.9789L341.741 98.0377C341.154 97.9411 340.567 98.2131 340.261 98.7236 338.458 99.9483 337.822 98.7236 337.322 97.3127 336.729 97.3619 336.155 97.0934 335.813 96.6072 335.626 96.4746 335.538 96.2429 335.588 96.0194 335.627 95.8332 335.686 95.7352 335.754 95.7352Z" fill="#964766" transform="matrix(6.12323e-17 1 -1.01862 6.23723e-17 233 168.61)"/><path d="M337.302 97.3225C338.233 97.9104 338.87 99.1155 340.242 98.7334 340.477 100.134 339.605 101.242 339.33 102.809 338.351 100.85 336.695 100.585 335.108 100.223 334.471 98.2337 337.42 98.9587 337.302 97.3225Z" fill="#773E4E" transform="matrix(6.12323e-17 1 -1.01862 6.23723e-17 233 168.61)"/><path d="M341.741 97.9789C341.8 97.2637 341.653 96.3525 342.427 96.0194 344.984 94.9514 344.915 93.08 344.239 90.8951L349.138 90.5913 349.873 90.7383C346.199 92.1002 345.65 96.9306 341.741 97.9789Z" fill="#773E4E" transform="matrix(6.12323e-17 1 -1.01862 6.23723e-17 233 168.61)"/><path d="M238.187 111.265C238.187 109.109 240.558 110.285 241.254 109.139 245.045 108.159 244.301 111.843 244.977 113.391 245.525 114.635 246.848 116.536 245.026 118.515 244.046 119.613 245.868 119.995 246.936 120.103 246.936 121.69 246.339 122.258 244.83 121.465 244.507 120.969 243.926 120.704 243.34 120.788 239.696 120.426 238.079 118.555 238.882 114.91 239.069 113.577 237.158 112.676 238.187 111.265Z" fill="#381D21" transform="matrix(6.12323e-17 1 -1.01862 6.23723e-17 233 168.61)"/><path d="M218.346 112.676C220.511 112.833 223.872 111.823 223.588 115.253 223.421 117.212 226.194 118.594 223.98 121.131 222.344 123.003 225.224 122.719 226.4 123.013 226.037 125.07 224.44 124.531 223.314 124.218 222.178 123.866 220.994 123.7 219.806 123.728L218.405 122.964C216.661 120.142 217.533 116.752 216.445 113.793 216.847 113.038 217.347 112.421 218.346 112.676Z" fill="#371D21" transform="matrix(6.12323e-17 1 -1.01862 6.23723e-17 233 168.61)"/><path d="M237.511 130.312C236.09 132.673 233.68 132.663 230.809 130.312 232.239 128.48 233.092 125.864 235.806 125.668 236.668 125.609 238.05 124.629 238.745 125.972 239.225 126.902 238.745 127.814 238.089 128.646 237.813 129.169 237.618 129.731 237.511 130.312Z" fill="#673743" transform="matrix(6.12323e-17 1 -1.01862 6.23723e-17 233 168.61)"/><path d="M327.789 111.961 317.991 110.119C319.147 107.865 319.411 104.955 322.89 104.602 321.959 103.025 316.09 105.729 319.95 100.909 318.569 99.7915 317.334 101.349 316.031 100.909 315.691 100.071 316.043 99.1126 316.844 98.6942 318.422 98.6942 320.166 98.2239 321.214 100.017 323.032 100.767 324.693 101.851 326.113 103.211 327.093 103.985 327.975 104.063 328.073 102.613 328.171 101.163 328.327 100.232 329.944 100.183 332.345 101.251 332.531 103.789 333.579 105.729 334.363 107.189 332.658 106.973 332.1 107.522 330.855 108.228 329.503 107.444 328.18 107.865 328.67 108.982 330.238 108.678 330.718 109.746 331.571 114.194 329.102 118.28 324.839 119.191 323.644 119.446 322.439 119.407 321.851 120.739 321.132 121.18 320.385 121.576 319.617 121.925 318.637 122.307 318.373 124.453 317.383 123.64 315.894 122.405 317.951 121.376 318.481 120.357 319.401 118.951 320.419 117.612 321.528 116.35 323.595 113.499 324.418 113.509 327.103 116.977 327.406 115.066 327.602 113.509 327.789 111.961Z" fill="#683543" transform="matrix(6.12323e-17 1 -1.01862 6.23723e-17 233 168.61)"/><path d="M263.857 109.815 264.671 109.717 266.806 109.776C266.451 111.929 265.931 114.051 265.249 116.125 267.688 116.056 270.236 116.536 272.783 116.379 274.743 116.262 276.82 116.213 276.31 113.126 276.007 111.284 277.29 111.216 278.681 111.755 279.857 113.166 279.142 115.36 280.69 116.654 281.993 118.074 279.309 118.721 280.034 120.034 283.541 122.278 280.749 123.64 279.318 125.197L277.878 125.197C275.703 121.925 275.409 121.896 272.754 124.884 271.969 125.951 270.936 126.811 269.746 127.392L268.286 125.893C268.699 125.169 268.865 124.329 268.756 123.502 268.609 122.415 269.648 120.788 267.972 120.475 266.297 120.161 267.081 121.954 266.748 122.787 266.042 124.541 264.043 125.08 263.171 126.657 261.917 125.384 262.397 123.934 262.76 122.503 262.525 121.631 264.514 120.759 262.76 119.897 262.113 119.828 261.586 119.348 261.457 118.711 262.584 115.821 261.712 112.411 263.857 109.815Z" fill="#4C242D" transform="matrix(6.12323e-17 1 -1.01862 6.23723e-17 233 168.61)"/><path d="M280.857 117.153C276.83 116.85 279.299 113.685 278.564 111.931 277.3 110.755 277.81 108.992 277.173 107.561 276.428 105.905 278.437 105.984 279.358 105.435L282.973 105.435C283.898 108.263 284.436 111.203 284.57 114.175 285.099 114.91 286.128 114.939 286.657 115.654 287.601 116.176 288.702 116.332 289.753 116.095 291.781 115.782 292.81 116.977 291.928 118.927 291.429 120.034 291.556 122.033 289.969 122.043 288.381 122.052 289.048 120.083 288.479 119.103 287.911 118.123 288.087 117.251 286.588 118.123 285.089 118.995 283.963 116.409 282.258 117.202 281.867 117.576 281.247 117.562 280.872 117.17 280.872 117.17 280.872 117.17 280.872 117.17Z" fill="#381B20" transform="matrix(6.12323e-17 1 -1.01862 6.23723e-17 233 168.61)"/><path d="M286.657 115.615C285.618 115.547 284.472 115.958 283.659 114.92 283.435 114.48 283.574 113.943 283.982 113.665 286.549 112.411 286.843 109.932 287.402 107.581 289.743 106.474 291.752 108.502 293.996 108.296 293.29 109.638 290.88 108.404 290.606 110.804 295.779 109.825 294.388 113.126 294.162 115.919 292.203 116.174 293.31 112.098 290.723 113.665 289.43 114.449 287.392 113.656 286.657 115.615Z" fill="#7B3D4D" transform="matrix(6.12323e-17 1 -1.01862 6.23723e-17 233 168.61)"/><path d="M280.857 117.153 282.228 117.153C282.63 118.133 284.237 118.77 283.365 120.318 282.199 120.818 281.307 118.104 280.034 119.985 279.495 120.093 278.368 120.965 279.054 119.387 279.548 118.562 280.154 117.81 280.857 117.153Z" fill="#784050" transform="matrix(6.12323e-17 1 -1.01862 6.23723e-17 233 168.61)"/><path d="M302.079 115.615 304.185 115.713C303.539 116.811 302.882 117.908 302.118 119.182 300.541 117.888 302.461 116.732 302.079 115.615Z" fill="#854455" transform="matrix(6.12323e-17 1 -1.01862 6.23723e-17 233 168.61)"/><path d="M269.746 127.373C270.089 125.619 271.882 124.953 272.685 123.453 273.344 121.936 274.996 121.11 276.604 121.494 278.701 122.043 277.535 123.865 277.888 125.109 276.751 127.216 275.674 129.548 272.656 127.686 271.656 127.157 270.53 128.754 269.746 127.373Z" fill="#61323E" transform="matrix(6.12323e-17 1 -1.01862 6.23723e-17 233 168.61)"/><path d="M155.159 141.354C157.599 140.747 158.579 139.561 157.354 136.975 156.129 134.388 155.992 132.076 159.911 131.478 161.989 131.164 161.616 130.106 160.156 128.901 159.128 128.049 157.06 127.167 158.843 125.168 159.096 124.896 159.506 124.839 159.823 125.031 162.665 130.165 167.27 129.166 171.796 128.441 172.121 128.392 172.452 128.392 172.776 128.441L173.256 128.627C175.216 130.116 177.459 130.322 179.262 128.744 180.781 127.422 182.035 127.686 183.583 128.235 186.287 129.215 188.952 130.302 191.902 130.263 191.823 133.291 190.726 134.3 187.982 132.34 184.436 129.832 182.731 133.731 180.144 134.662 180.262 131.948 179.164 131.605 177.205 133.193 176.501 134.186 175.332 134.743 174.118 134.662 171.747 134.368 169.719 135.338 167.642 136.152L166.221 136.152C163.929 133.212 162.243 137.602 160.107 136.661 159.882 137.415 160.392 137.994 160.607 138.621 160.723 139.309 161.374 139.774 162.063 139.658 162.138 139.645 162.211 139.626 162.283 139.6 163.194 139.365 163.546 138.033 164.742 138.385 164.987 139.13 165.222 139.865 165.457 140.61 163.644 141.491 163.909 143.784 162.518 144.94 160.891 144.656 162.518 141.413 159.696 142.001 158.236 142.256 156.521 142.579 155.159 141.354Z" fill="#532A34" transform="matrix(6.12323e-17 1 -1.01862 6.23723e-17 233 168.61)"/><path d="M167.632 136.191C168.455 134.006 170.513 133.633 172.276 133.839 173.93 133.876 175.58 133.672 177.175 133.232 178.03 135.532 177.109 138.115 174.99 139.355 172.093 140.247 168.977 138.907 167.632 136.191Z" fill="#6B3946" transform="matrix(6.12323e-17 1 -1.01862 6.23723e-17 233 168.61)"/><path d="M164.732 138.385C163.84 139.796 162.919 141.491 160.93 140.747 158.716 139.924 159.862 137.033 158.305 135.662 158.305 135.662 158.638 135.025 158.902 134.927 160.196 134.447 160.264 136.063 161.273 136.348 162.302 135.701 161.45 133.33 163.233 133.555 164.725 133.622 165.972 134.711 166.241 136.181Z" fill="#6B3946" transform="matrix(6.12323e-17 1 -1.01862 6.23723e-17 233 168.61)"/><path d="M180.183 141.952C178.704 142.177 177.244 144.999 175.725 142.069 177.234 142.932 178.616 139.13 180.183 141.952Z" fill="#61343D" transform="matrix(6.12323e-17 1 -1.01862 6.23723e-17 233 168.61)"/><path d="M263.877 122.199C263.206 123.58 262.961 125.128 263.171 126.648L263.171 126.648C260.791 127.627 260.898 125.511 260.506 124.325 260.115 123.14 260.095 121.798 258.253 122.464 254.957 123.403 252.048 125.374 249.954 128.088L248.484 128.088C248.822 127.218 249.053 126.31 249.17 125.384 249.17 124.012 249.709 121.886 246.868 123.218 245.349 123.934 245.388 122.19 244.83 121.435 245.768 121.549 246.655 120.976 246.936 120.073 249.249 120.073 251.561 120.073 253.873 119.985 256.695 119.907 258.586 118.897 258.028 115.596 259.84 115.831 260.35 117.692 261.692 118.535 261.989 119.056 262.565 119.352 263.162 119.289 263.857 120.152 262.682 121.494 263.877 122.199Z" fill="#4C2830" transform="matrix(6.12323e-17 1 -1.01862 6.23723e-17 233 168.61)"/><path d="M249.954 128.088C250.787 123.61 254.706 122.924 258.028 121.494 259.36 123.062 260.095 124.708 258.782 126.657 256.705 131.037 253.089 131.615 249.954 128.088Z" fill="#5F303C" transform="matrix(6.12323e-17 1 -1.01862 6.23723e-17 233 168.61)"/><path d="M258.782 126.657C258.527 124.933 258.282 123.218 258.028 121.494 259.987 120.935 262.064 119.985 261.202 123.747 260.866 125.002 261.611 126.291 262.865 126.627 262.963 126.653 263.062 126.673 263.162 126.687L261.721 128.176C261.239 127.025 260 126.385 258.782 126.657Z" fill="#4C242D" transform="matrix(6.12323e-17 1 -1.01862 6.23723e-17 233 168.61)"/><path d="M197.771 138.376C197.692 136.063 201.69 134.388 199.309 131.948 196.154 128.666 197.183 125.413 198.241 121.856 198.887 119.701 197.584 117.702 197.065 115.654 200.387 114.567 202.189 117.134 204.394 118.721 204.838 119.03 204.947 119.641 204.639 120.085 204.591 120.154 204.535 120.215 204.472 120.269 203.722 121.104 203.365 122.221 203.492 123.336 203.786 126.501 202.307 127.186 199.181 126.363 202.787 128.323 202.562 131.106 201.778 134.055 201.634 134.517 201.571 135.001 201.592 135.485 201.993 140.159 202.003 140.11 197.771 138.376Z" fill="#3F2127" transform="matrix(6.12323e-17 1 -1.01862 6.23723e-17 233 168.61)"/><path d="M216.837 113.401C218.679 116.34 218.268 119.711 218.405 122.964 216.279 122.964 214.731 124.512 212.859 125.227 212.004 125.662 211.055 125.88 210.096 125.864 208.656 125.717 206.275 126.618 206.255 124.414 206.255 121.886 208.764 123.855 209.89 123.258 211.096 120.749 203.248 121.533 208.058 117.839 210.606 117.261 213.359 120.534 215.897 117.124 215.603 116.272 213.271 116.664 213.937 114.89L213.937 114.89C214.691 113.969 215.152 112.46 216.837 113.401Z" fill="#743546" transform="matrix(6.12323e-17 1 -1.01862 6.23723e-17 233 168.61)"/><path d="M330.013 100.213C329.827 100.948 328.18 101.193 329.121 102.172 330.512 103.76 328.788 103.965 328.141 104.563 326.985 105.651 326.182 105.014 325.574 103.867 325.633 100.311 327.112 98.655 330.473 98.3905L330.816 98.7824Z" fill="#773E4E" transform="matrix(6.12323e-17 1 -1.01862 6.23723e-17 233 168.61)"/><path d="M330.757 109.736C328.984 109.354 325.79 109.472 326.191 107.649 326.593 105.827 329.611 106.846 331.512 107.228 331.741 107.296 331.961 107.391 332.168 107.512 332.245 108.485 331.669 109.391 330.757 109.736Z" fill="#7E4256" transform="matrix(6.12323e-17 1 -1.01862 6.23723e-17 233 168.61)"/><path d="M335.754 95.7352 335.754 96.617C333.55 96.1565 332.981 99.331 330.767 98.8314L330.601 98.6158C331.198 96.088 332.697 95.0298 335.284 95.745 335.422 95.6407 335.612 95.6368 335.754 95.7352Z" fill="#773E4E" transform="matrix(6.12323e-17 1 -1.01862 6.23723e-17 233 168.61)"/><path d="M191.911 130.312C190.873 131.429 190.089 132.046 188.316 130.929 186.356 129.675 183.818 129.264 181.535 128.48 181.081 128.327 180.58 128.494 180.311 128.891 177.832 131.449 175.157 131.449 172.815 128.891 174.51 126.863 174.863 124.414 174.843 121.925 174.843 120.23 174.52 118.545 175.764 117.114L178.704 117.006C182.623 115.968 182.985 116.193 183.671 119.946 183.809 120.661 184.014 121.357 184.112 122.082 184.739 126.902 184.739 126.893 189.668 127.118 190.981 127.177 192.372 126.981 193.42 128.098 193.851 128.166 194.537 128.215 194.4 128.725 194.01 129.744 193 130.388 191.911 130.312Z" fill="#3F2127" transform="matrix(6.12323e-17 1 -1.01862 6.23723e-17 233 168.61)"/><path d="M193.371 128.098C190.256 128 187.101 128.45 184.034 127.451 183.172 127.167 182.221 127.079 182.799 125.874 183.779 123.855 182.623 121.954 182.731 119.995 182.936 116.379 180.605 117.183 178.655 117.055 181.31 114.42 183.103 116.174 184.798 118.28 185.582 119.26 186.366 120.152 187.737 119.985 189.511 119.779 188.433 118.251 188.933 117.281 190.716 118.055 190.755 121.651 193.42 120.436 194.645 119.877 192.911 118.27 193.342 117.114L194.733 116.977C195.576 118.447 197.878 119.809 194.919 121.513 194.302 121.866 194.273 122.768 194.919 123.473 197.32 125.962 194.978 126.893 193.371 128.098Z" fill="#6F3241" transform="matrix(6.12323e-17 1 -1.01862 6.23723e-17 233 168.61)"/><path d="M52.3599 86.9759 45.7562 83.3997C46.2657 80.3427 49.3814 81.6263 50.9491 80.3427 51.4683 79.9214 52.017 81.3225 52.4971 81.9888 49.7537 83.527 52.9086 85.3201 52.3599 86.9759Z" fill="#803D50" transform="matrix(6.12323e-17 1 -1.01862 6.23723e-17 233 168.61)"/><path d="M335.323 95.745C332.932 95.3531 332.149 97.5772 330.64 98.6158 328.112 99.1841 326.466 100.458 326.721 103.348 326.721 103.505 325.976 103.73 325.574 103.916L321.214 99.9973C324.154 97.8908 326.632 94.9808 330.767 94.922 332.403 94.9416 333.912 94.824 335.323 95.745Z" fill="#9F4D6F" transform="matrix(6.12323e-17 1 -1.01862 6.23723e-17 233 168.61)"/><path d="M316.854 98.7236C316.58 99.4584 316.305 100.203 316.041 100.938L313.876 101.732C313.876 100.291 315.835 99.6152 315.306 97.9789 316.011 97.8222 316.619 97.881 316.854 98.7236Z" fill="#8C3E57" transform="matrix(6.12323e-17 1 -1.01862 6.23723e-17 233 168.61)"/><path d="M279.358 105.435C278.309 106.297 276.653 106.807 278.25 108.757 278.819 109.433 278.486 110.853 278.564 111.931 277.672 112.039 276.271 111.735 277.153 113.42 278.623 116.223 276.83 116.634 274.694 117.124 271.803 117.771 268.972 116.948 266.111 117.026 264.72 117.026 264.151 113.567 265.268 111.774 265.748 111.096 266.261 110.443 266.806 109.815 269.383 108.365 271.294 111.343 274.263 110.599 278.094 109.619 276.8 108.57 275.536 106.738 276.136 105.71 277.297 105.145 278.476 105.308Z" fill="#682F3E" transform="matrix(6.12323e-17 1 -1.01862 6.23723e-17 233 168.61)"/><path d="M287.402 107.571C288.695 109.051 286.892 110.775 287.823 112.382 288.205 113.038 287.382 113.293 286.706 113.068 284.962 112.49 284.443 113.91 283.659 114.91 283.884 111.706 282.414 108.619 282.973 105.386 284.216 106.513 285.751 107.269 287.402 107.571Z" fill="#5D2A34" transform="matrix(6.12323e-17 1 -1.01862 6.23723e-17 233 168.61)"/><path d="M296.239 103.907C293.77 103.074 292.016 106.376 289.126 104.886 290.927 103.813 292.781 102.832 294.681 101.947 296.014 101.153 296.876 102.29 296.23 103.907Z" fill="#AB516B" transform="matrix(6.12323e-17 1 -1.01862 6.23723e-17 233 168.61)"/><path d="M175.764 117.153C175.598 120.602 175.47 124.012 175.265 127.5 175.167 129.097 173.775 128.686 172.815 128.93L172.815 128.686C172.512 128.205 171.894 127.5 171.61 127.706 171.032 128.176 172.11 128.382 172.12 128.872 165.046 130.675 161.871 131.076 159.637 125.168 160.039 124.286 160.421 123.473 159.725 122.493 158.854 121.457 158.681 120.002 159.284 118.79L159.666 118.476C160.815 119.565 162.057 120.548 163.38 121.416 165.859 122.728 171.924 120.514 174.265 117.496 174.804 116.762 175.02 116.272 175.764 117.153Z" fill="#6F3341" transform="matrix(6.12323e-17 1 -1.01862 6.23723e-17 233 168.61)"/><path d="M158.118 118.555 152.318 118.555C151.217 119.791 149.322 119.9 148.085 118.798 147.977 118.701 147.875 118.598 147.782 118.486L149.486 116.526C152.975 116.634 156.57 116.183 159.647 118.486L159.52 118.613C159.126 118.985 158.505 118.966 158.134 118.572Z" fill="#6F3341" transform="matrix(6.12323e-17 1 -1.01862 6.23723e-17 233 168.61)"/><path d="M216.837 113.401C215.563 113.273 214.976 114.528 213.898 114.861 213.359 111.098 216.965 112.49 218.483 111.304 219.071 110.853 220.325 111.304 221.276 111.304 220.619 112.46 218.973 111.559 218.336 112.725Z" fill="#8F455F" transform="matrix(6.12323e-17 1 -1.01862 6.23723e-17 233 168.61)"/><path d="M232.504 119.456C232.651 118.476 233.17 117.927 233.993 118.074 234.64 118.192 235.551 118.437 235.581 119.28 235.61 120.122 234.66 120.367 234.013 120.514 233.19 120.7 232.739 120.083 232.504 119.456Z" fill="#8B445B" transform="matrix(6.12323e-17 1 -1.01862 6.23723e-17 233 168.61)"/><path d="M229.183 116.487C230.162 116.389 230.691 116.664 230.535 117.408 230.378 118.153 230.192 118.888 229.33 118.995 228.743 119.055 228.218 118.628 228.159 118.041 228.155 118 228.153 117.959 228.154 117.918 228.134 117.263 228.556 116.677 229.183 116.487Z" fill="#8F455F" transform="matrix(6.12323e-17 1 -1.01862 6.23723e-17 233 168.61)"/><path d="M221.334 111.255C221.227 110.706 220.453 109.825 221.942 110.099 222.922 110.285 223.999 110.442 225.028 110.618 224.215 113.215 222.559 111 221.334 111.255Z" fill="#8F455F" transform="matrix(6.12323e-17 1 -1.01862 6.23723e-17 233 168.61)"/><path d="M227.497 121.122C228.653 119.779 229.545 119.818 230.358 120.886 230.501 121.167 230.501 121.498 230.358 121.778 229.359 122.17 228.585 121.494 227.497 121.122Z" fill="#8F455F" transform="matrix(6.12323e-17 1 -1.01862 6.23723e-17 233 168.61)"/><path d="M261.692 118.555C259.262 119.093 259.017 116.899 258.028 115.615 258.233 113.499 260.124 110.942 256.519 109.805 255.078 108.512 255.118 108.443 257.979 107.493L257.979 107.493 260.918 106.797C263.495 106.248 261.966 109.658 263.857 109.805 262.907 112.676 264.024 116.036 261.692 118.555Z" fill="#331A1F" transform="matrix(6.12323e-17 1 -1.01862 6.23723e-17 233 168.61)"/><path d="M257.979 107.502C258.282 108.766 254.902 107.718 256.519 109.815 256.519 110.951 256.519 112.176 255.216 112.509 253.912 112.842 252.355 113.097 252.502 114.782 252.648 116.468 254.784 114.968 255.441 116.232 251.669 118.104 250.13 117.996 249.18 115.88 248.573 114.518 250.806 113.273 249.268 111.961 250.983 111.872 250.562 110.981 250.062 110.001 251.434 109.736 252.942 109.893 253.903 108.472 254.902 106.797 256.43 107.003 257.979 107.502Z" fill="#843B51" transform="matrix(6.12323e-17 1 -1.01862 6.23723e-17 233 168.61)"/><path d="M82.4297 117.055C83.2803 117.158 84.0762 117.529 84.7028 118.114 85.2123 118.486 85.8785 118.721 86.3586 118.172 86.8387 117.624 86.3586 117.006 85.9079 116.673 83.8994 115.351 86.3195 112.882 84.2717 111.667 85.6924 110.785 86.7478 110.868 88.328 110.618L89.0727 110.618C89.7095 111.167 91.2282 110.432 91.2086 111.451 91.2086 113.107 89.445 113.077 88.2692 113.499 87.0837 113.597 85.7218 114.185 86.584 115.38 88.7983 118.447 87.0543 120.632 85.4572 122.973 85.3397 122.18 85.5748 120.955 84.4774 120.926 81.3421 120.828 82.5179 118.643 82.4395 117.065Z" fill="#5D2C38" transform="matrix(6.12323e-17 1 -1.01862 6.23723e-17 233 168.61)"/><path d="M88.2496 113.509C88.524 113.136 88.7297 112.529 89.0727 112.431 91.4241 111.784 89.9937 111.216 89.0727 110.618 91.4633 110.618 93.9716 110.55 93.4229 114.204 91.7083 113.94 89.8369 114.822 88.2496 113.509Z" fill="#6F3243" transform="matrix(6.12323e-17 1 -1.01862 6.23723e-17 233 168.61)"/><path d="M147.782 118.555C149.249 119.052 150.836 119.076 152.318 118.623 151.625 119.995 151.562 121.6 152.142 123.022 153.366 125.609 151.936 127.088 150.76 128.842 148.507 131.713 144.156 132.663 140.414 130.998 139.434 130.567 138.542 130.018 137.553 129.587 134.613 127.833 137.004 126.52 138.209 124.923 136.318 124.335 134.946 123.571 135.769 121.308 135.887 120.965 136.054 118.515 133.878 119.28 133.927 117.82 135.211 117.624 136.142 117.065 137.474 120.387 140.874 119.818 143.745 120.828 142.824 121.807 141.246 121.729 141.011 123.659 143.735 124.002 145.959 122.866 148.154 121.553 150.349 120.24 147.292 119.622 147.782 118.555Z" fill="#682F3D" transform="matrix(6.12323e-17 1 -1.01862 6.23723e-17 233 168.61)"/><path d="M137.553 129.577C140.757 129.695 143.725 131.733 147.194 130.439 148.428 130.01 149.622 129.472 150.76 128.833 150.525 131.096 153.582 131.213 153.7 133.281 153.05 134.016 152.09 134.397 151.113 134.31 148.223 133.663 147.194 135.426 146.42 137.621 145.332 136.749 144.529 135.133 142.697 136.152 140.159 133.526 138.15 135.466 136.083 136.926 133.869 133.398 133.947 133.085 137.68 131.752 140.169 130.861 137.582 130.312 137.553 129.577Z" fill="#4B272F" transform="matrix(6.12323e-17 1 -1.01862 6.23723e-17 233 168.61)"/><path d="M146.39 137.621C146.39 136.543 146.322 135.466 146.39 134.408 146.459 133.349 147.253 132.154 148.174 132.918 150.055 134.466 151.867 132.771 153.631 133.281 153.631 134.878 155.434 135.505 155.649 136.749 155.179 138.131 152.2 134.721 153.259 138.356 153.7 139.855 152.769 139.493 151.828 139.336 149.901 139.225 148.032 138.635 146.39 137.621Z" fill="#663540" transform="matrix(6.12323e-17 1 -1.01862 6.23723e-17 233 168.61)"/><path d="M136.054 136.926C139.238 132.34 139.973 132.252 142.667 136.152 142.341 136.922 141.944 137.659 141.482 138.356 140.423 139.698 139.189 141.374 137.396 140.992 135.27 140.541 136.348 138.356 136.054 136.926Z" fill="#683440" transform="matrix(6.12323e-17 1 -1.01862 6.23723e-17 233 168.61)"/><path d="M157.574 117.323 159.292 118.204C159.19 119.499 159.488 120.795 160.145 121.917 160.948 123.161 161.164 124.505 159.792 125.161L158.615 125.565C158.733 124.997 158.861 123.642 158.979 123.083 155.011 122.24 157.123 119.155 157.574 117.323Z" fill="#502630" transform="matrix(6.12323e-17 1 -1.01862 6.23723e-17 233 168.61)"/><path d="M87.603 128.842C85.2703 128.571 83.5992 126.459 83.8707 124.128 83.8866 123.989 83.9093 123.853 83.9386 123.718 84.7616 125.707 87.5344 126.314 87.603 128.842Z" fill="#48292F" transform="matrix(6.12323e-17 1 -1.01862 6.23723e-17 233 168.61)"/><path d="M81.3225 126.559C82.5179 128.176 84.5362 129.195 85.1143 132.134 82.705 131.388 81.1318 129.075 81.3225 126.559Z" fill="#665150" transform="matrix(6.12323e-17 1 -1.01862 6.23723e-17 233 168.61)"/><path d="M82.4199 117.075C81.6851 117.418 81.5087 118.839 80.4603 118.408 78.8535 117.731 80.5779 117.183 80.6661 116.556 80.8228 115.39 79.6863 114.959 79.2062 114.175 78.7983 113.656 78.8883 112.904 79.4074 112.496 79.4926 112.43 79.5863 112.374 79.6863 112.333 80.3623 111.931 81.4793 111.872 81.4793 112.676 81.4793 114.253 83.3801 115.351 82.4591 117.055Z" fill="#90445B" transform="matrix(6.12323e-17 1 -1.01862 6.23723e-17 233 168.61)"/><path d="M73.6508 118.995C75.2184 119.368 75.9043 120.387 77.0604 121.406 75.0127 121.562 73.739 121.308 73.6508 118.995Z" fill="#98556D" transform="matrix(6.12323e-17 1 -1.01862 6.23723e-17 233 168.61)"/><path d="M263.877 122.199C261.408 121.788 262.75 120.426 263.162 119.26 263.701 119.113 264.377 118.701 264.769 118.878 265.464 119.211 264.994 119.799 264.71 120.308 264.426 120.818 264.151 121.582 263.877 122.199Z" fill="#6E404D" transform="matrix(6.12323e-17 1 -1.01862 6.23723e-17 233 168.61)"/><path d="M172.1 128.891C170.944 128.784 169.533 128.95 169.415 127.294 169.369 126.696 169.818 126.172 170.417 126.127 170.569 126.116 170.721 126.136 170.865 126.187 171.904 126.608 173.805 126.628 172.825 128.686 172.57 128.764 172.335 128.833 172.1 128.891Z" fill="#8F4B5F" transform="matrix(6.12323e-17 1 -1.01862 6.23723e-17 233 168.61)"/></g></svg>