<?xml version="1.0" encoding="utf-8"?>
<!-- Generator: Adobe Illustrator 25.2.1, SVG Export Plug-In . SVG Version: 6.00 Build 0)  -->
<svg version="1.1" id="Layer_1" xmlns="http://www.w3.org/2000/svg" xmlns:xlink="http://www.w3.org/1999/xlink" x="0px" y="0px"
	 viewBox="0 0 382.5 152.3" style="enable-background:new 0 0 382.5 152.3;" xml:space="preserve">
<style type="text/css">
	.st0{fill:#794050;}
	.st1{fill:#703543;}
	.st2{fill:#713C46;}
	.st3{fill:#773E4E;}
	.st4{fill:#683743;}
	.st5{fill:#5F2D38;}
	.st6{fill:#663C46;}
	.st7{fill:#7E535D;}
	.st8{fill:#65333E;}
	.st9{fill:#67323D;}
	.st10{fill:#665150;}
	.st11{fill:#814756;}
	.st12{fill:#5D4244;}
	.st13{fill:#854459;}
	.st14{fill:#814357;}
	.st15{fill:#694A4E;}
	.st16{fill:#834453;}
	.st17{fill:#6D5953;}
	.st18{fill:#7C3B4E;}
	.st19{fill:#925565;}
	.st20{fill:#85525C;}
	.st21{fill:#452129;}
	.st22{fill:#58303C;}
	.st23{fill:#944C62;}
	.st24{fill:#703644;}
	.st25{fill:#381E23;}
	.st26{fill:#552A32;}
	.st27{fill:#48292F;}
	.st28{fill:#743949;}
	.st29{fill:#803A4F;}
	.st30{fill:#644848;}
	.st31{fill:#8C5061;}
	.st32{fill:#45232A;}
	.st33{fill:#803D50;}
	.st34{fill:#623340;}
	.st35{fill:#602B3A;}
	.st36{fill:#4F2F32;}
	.st37{fill:#4C2830;}
	.st38{fill:#3B2027;}
	.st39{fill:#381E25;}
	.st40{fill:#5E303B;}
	.st41{fill:#3F242A;}
	.st42{fill:#381E24;}
	.st43{fill:#381D23;}
	.st44{fill:#3E2429;}
	.st45{fill:#753D4D;}
	.st46{fill:#88445A;}
	.st47{fill:#5F303C;}
	.st48{fill:#5C2F39;}
	.st49{fill:#6B3845;}
	.st50{fill:#48232D;}
	.st51{fill:#61343D;}
	.st52{fill:#3F2127;}
	.st53{fill:#8D4259;}
	.st54{fill:#A6577A;}
	.st55{fill:#A95C7F;}
	.st56{fill:#61313E;}
	.st57{fill:#693646;}
	.st58{fill:#7A646B;}
	.st59{fill:#924A6A;}
	.st60{fill:#9E506C;}
	.st61{fill:#713344;}
	.st62{fill:#8A3D57;}
	.st63{fill:#93445F;}
	.st64{fill:#6D3343;}
	.st65{fill:#6F3544;}
	.st66{fill:#8F455F;}
	.st67{fill:#8C3F59;}
	.st68{fill:#944862;}
	.st69{fill:#733245;}
	.st70{fill:#AC577D;}
	.st71{fill:#8B415A;}
	.st72{fill:#B25F86;}
	.st73{fill:#843B51;}
	.st74{fill:#9B4E67;}
	.st75{fill:#B05B88;}
	.st76{fill:#B55881;}
	.st77{fill:#A25479;}
	.st78{fill:#682F3E;}
	.st79{fill:#A14C66;}
	.st80{fill:#361A20;}
	.st81{fill:#3F2026;}
	.st82{fill:#A35372;}
	.st83{fill:#8C3E57;}
	.st84{fill:#60333B;}
	.st85{fill:#4F2B36;}
	.st86{fill:#321B20;}
	.st87{fill:#2F191D;}
	.st88{fill:#2B171A;}
	.st89{fill:#5D2C38;}
	.st90{fill:#60323C;}
	.st91{fill:#6E3B47;}
	.st92{fill:#8F4A62;}
	.st93{fill:#5C2834;}
	.st94{fill:#6F3243;}
	.st95{fill:#432028;}
	.st96{fill:#6A3342;}
	.st97{fill:#9B4C64;}
	.st98{fill:#814556;}
	.st99{fill:#964766;}
	.st100{fill:#381D21;}
	.st101{fill:#371D21;}
	.st102{fill:#673743;}
	.st103{fill:#683543;}
	.st104{fill:#4C242D;}
	.st105{fill:#381B20;}
	.st106{fill:#7B3D4D;}
	.st107{fill:#784050;}
	.st108{fill:#854455;}
	.st109{fill:#61323E;}
	.st110{fill:#532A34;}
	.st111{fill:#6B3946;}
	.st112{fill:#743546;}
	.st113{fill:#7E4256;}
	.st114{fill:#6F3241;}
	.st115{fill:#9F4D6F;}
	.st116{fill:#5D2A34;}
	.st117{fill:#AB516B;}
	.st118{fill:#6F3341;}
	.st119{fill:#8B445B;}
	.st120{fill:#331A1F;}
	.st121{fill:#682F3D;}
	.st122{fill:#4B272F;}
	.st123{fill:#663540;}
	.st124{fill:#683440;}
	.st125{fill:#502630;}
	.st126{fill:#90445B;}
	.st127{fill:#98556D;}
	.st128{fill:#6E404D;}
	.st129{fill:#8F4B5F;}
</style>
<path class="st0" d="M156.2,275.9l-0.9-3.1c-1.7-2.4-3.7-4.4-5.9-5.8c-2.3-1-3.6-4.1-3-7.1c0.1-0.6,0.3-1.2,0.6-1.7
	c-1.7-8.5,6-7,7.4-12.2c9.9,8.4,10.5,12.8,3.5,25.2C157.2,272.7,156.6,274.2,156.2,275.9z"/>
<path class="st1" d="M126,308.5c-0.6,0.7-1.4,1-2.3,1c-4.7-0.2-9.2-1.6-13.7-2.9c-0.9-2,0.3-4.6-2.1-6.1c-0.3-0.2-0.5-0.5-0.6-0.8
	c0.1-1.9,1.4-2.8,2.9-2.4c1.9,0.7,3.2-0.4,4.9-0.8c-1.1-0.5-2.6-0.3-2.8-1.7c-0.2-1.4,1-1.5,1.9-1.9c2.2,0.5,1.3-2.5,2.9-2.7
	c2.6,1,5.5,1.3,6.5,4.7c0.3,1,1.3,0.3,2,0.5c1.3,0.7,1.3,1.6,0.3,3.2c0.1-0.5,0.2-0.5,0.6-0.6c1.5-0.4,3.6-1.8,4.4-0.2
	c1.1,2.1-1.5,2.7-2.8,3.7c-1.6,1.2-3.9,1.9-1.7,4.5C126.8,306.9,126.7,307.9,126,308.5z"/>
<path class="st2" d="M82.5-28c-1-1.6,3.5-6.7,5.1-6.9c1.6-0.3,7,1.2,5.3,2.9C89-28.2,88-29,86-28.4c-3.6,1-5.7-0.5-8.5,3.4
	c-0.9,0.7-1.9,1.3-3,1.6c-3.5,1.1-7,0.6-9.1-1.3c-0.2-1.2,0.3-2.6,1.4-3.6c2.3-2.7,4.8-5.1,3.3-8.3c-0.6-1.3,1.4-2.6,3.1-3.4
	c1.4-0.6,3-0.8,4.4-0.5c4.1,3.9,11.6,4.2,15.3,8.5"/>
<path class="st3" d="M95.5,299.3c-1.3-1.2-2.9-2.1-4.6-2.6c-2.9-1.3-5.6-3.2-7.8-5.5c0.1-2.2-1.4-2-2.9-2c-2.7-1.4-5.1-2.9-4.9-6.5
	c-0.2-1.1,2.2,0.8,1.4-1.3c-0.6-1.5,0.8-2,1.9-1.9c2,0.2,3-0.6,3.6-2.4c0.3-0.8,0.6-1.8,1.7-1.7c1.1,0,1.4,1,1.6,1.8
	c0.5,1.4,0.4,3.1,2.8,1.5c1.3-0.9,2,0.9,2.6,2c1,4.5,1,4.5-5.1,5.8c0.7,1.2,1.6,2.3,1.5,3.6c3.7,4.2,6.4,5,11.4,3.2
	c1.5,0.2,3.1,0.5,3.4,2.1c0.3,1.4-1.4,1.8-2.2,2.6c-0.3,0.2-0.6,0.4-0.9,0.6C97.9,299.1,96.7,299.4,95.5,299.3z"/>
<path class="st4" d="M149.9,254.2c1.8-1.7,4.8,4.4,7.1,4.2c-1.4,1.5-3.3-1-4.9-0.5c-1.9,3.1-1.6,4,2,4.8c1.2,0.3,2.1,0.6,1.8,2.1
	l-0.7,0.6c-0.6,2-2.6,2.6-3.8,3.9c-1.1,0.5-1.8-0.4-2.7-0.7c-1.4-0.5-2.7-0.5-3.5,1c-0.4,0.7-0.1,1.9-1.4,1.7
	c-1.1-0.2-1.6-1.2-1.9-2.1c-0.6-1.1-0.3-2.5,0.6-3.4c0.4-0.4,0.2-1-0.5-1.3c-0.5-3.9,2.7-6,4.5-8.6c1.2-1.8,2.3,0.2,3.2,1.5
	C148.9,256.4,149,255,149.9,254.2z"/>
<path class="st5" d="M126,308.5c0.2-2.4-0.9-3.9-4.1-4.8c3.4-1.4,6.6-3.3,9.4-5.7l-5.8,0.7c0.1-1.1,1.3-2.2-0.3-3
	c-1.6-2.7,0.1-5.6-0.5-8.3c0-0.4,0.2-0.8,0.5-0.9c2.3-1.2,4,0.8,5.9,1.3c0.9,0.3,1.4,1.3,1.1,2.2c-0.1,0.2-0.2,0.4-0.3,0.6
	c-2.8,3.6-0.2,5.2,2.4,6.8c1.8,1,3.1,2.3,2.2,4.6c-0.4,1.1-0.5,2.2-1.8,2.6c-0.7,0.3-1.5,0.6-1.9-0.3c-0.4-1.1-0.4-2.6-2.3-2
	c-1.4,0.4-2.4,1.2-2.2,2.9c0,0.4-0.1,0.7-0.3,1C127.7,307.3,127.6,308.6,126,308.5z"/>
<path class="st6" d="M36.7,180.9c-1.8-2.6-1.4-5.5-1-8.4c0.1-3.2,0.3-6.3,2.6-8.8c0.7-0.8,1.8-1.3,2.9-1.2c2.3,0.4,4.7,0.3,6.5,2.3
	c0.9,1,2.4,1.8,1.7,3.4c-0.6,1.5-2.2,2.2-3.7,1.8c-1.6-0.3-3-1.7-5.4-1.1c2.3,2.2,4.2,4.3,0.9,6.7c-1.8,0.9-1.5,2.6-1.5,4.2
	C39.5,182.3,38.6,183.1,36.7,180.9z"/>
<path class="st7" d="M55.4,253.4c-1.3-1.4-1.5-3.2-1.7-4.8c-0.5-4.2-1.4-8.2-4.1-11.7c-1.8-2.2-1.3-5.2-1.5-7.9
	c-0.2-3.3-0.5-6.5-3.2-9.2c-2.1-2.1-1.9-5.2-1.1-8.1c2.3,1.5,0.8,4.6,2.5,6.3c1.3,1.9,2.4-1.4,3.6-0.2c0.9,1,1.3,2.3,1,3.6
	c-2.7,3.8-0.5,7.9-0.7,12c-0.1,0.4,0.7,0,0.2,0c-0.1,0-0.1-0.1-0.1-0.4c0.2-1.2,0.3-2.7,1.8-2.9s1.6,1.3,1.9,2.3
	c0.2,2.1,1.3,4.1,1.2,6.3c-1.6,4.1-0.2,8.1,0.6,12.2c1.7-1.9,2.8-0.8,3.7,0.9c0.2,0.3,0.3,0.7,0.4,1.1c0.3,0.9,0.2,1.9-0.2,2.8
	C57.7,256.3,57,254,55.4,253.4z"/>
<path class="st8" d="M152,278.4c0.6,4.1,0,7.6-4.2,9.6c-2.6,1.3-1.6,4.4-3,6.4c-0.2-0.1-0.3-0.2-0.5-0.2c-1-1.1-1.5-2.6-2.7-3.6
	c-2.5-2.1-2-4.7-1-7.1c1.6-4,3.2-4.5,6.6-1.9c2.1,1.6,2.5,0.1,3.1-1.4C150.7,279.4,150.7,278.2,152,278.4z"/>
<path class="st9" d="M152,278.4c-0.9,0.6-0.6,1.6-0.7,2.5c-3-0.3-4.7-2.4-5.8-4.7c-1.1-2.5,0.2-4.8,2.1-6.6c0.9-1,2.4-1.1,3.4-0.3
	c1.8,1.2,3.8,1.7,5.7,2.5c0.1,0.3,0.2,0.7,0.1,1C157.4,276.6,153.2,276.2,152,278.4z"/>
<path class="st10" d="M15.1,73.2c0.2,0,0.5-0.1,0.7-0.2c1.9,4,3.3,8.2,5.2,12.3c0.5,1.3,0.7,2.7,0.7,4.2c0,1.6-0.8,2.9-1.4,4.3
	c-1.3,2.5-0.9,5.5,0.8,7.7c0.6,0.7,1.3,1.3,1.8,2c0.9,1.5,0.7,3.3,1.5,4.9c0.4,1.1,0.5,2.2,0.4,3.4c-0.2,1.1-0.2,2.2-0.3,3.3
	c0,0.3-0.1,0.7-0.2,1c-1.2,2.2-0.9,4.8,0.8,6.7c0.3,0.5,0.4,1.1,0.4,1.6c0,0.6-0.2,1.2-0.7,1.5c-3.3-2.8-4.1-6.5-3-10.5
	c1.2-4,0.4-8.3-2.1-11.6c-2.7-3.4-3.2-8.1-1.5-12.1c1.4-3.1,1-6.8-0.9-9.6C15.7,79.4,14.9,76.3,15.1,73.2z"/>
<path class="st5" d="M144.8,294.4c0.1,1-0.5,1.9-1.3,2.4c-3.2,0.1-6.3,2.5-9.6,0.8c-2.8-2.4-2.7-4.2,0.2-7.2
	c2.5-2.6,3.8-2.6,6.3,0.3c1.2,1.4,2.6,2.7,4.1,3.7L144.8,294.4z"/>
<path class="st6" d="M40.4,199.4c-1.4-2.6-0.8-5.3-0.3-8c0.6-1.6,0-3.1-0.2-4.7c-0.4-3.6-0.5-3.6,2.8-4.6c0.9-0.2,1.2,0.3,1.5,1.1
	c-0.1,1.3,0.1,2.7,0.1,4c-0.3,1.4,0.3,2.9,1.4,3.8c1.3,1,2.1,2.4,0.5,3.9c-0.6,0.1-1.5-0.6-1.5,0.8c-0.1,1.2-0.4,2.5-0.8,3.6
	c-0.3,0.8-0.5,1.8-1.5,2C41.1,201.5,40.9,200.2,40.4,199.4z"/>
<path class="st11" d="M38.5,163.9c-1.3,2.8-2.2,5.7-2.8,8.6c-0.3-2.7,0.1-5.6-1.7-8c-1.6-2.5-2.2-5.6-1.5-8.6c2.6-2.5,2.8-2.4,5,0.5
	C37.9,158.9,39.4,161.2,38.5,163.9z"/>
<path class="st12" d="M46.3,218.9c-3.1-1.6-1.3-5-2.5-7.3c0-1.8-0.4-3.7,0.2-5.5c0.4-1.9,2.1-2.6,3.5-3.6c0.5-0.2,1.1-0.2,1.6,0.1
	c0.4,0.4,0.5,1,0.4,1.5c-1.1,1.9-1.5,3.5,0.4,5.4c1.1,1.1,1.8,3.3-0.5,4.6c-1.7-0.8-2.9-1-2.7,1.5C46.9,216.8,47.2,218,46.3,218.9z"
	/>
<path class="st13" d="M42.8,182.3c-0.1,1.1,0,2.4-1.3,2.8c-1,0.3-0.4-1.6-1.5-1.6c-0.3,2.7,1.4,5.3,0,8c0.3-4-1.5-7.3-3.5-10.6
	c2.2,1.2,2.4,0.3,2-1.7c-0.4-2-0.9-4.3,2.5-4.3c0.8,0.7,1.3,1.6,1.3,2.6C42.5,179.2,43.3,180.7,42.8,182.3z"/>
<path class="st14" d="M47.4,203c0,2.3-2.9,1.4-3.4,3.2c-0.2-2.8-3.3-4-3.6-6.7c1.4,1.6,2.5,1.9,2.8-0.7c0.1-1.2,0.6-2.4,0.6-3.6
	c0-0.7-0.9-1.8,0.5-2c1-0.1,1.3,0.9,1.5,1.8C46.5,197.5,47.6,200.1,47.4,203z"/>
<path class="st15" d="M24.8,125.8l-0.1-1.8c0.7-0.8,1.7-1,2.7-0.7c0.4,0.1,0.7,0.4,0.9,0.7c0.4,0.7,1,1.8,0.5,2.4
	c-3.2,3.4-0.6,7.6-1.7,11.3c-0.5,1.5,1.4-0.4,1.3,0.7c0.6,2.4,2.4,4.8,0.3,7.2c-3.4-2.3-4-5.7-3.7-9.4
	C25.4,132.7,25.3,129.2,24.8,125.8z"/>
<path class="st0" d="M158.9,260.8c-2-1.2-3.4-2.9-6-0.5c-4.1,3.8-8,0.8-11.5-2.8c-4.4-4.5,0.4-5.9,1.7-8.6c0.5-0.3,1-0.6,1.5-0.9
	c3.9,0.6,7-3.3,11.1-1.2c0,0,0,0,0.1,0c2.4,1.8,3.6,4.7,3,7.6C158.4,256.4,158.9,258.7,158.9,260.8z"/>
<path class="st16" d="M28.7,145.6l-0.9-7.5c-0.7-1.4-0.7-2.9,0.6-3.9c1.1-0.9,2-0.1,2.7,0.9c0.3,0.6,0.4,1.2,0.4,1.8
	c-0.1,2.4,1,4.6,1.2,6.9c0.2,1.4,0.5,2.7-0.6,3.9c-0.5,0.4-1.2,0.3-1.6-0.1L28.7,145.6z"/>
<path class="st17" d="M30.4,147.4l1.5-0.1c1.2,2.6,1.5,5.5,1,8.3l1,8.9c-2.7-1.1-3.2-3.6-3.4-6C30.4,154.7,30.5,151.1,30.4,147.4z"
	/>
<path class="st11" d="M128.1,306.3c-1.1-2.8,0.6-5.7,3.5-5.5c1.2,0.1,2,1.1,1.9,2.2c0,0.1,0,0.3-0.1,0.4c-0.3,1.3,0.8,0.9,1.3,1.2
	C132.9,306.6,130.5,306.5,128.1,306.3z"/>
<path class="st18" d="M107.7,300.1c2,0,1.8,0,2,2.1c0.2,1.5,2.5,2.7,0.2,4.3c-2.2-1.2-4.3-2.4-6.5-3.6
	C103.7,300.2,106.6,301.5,107.7,300.1z"/>
<path class="st19" d="M107.7,300.1c0.7,1.1,0.2,1.5-0.9,1.6c-1.2,0.1-2.6-0.1-3.3,1.2l-1.8-1.3c-0.4-1.2-2.9-2.6,0.2-3.6
	c0.6,0.1,1.2-0.3,1.4-1c0.3-0.8,0.9-1.5,1.7-1.8c0.8-0.3,1.8-0.2,2.5,0.3c0.9,0.7,0.6,1.4,0,2.2S107,299.4,107.7,300.1L107.7,300.1z
	"/>
<path class="st20" d="M133.7,297.1c0.9,0.3,2,0.9,2.9,0.3c2.1-1.3,4.6-1.5,6.9-0.7c-1.7,2.5-5.8,2-6.9,5.3c0.3-2.2-1.7-3-2.8-4.2
	C133.5,297.6,133.5,297.3,133.7,297.1C133.7,297.1,133.7,297.1,133.7,297.1z"/>
<path class="st19" d="M95.5,299.3c1-0.8,2.3-1.3,3.6-1.2c1,1,1.9,2,1.2,3.6C98.4,301.6,97,300.3,95.5,299.3z"/>
<path class="st3" d="M100.3,301.7l-1.2-3.6l0.1-0.1c1.1-0.6,2.3-1.5,3.1,0.4c-3,0.6,0.9,2.3-0.5,3.2
	C101.2,301.7,100.8,301.7,100.3,301.7z"/>
<path class="st21" d="M133.7,297.1c0,0.2,0,0.5,0,0.7c-2-0.3-2.8-2.2-4.3-3.3c-0.9-0.7-0.7-1.5,0.4-2.3c1.8-1.5,3.7-3.3-0.6-4
	c-0.6-0.1-1.1-0.6-1.5-1s-1.4-0.8-2-0.2c-0.4,0.5-0.4,1.1-0.2,1.7c1.7,2.5-0.5,4.7-0.2,7.1c-1.3,0.8-3.4,3.8-2.6-1
	c0.2-1-0.5-1.9-1.5-2c-0.1,0-0.1,0-0.2,0c-1.8,0.2-2.4-1.6-3.8-2c-1-0.2-2.1-0.3-2-1.7c0.1-1.3,1-2.3,2.2-2.8
	c1.9-0.8,3.9-0.5,5.8-0.8c0.9-0.3,1.8-0.8,2.4-1.6c2.3-2.2,4-4.8,7-6.5c1.9-1.1,4.5-3.2,3.7-6.6c-0.2-0.6,0.1-1.5,0.7-1.6
	c3.2-0.8,4.2-4,6.5-5.8l3.3-0.4c-4,2.5-3.2,4.5-1.1,6.4c1.9-0.5-1.6-2,1-3.1s4.2-0.9,6.2,0.5c0.3,1.2,0.3,2.7,2.1,2.5
	c2.1-0.2,1,1.5,1.4,2.3c-1.7,0.6-3.5,0.1-4.7-1.1c-1.1-1-2.7-2.1-4.3,0.1c-1.5,1.9-1.7,4.5-0.7,6.6c3.7-1.7,1.9,3.9,4.6,3.5
	c-1.4,2.6-2.7,4.5-5.2,0.7c-0.9-1.3-2.4-1.8-3.7,0.3c-2,3.2-2.6,6,0.6,8.8c1.1,0.8,1.7,2.2,1.6,3.6c-2.4,0.5-3.2-1.3-4.5-2.7
	c-1-1.1-1.6-3.8-4.1-1.8C132.6,292.4,131.9,294.6,133.7,297.1z"/>
<path class="st18" d="M107.7,300.1c-1.8-1.7-1.9-1.8-0.7-3.1c1-1.1,0-1.1-0.5-1.2c-1.5-0.4-2.1,0.8-2.8,1.8c-1.3-1.8-1.4-4.6-4-5.4
	c-0.4-0.1-0.9-0.9-1.1-0.4c-0.3,0.5,0.4,1.1,0.2,1.7c-1.5,3.4-4.4,1.3-6.5,1.2c-2.5-0.1-4.4-2.2-5.9-4.3c1.4-0.9,3.2-1.1,4.4-2.5
	c0.6-0.7,1.3-0.5,1.8,0.2s0.5,1.6,1.3,2.3c0.2-0.9-0.4-1.6-0.2-2.4c1.3-3.3,2-3.6,4.6-1.5c0.6,0.4,1,1.1,1.8,1.3
	c0.6,0.2,1.1,0.6,1.5,1.1c0.4,0.6,1.1,1,1.8,1.2c-2.4-1.3-4.1-2.8-2.9-5.6c0.7-0.9,1.8-1.4,2.9-1.1c0.5,0.1,1,0.4,1.3,0.9
	c0,1-0.3,2.2,1.4,1.3c2.6,0.9,4.1-1.6,6.3-1.9c1.4-0.4,2.8-0.4,4.3-0.1c1.6,1.5-0.1,2-0.8,2.8c-0.9,1-2.3,1.4-3.6,1.2
	c0.4,2.3,3,3.4,2.3,5.8c-0.5,0.5-1.5,1.3-1.5,1.4c1,1.7,2.7,0.1,4.4,1c-1.4,2.1-3.9,3.2-6.4,2.5
	C108.8,297.8,108.1,298.1,107.7,300.1z"/>
<path class="st22" d="M116.1,297.1c-1.3-2.2-2.1-4.7-4.2-6.4c-1.3-1.1-1.1-2.6-0.2-4s1.8,0.1,2.5,0.1c2.4,0,4.1-2,5.6-4
	c0.8-6.1,4.4-9.3,9.6-10.7c3.8,1.8,5.1,4.4,2.3,8.3c-1.2,1.8-1.5,4.2-2.8,6c-2.3,2-5-0.3-7.4,0.9c-2.7,1.3-5.6,2.5-1.5,6
	c-0.7,0.6-1,1.6-0.6,2.5c0.3,1,1,2.1-0.2,2.9C117.6,299.5,117.3,297.3,116.1,297.1z"/>
<path class="st23" d="M116.8,306.4c-2.3,0.1-4.8-2.6-4.2-4.7c0.2-0.8,0.7-1.6,1.5-1c0.8,0.5,2.5,1.1,1.5,1.9
	C112.9,305,116.5,305.1,116.8,306.4z"/>
<path class="st24" d="M98.8,247.5c5.1,3,10,6.4,15.7,8.3c6,2,11.7,1.1,17.2-1.7c1.2-0.6,3.6-1.3,4.9-1.8l-1.1,0.9
	c-0.2,1-0.9,1.5-1.7,1.9c-2.2,1-4.3,2.3-6,4c-1.9,0.9-4.1,0.1-6.6,0.6c2.2-0.1,4-0.7,5.4,0.7c1,1.1-0.1,2-0.9,2.8
	c-2.7,1.7-5.6,1.1-8.3,0.5c-9.8-2.6-19.2-6.9-27.5-12.8c-1.2-0.7-2.2-1.7-2.8-2.9c-0.6-2.9-3.1-5.1-6.1-5.2c-2.5,1.3-1,3.6-1,5.4
	c0,1.7,1.5,0.1,2.3,0.3c1.9,0.5,1.8,1.7,1,3.1c-2.5,3.1-5.9,3.7-9.6,3.6c-2.5-0.4-2.1-2.9-3-4.3c-0.8-2.6-1.2-5.3-1.2-8.1
	c-0.1-1.9,0.5-3.1,2.8-2.7c3.3,0.5,6.1-0.8,8.7-2.6c1.3-0.6,2.8-0.3,3.8,0.8c3,3.7,7.9,4.7,11,8.2C96.5,247.3,97.7,247.2,98.8,247.5
	z"/>
<path class="st25" d="M125.7,288.1c-0.6-1.1-0.5-2.5,0.2-3.5c1.9-2.4,1.3-4.1-1-5.6c-1-1.7,0-2.5,1.3-3.2c0.1,0,0.2,0,0.3-0.1
	c1.3-0.9,2.8,2.2,3.8,0.1s3.1-4.3,1.5-7.2c-1-1.7-1.2-3.8-0.5-5.7c0.6-1.5,1.8-2.7,3.2-3.5c1.8-1.2,3.5-2.4,0.3-4
	c-0.6-0.3-0.8-1-0.6-1.6c-3.8,0.9,4.4-3.4,7.1-4.2c2-0.6,4.1,0.1,5.6,1.5c0.1,0.1,0.3,0.2,0.5,0.3l0.8,3.4c-2.9-1.9-3.9-1-3.8,1.8
	c0.1,2.4-2.7,4-1.8,6.7c-0.9,2.7-1.2,6-4.9,6.8c-0.3,0.1-0.8,0.8-0.8,1.1c1.9,5.3-1.8,7.1-5,9.9c-1.3,1.1-3.2,3.1-3.6,5.2
	C128,287.8,126.8,287.7,125.7,288.1z"/>
<path class="st26" d="M136.2,253c0.4,0.6,0.9,1.2,1.4,1.7c0.7,0.7,2.4-0.3,2.3,1.1c-0.2,1.4-1.2,2.5-2.5,3c-1.8,0.6-3.4,1.6-4.7,2.9
	c-0.6,0.2-1.3,0.3-2,0.3c-1,0.2-2,0.5-2.9,0.9c-0.9,0.4-1.9,0.2-2.6-0.3c0.8-1.1,1.9-2.2-0.7-2.6c-1.2-0.2-2.8,1-3.8-1.3
	c2.3,0.2,4.7,0.1,7-0.3c1.5-1.9,4.5-1.9,5.5-4.2l2.1-1.2C135.7,253.1,135.9,253.1,136.2,253z"/>
<path class="st27" d="M17.5,67.5c-0.2-1.6-0.9-3.3-0.1-5c-0.2-0.7-0.4-1.4-0.7-2.1c0-1.3-0.9-2.9,0.7-3.6c1.6-0.7,1.7,0.9,2.2,1.7
	c-1.3-3.5,0.8-7.7-2-10.9c-0.9-7.7,3-14.2,5.2-21.2c2.3-0.8,4.7-1.2,7.1-1.1c0.3,2.2,1.3,2.8,3.5,2.2c2.6-0.7,5.3-1,7.7,0.9
	c0.1,2.1-1.2,2.4-2.9,2c-1.5-0.4-2.9-0.4-4,0.9c-0.4,0.8-1.1,1.4-1.9,1.8c-1.1,0.2-2.3-0.1-3.1-0.9c-1.7-1.3-3.1-0.4-4.3,0.7
	c-0.9,0.5-1.2,1.7-0.6,2.5c0,0,0,0.1,0.1,0.1c0.6,0.9,1.7,1.2,2.6,0.9c0.8-0.4,1.6-0.8,2.3-1.3c1.8-0.9,3.3-0.1,3.2,1.6
	c-0.1,2.7,1.3,5,1.4,7.6c-1.6,1.4-2.9,3.1-3.7,5.1c2.3,1.4,5.7-0.9,7.4,2.3C33,54.5,34,59,33.9,63c0,1,0.5,1.7,1.7,1.3
	c1.2-0.4,2.4-0.5,3.6-0.1c1.3,0.4,2.7-0.4,4.1,0.2c1.3,0.6,2.9,1.1,2,3.2c-2.3,1.3-5,1.7-7.5,1.1c-2.3-0.5-4.7-0.1-6.7,1.2
	c-1.3-0.2-2.2-1.3-2-2.6c0-0.2,0.1-0.3,0.1-0.4c1.4-3.1-0.7-3.9-2.7-4.9c-0.3-0.7-0.1-1.5,0.5-1.9c1-0.6,1.6-1.6,1.7-2.7
	c0.2-1.5,1.1-3.1-0.3-4.5c-0.7-0.6-1.7-0.6-2.4,0.1c-1.6,1-3,2.2-2.6,4.4c0.1,0.5,0.2,1,0.3,1.4c0.1,1.6,2.2,3.2-0.1,5
	c-1,0.8,0.7,1.6,1,2.4c0.7,1.1,0.6,2.5-0.1,3.5c-1.2,0.4-2.3-0.1-3.4-0.4C20.1,68.4,18.5,68.4,17.5,67.5z"/>
<path class="st28" d="M43.9-8.8c1.5-1.7,2.2-4.3,4.7-5.1c2.4-0.6,4.4-2.4,7.1-2c-0.7-1.5-3.8,0.1-3-2.8c0.6-1.7,1.8-3.2,3.2-4.3
	c2.1-3.4,5.5-5.5,8.2-8.3c0.2-0.3,0.5-0.5,0.8-0.7c0.5-0.2,1-0.3,1.6-0.2c1.6,0.7,1.6,2.3,2,3.6c0.5,0.4-1,1.3,0.5,1.6
	c1.1,0.4,2.1,1.1,2.8,2.1c0.1,0.3,0.1,0.7-0.1,1c-0.4,0.4-0.8,0.7-1.3,0.9c-4.2,4-7.6,8.8-10.2,14c-0.6,1.3-1.5,2.7-3.1,1.3
	c-2.7-2.4-4.4-1.1-5.9,1.2c-0.7,0.3-1.5,0.1-1.9-0.5c-0.6-1.5-1.2-2.7-3.1-1.6C45.5-8.1,44.5-8.2,43.9-8.8z"/>
<path class="st29" d="M49.5-7.1l1.6,0.5c2.4-1.3,4.9-3,5.6,1.7c0.1,0.6,0.9,0.7,1.4,1c1.9,3.2-2.3,2.8-2.6,4.5
	C55.1,1.1,56,1.2,55.5,1c0,0,0-0.2,0.2-0.3C57.4-0.1,58.4-3.2,61-1c-1,2.6-1.7,5.4-4,7.3c-0.8,0.3-1.5,0.9-1.9,1.6
	c1.1,1.1,2.9,3,1.7,3.9c-2.6,1.7-2.8,0.7-4-0.8c-0.3-1.1-0.3-2.2-0.3-3.3c0.5-3.1-2-2.6-3.7-3.1c-0.6-0.2-1.3-0.6-1.2-1.2
	c0.6-3.4-1.4-4.1-4.1-3.6c-2,0.4-2.9-1-4.2-1.9c-0.5-0.9,0.1-1.7,0.5-2.5c0.4-1,1.2-1.8,2.1-2.4C43-7.2,44-7.2,45-7
	c1.2,0.8,2.8,0.8,4,0C49.2-7.1,49.3-7.1,49.5-7.1z"/>
<path class="st10" d="M17.3,60l0,2.6c-2.2-3.5-3-7.3-1.4-11.3c0.9-2.4,1.3-5,1.1-7.6c-0.3-5.7,0.7-11.1,3.9-15.9
	c1.1-1.7,0.7-3.6,1.2-5.4c0.9-3.1,3.6-5.3,4.6-8.4c0.5-1.6,2.4-2,4.1-1.7c1.6,1.4,1.9,3.3,0.2,4.4c-3.8,2.3-5.5,6.1-7.8,9.4
	c-0.3,3.8-2.8,7.1-2.2,11.1c-4.8,2.5-2.3,7-2.9,10.6c0.3,2.9-1,5.5-1.2,8.2C16.8,57.5,16.4,58.8,17.3,60z"/>
<path class="st30" d="M17.5,67.5c1.6,0,3.8-1.3,4,1.8c1.2,1.9,1.7,4.2,1.3,6.4c-0.2,1.5-0.2,3,0.2,4.4c0.9,2.5-0.1,4-2.3,5
	c-0.1,0.1-0.3,0.2-0.5,0.3c-2-4-4.5-7.8-4.5-12.4C15.7,70.9,16.8,69.3,17.5,67.5z"/>
<path class="st31" d="M52.7-18.7c0.6,2.1,2.2,0.9,3.4,1.1c0.7,0.1,1.4,0.2,1.5,0.8c-0.1,0.6-0.3,1.1-0.8,1.5c-3-0.7-5.3,2.6-8.3,1.4
	C49.5-15.9,50.9-17.5,52.7-18.7z"/>
<path class="st32" d="M45.1-6.5C44-6.7,42.9-6,42-7l1.9-1.8c0.8-0.2,1.6-0.4,2.5-0.6c1-0.3,1.7-1.7,2.9-0.7c1.2,0.9,0,2,0.2,3.1l0,0
	C48.2-6.1,46.5-5.9,45.1-6.5z"/>
<path class="st33" d="M67.2-28c-1.5-0.9-0.1-3-1.8-3.8c0.7-2.3,2.3-4.3,4.4-5.5c0.2,0.9,0.2,2.6,1.3,2.2c3.6-1.3,4,1.4,5.2,3.5
	c0.6,0.9,1.3,1.7,2.1,2.4l0.3,0.3c0.2,0.4,0.1,0.9-0.3,1.2c-0.8,0.3-2.2,0-1.4,1.6c0.5,1-0.1,1.6-0.8,2.2c-2,1.7-3.9,3.1-6,0.2
	l0-0.7c0.2-1.3,1.6-1.4,2.3-2.4C70.4-25.5,68.8-26.8,67.2-28z"/>
<path class="st34" d="M73.2,281.3c-0.8-1.6-2-3.1-3.4-4.2c-2-1.6-2.2-4-2.4-6.3c3.7-1.6,9.5-0.2,11.5,2.8c0.8,1.1,1.1,1.6,2.5,0.7
	c2-1.3,4.6-0.3,6.6-1.5c1.1,2,0.3,3.4-1.2,4.6c1.1-0.4,2.2-0.4,3.3,0c0.7,0.2,1.2,0.9,1.2,1.6c0,0.8-0.3,1.5-0.9,1.9
	c-1.9-2.7-2.9-2-3.3,1.1c-2.4-1.5-2-4.1-2.9-6c-1.8,0.4-0.9,2.1-1.7,3.1c-0.7,0.9-1.1,2.5-2.9,1.5c-0.7-0.4-1.9-1-2.3,0
	c-0.5,1.4,0.9,1.4,1.8,1.7c0.3,0.1,0.4,0.4,0.8,0.8c-1.7,0.5-3.1-0.4-4.5-0.4L73.2,281.3z"/>
<path class="st35" d="M90.4,281c-0.1-0.6,0.1-1.2,0.5-1.6l0.5,0.1c2.5,2.7,6.8,3.2,8.2,7.1c0.2,0.5,0.2,1,0,1.5
	c-1.3,0.8-1.6-0.7-2.1-1.1c-1.9-1.7-2.9-1.1-3.4,1.1c-0.4,0.6-1.2,0.8-1.9,0.5c-0.1-0.1-0.2-0.1-0.3-0.2c-1.9,0.7-3.2,3.3-5.8,2.2
	c0.6-2-0.7-2.8-2.8-3.7c2.2-0.6,2.8-2.3,5.5-1.7C91.7,285.8,90.2,282.5,90.4,281z"/>
<path class="st35" d="M98.7,293.6c-0.8-1.1-2.3-1.9-1.7-3.8c3.5,1.5,6.9,3.2,6.6,7.8c-0.1,0.6,0.4,1.5-0.4,1.8
	c-0.7,0.4-0.8-0.5-1.1-0.9c-0.9-1-2.1-0.4-3.1-0.4c0.1-1.5,1.9-1.4,2.4-2.5L98.7,293.6z"/>
<path class="st36" d="M83.4,290.9c-1.3,0-1.9-1.1-2.7-1.9c0.8-1.2,1.7-1.3,2.5-0.1C83.5,289.5,85.3,290.1,83.4,290.9z"/>
<path class="st37" d="M42.8,182.3c-1.1-1.2-1.2-2.8-1.2-4.4c1.4-0.1,3.1,2.9,4-0.5c0.2-0.2,0.4-0.3,0.6-0.4c1-0.7,2.7,1.1,3.3-0.6
	c0.5-1.7-0.9-2.6-2.2-3.5c-0.8-0.5-1.6-1.2-2.2-2c-0.3-0.6-0.1-1.4,0.5-1.7c0,0,0.1,0,0.1-0.1c1.7,0.6,3.2-0.9,2.9-1.7
	c-0.7-2.1-2.7-3.5-4.9-3.7c-1.1,0-1.9,0-2.5-0.9c0.5-1.9,1.9-2.4,3.7-2.3c1.1,0.1,1.6-0.4,1-1.5c0.5-1.6,1.2-3.3,3-3.3
	c1.6,0,1.3,2.2,2.2,3.1c1.1,2.1-0.6,4.8,1.5,6.6c1,2.1,0.8,4.4,1.4,6.5c0.6,2.1,1.5,4,4.4,3.2c1.4-0.4,3.1-0.4,3.5,1.7
	c-2.2,1.3-4.6,2.4-5.2,5.2c-4.4,0.1-8.8-0.2-13,1.4C43.7,183.1,43.4,182.6,42.8,182.3z"/>
<path class="st38" d="M46.2,159.3c0.8,0.1,1.9-0.5,2,0.8c0,1-1,1.4-1.9,1.4c-1.8-0.1-3.6,0-5,1.4l-2.8,1c-0.9-2.3-1.5-4.7-1.7-7.2
	c-0.5-2-1.5-3.9-3-5.4c-0.9-0.6-1.2-1.7-0.8-2.7c0.6-1.1,1.8-1.2,2.9-1.1c3.7,0.3,5,2.2,4.1,5.9c-1,3.8,0.5,5.7,4.4,5.6
	C45,159,45.6,158.9,46.2,159.3z"/>
<path class="st39" d="M46,177.5c0,1.1,0.8,2.5-1.1,3.1c-2.5,0.8-2.2-1.8-3.3-2.6l-0.5-3c0.3-1.4,3.1-3.3-0.9-3.8
	c-1.8-0.2-0.6-1.9-0.8-2.8c-0.2-1.3,1.3-1.1,1.9-0.9c1.5,0.5,3,1.1,4.4,1.7l-0.6,1.5C45.2,173,44.2,175.4,46,177.5z"/>
<path class="st40" d="M71,250.8c2.4,0.3,0.2,3,2,3.6c0.8,0.4,1.8,1.1,1,2c-1.4,1.6-2.6-0.5-4.3-0.3c3.6,0.6,5.5,2.2,4.6,6.1
	c-0.4,1.6,0,3.4,1.1,4.7c-1.3,2.3-3.2,1.1-4.9,0.7c-1-0.3-0.9-1.3-0.2-2.1c1.4-1.7,0.6-2.7-1-3.4c-1.9-0.9-3.5-2.3-5.4-3.2
	c1.2,0.9,2,2.3,2.2,3.8c-0.2,1.9,0.7,3.8-0.5,5.6c-3.8-1.3-4.4-4.5-4.9-7.8c-0.3-1.4-0.7-2.8-1.1-4.2l-0.2-3.1
	c1.3-0.4,1.4,1.3,2.6,1.3c-0.4-2.2-1.5-4.2-1.8-6.6c-0.9,1.6,0.2,3.4-1.1,4.7c-1-1.5-2.1-2.8-3.6,0.5c-0.5-5.1-3.6-9.2-0.8-13.6
	c1.1-2.2,2.9-2.5,5-1.6c1.1,0.5,2.4,0.8,3.6,0.9c-1.5-0.2-2.9-0.6-4.3-1.3c-3.7-1.6-4.7-3.3-4.1-7.3c0.2-1.4,0.6-2.7-1-3.5
	c-1.1-0.5-2.2-2-3.2-0.6c-1,1.4,0.7,1.9,1.8,2.6c2.3,1.2,2.3,2.3,0.6,4.3c-0.2-0.6-0.3-1.4-0.7-1.6c-0.9-0.4-0.8,0.5-1,1
	c-0.2,0.7-0.3,1.4-0.4,2.2c0,0.7,0,1.3,0,2c-2.7-3.4-3-12.1-0.6-14.7c1.2-2.3,3.5-2.4,5.7-2.6c1.7,0.6,3.4,2.1,5.3,0.4
	c1.7-0.3,1.1,3.3,3.4,2.1c1.2,5.1,0.9,6-2.2,8.1c2.5,1.3,2.6,1.3,2.9-0.9c0.2-1.1-0.1-2.3,1-3c3.2,1.3,4.2,4,2.5,6.8
	c1.1,0.4,1.6-0.2,2-1c1.5-3.8,1.5-3.8,4.3-0.5c1.1,0.5,2.3,0.7,2.4,2.3c-0.5,2.2-1.9,3-4,3c-1.9,0-3.9,0.2-5.8,0.5
	c0.1,1.7,1.8,3,0.9,4.7c-2.6,1.2,0.5,1.5,0.4,2.3c0.4,0.7,0.6,1.6,0.1,2.1C67.1,248.3,68.7,249.7,71,250.8z"/>
<path class="st41" d="M53.1,232.5c0.8-2,1.1-3.7-1.9-3.6c-1.4,0-1.6-0.9-1.7-2c-0.1-1-0.6-2.1,0.3-2.8s2.1-0.3,3.1,0.4
	c1.9,1.4,5.3,1.5,2.9,5.8c-1.7,3.1,2.3,6.9,6.8,6.9c0.9,0,1.6-0.2,2.2,0.7c0.4,0.6,1.4,1,0.7,1.8c-0.4,0.6-1.1,0.3-1.7,0.1
	c-0.3-0.2-0.6-0.4-1-0.5c-2.7-0.9-5.3-2.3-8.1-0.2C54.5,236.8,52.9,234.9,53.1,232.5z"/>
<path class="st42" d="M56.1,219.3c-2,0.4-3.9,1.1-5.7,2.1c-0.4-1.2,0-2.7-1.1-3.7c-1.4-1.3-0.7-2.5,0.2-3.6c0.6-2.2,0.8-3.8-1.8-5.3
	c-2.4-1.4,0.2-3.1,1.4-4.4c2.7-0.1,3.8,2,5.3,3.6c0.2,0.9-0.4,1.6-0.7,2.4c-0.7,3.1-0.3,5.7,2.6,7.5
	C56.6,218.3,56.5,218.9,56.1,219.3z"/>
<path class="st43" d="M59.1,252.2c-0.1-1.7-0.2-3.4-0.2-5.2c0-0.6,0.3-1.6,1.3-1.4c0.9,0.2,1.1,0.8,1,1.7c-0.3,2.2,0.7,4.1,1.6,5.9
	c0.5,1,1.6,1.7-0.3,2.4c-1.5,0.6-2,0.1-2.4-1.2c-0.2-0.5-0.5-1.1-0.9-1.6C59.2,252.6,59.2,252.4,59.1,252.2z"/>
<path class="st0" d="M49.6,214.1l-0.2,3.6c-1.4-0.5-0.8,3.9-3.1,1.2c-0.1-1.2-0.4-2.5-0.4-3.7c-0.1-1.2-0.8-2.6,1-3.1
	C48.4,211.8,49.2,212.7,49.6,214.1z"/>
<path class="st44" d="M24.2,112l-0.5-3.7c-1-2.7,1.6-2.5,2.8-3.4c0.8-0.4,1.8-0.7,2.7-0.7c1.1,0.1,2.2,0.7,2.9,1.6
	c0.3,0.5,0.3,1,0.2,1.6c-0.2,0.4,0.1-0.1-0.1,0.3c-3.7,6.4-3.1,7.6,4.2,8.8c2.2,2.5,2.1,2.8-1.2,4.3c-1.9,0.2-3.7,1-5.1,2.4
	c-0.6,0.6-1.2,1.2-2.2,0.5l-0.1,0c-0.7-0.6-1-1.6-0.9-2.5c1-1.7-0.6-3.2-0.6-4.8c0-0.3,0-0.7,0-1C26.8,113.6,25.1,113,24.2,112z"/>
<path class="st45" d="M22.3,103.2c-0.8,0.2-1.5-0.3-1.6-1.1c0-0.1,0-0.2,0-0.2c-1.4-2.5-1.8-5.4-0.9-8.2c-0.7-1.6,1.2-2.5,1.1-3.9
	c1.1-1.1,2.2-0.8,3.3,0.1c0.9,1.5,1.5,3.3,1.6,5.1c-0.1,1.5-0.1,2.9,0.1,4.4c0.3,2.3-0.7,3.5-3,3.8L22.3,103.2z"/>
<path class="st46" d="M26.8,115.5l0,0.7c-1.7,1.8,1.5,2.8,0.6,4.5l0.2,3l-2.9,0.3l-0.2-1.5c-1.3-2-1.6-4.5-0.8-6.7
	c0-0.2-0.1-0.5-0.1-0.7C24.9,114.3,26,113.6,26.8,115.5z"/>
<path class="st15" d="M19.7,93.7l0.9,8.2C18.2,99.6,17.8,96,19.7,93.7z"/>
<path class="st15" d="M27.1,105.7c-1.3,0.7-3.2,0.6-3.5,2.6c-1.5-1.4-0.8-3.4-1.3-5.1l0,0C24.3,103.2,26.5,102.9,27.1,105.7z"/>
<path class="st15" d="M26.8,115.5c-0.9-1-2-0.5-3.1-0.4c-0.1-1.1-0.6-2.2,0.4-3.2C26.9,111.9,28,112.8,26.8,115.5z"/>
<path class="st15" d="M23.8,115.9l0.8,6.7C21.7,120.6,22,118.3,23.8,115.9z"/>
<path class="st30" d="M23.8,90.2c-1-0.5-2-0.6-3.1-0.4l-0.5-4.5l0.1-0.1C22.3,86.3,24.6,87.2,23.8,90.2z"/>
<path class="st47" d="M43.7,183.7c1.5-2.6,4.3-1.8,6.5-2.4c2.1-0.5,4.3-0.1,6.1,1c0.7,0.6,0.5,1.3,0.1,2c-0.2,0.3-0.5,0.6-0.6,0.9
	c-1.3,4.8-1.8,5.1-6.6,4c-1.8-1.2-4-1.3-5.8-2.3L43.7,183.7z"/>
<path class="st42" d="M43.3,186.8c2.4-0.8,4.3,0.3,6.2,1.6c0.4,0.4,0.6,0.9,0.7,1.4c-1.8,4.8-1.5,5.7,2.4,8.9
	c0.7,1.1,0.4,2.6-0.7,3.3c0,0,0,0,0,0c-0.9,0.4-1.9,0.7-2.9,0.8c-0.5,0.1-1,0.1-1.5,0.2c-0.9-2.6-2.8-5.1-1.7-8.1
	c0.9-1.1,0.7-2.7-0.2-2.9C42.4,191.2,43.5,188.8,43.3,186.8z"/>
<path class="st48" d="M46.2,159.3c-2.6,1.7-4.9,1-6.8-1.2c-1.9-2.2-0.7-4.2,0.2-6.1c0.6-1.3,0.9-1.9-0.6-2.5s-3.3-2.1-5.1-0.8
	c-0.9,0.6-0.1,1.6,0.4,1.8c2.7,1.3,2.4,3.8,2.6,6.1c-0.9-1.7-2.1-2.2-3.8-1.1c-1-2.6-1.3-5.5-1-8.3c0-2.8-0.4-5.5-1.4-8.1
	c-0.3-0.9-0.6-1.6,0.1-2.3c0.9,0.2,1.8,0.6,2.6,1.1c0.2,0.3,0.3,0.6,0.4,1c-0.4,1.8-0.5,3.3,2.2,2.1c1.5-0.7,3.2-0.1,4.8-0.2
	c1.4-0.2,2.6-1,3.3-2.1c0.7-0.9,1.9-1.2,2.3,0.1c1,3.6,4.1,2.7,6.1,2.4c2-0.3,3.2-2.6,3-5c0-0.4,0.1-0.8,0.2-1.1
	c0.2-0.3,0.4-0.6,0.8-0.7c0.4,0,0.7,0.2,0.9,0.5c1,1.8,1.8,3.7,1.5,5.9c-1.3,1.8-3.2,3.2-3.8,5.6c-0.7,0.4-1.6-0.8-2.4,0.7
	c-1.6,3.2-2.7,3.1-4.5,0c-0.7,4.1,3.2,6.4,3.6,10c0,0.8-0.5,1.4-1.2,1.7c-2.2,0.3-0.7-1.9-1.7-2.6L46.2,159.3z"/>
<path class="st49" d="M48.9,202.8c0.3-1.2,1-1.5,2.1-1c0.6,0.1,1.3,0.4,1.9,0.7c0.3,0.1,0.6,0.3,0.9,0.5c1.5,0.8,2.7,2.2,4.5,2.5
	c0.9,0.1,1.8,0.4,1.8,1.5c0.1,1.1-0.7,2-1.8,2.1c-1.5,0.3-3.2,0.9-4.4-0.8c-1.7-1.3-3.4-2.6-5-3.9L48.9,202.8z"/>
<path class="st50" d="M65.5,268c0.1-2-1.2-4,0-6c1.5-0.5,2.1,0.6,2.4,1.6c1.4,5,5.2,5.8,9.5,5.7c1,0.3,2,0.7,2.9,1.2
	c3.4,1.5,4.7-1.9,7-3c0.7-0.1,1.4,0.2,1.9,0.7c0.8,1.7,3.2,2.4,3,4.7c-0.1,0.7-0.4,1.3-0.8,1.9c-2,1-2.3-1.3-3.5-1.9
	c-1.2,1.1-2,3.3-4.3,1.4c-0.6-0.4-1.6,0-2.1,0.9c-1.7,3.1-2.7,1.2-3.1-0.6c-0.2-1.4-1.2-2.5-2.6-2.7c-2.9-0.1-5.5-2-8.5-1.2
	L65.5,268z"/>
<path class="st51" d="M56.8,134.7c-0.2,0-0.4,0.1-0.7,0.1c-2.6,3.5-6.3,3.1-9.9,2.5c-1.3-0.4-2.7-0.1-3.6,0.8
	c-3.8,3.3-5.2,3.3-9.4,0l0,0c-1.8-2-0.6-4.2-0.2-6.3c0.2-1,1.6-2.1,0-2.8c-1.4-0.6-3.4-0.9-4.4,0.4c-0.8,1,0.9,1.7,1.7,2.4
	c1.1,1,2.7,2,0.4,3.5c-1.1-1.1-2.1-2.2-2.3,0.5c-0.1,0.7-0.3,1.4-0.5,2.1c-0.5,0.1-1.1,1.8-1.3,0.3c-0.5-3.4-0.6-6.9-0.3-10.3
	c0.1-1.3,2.6-2.3,1.5-4.4c2-1.9,4-3.8,7.1-3.8c4.2,2.3,4.9,3.8,3.8,8.5c-0.4,1.9,0.9,1.9,1.9,2.5c0.7,0.3,1.2,0.9,1.5,1.6
	c0.7,1.8,0.8-0.4,1.2-0.1c1.6,0.7,3,1.4,5.1,0.4c1.8-0.8,4.3,1.1,6.4-0.5C56,132.5,57.5,132.7,56.8,134.7z"/>
<path class="st52" d="M30.6,135.5c1.1-1.5,0.2-2.3-1-2.9c-1.1-0.5-2.1-1-2.5-2.1c-0.4-1.4-1.1-3.1,1.7-2.6c1.3,0.2,2.7-0.3,4-0.1
	c1.9,0.3,3.4,0.9,1.5,3.3c-1.6,2-1.5,4.6-1.2,7c-1.1,0.1-2.2,0.2-2.5-1.3L30.6,135.5z"/>
<path class="st53" d="M71.7-24c2.2,1.4,4-0.2,6-0.7c0.5,4-0.7,7.9-3.3,11c-0.8,2.1-2.5,2.8-4.4,3.4c-1.2,0.1-2.1,1-2.1,2.2
	c-0.3,1.8-1.3,3.4-2.8,4.6c-0.3,0.8-1,1.5-1.8,1.7c-0.8,0.4-1.3,1.4-2.4,0.9c-3-0.9-3.8,2.6-6.9,3c1.2-1.6,1.3-3.5,3.6-3.8
	c0.8-0.1,0.8-1.2,0.7-1.9c0.6-4.4,3.5-7.2,6.7-5.6c-1.4-1.9-2.9-3.2-1.4-5.3c1.3-1.8,2.7-2.5,4.7-1.8c1.8-0.1,3.2-2.1,5.5-0.4
	c-0.6-2.5-1.3-4.2-3.1-5.2c-0.5-0.5-0.9-1.1-0.3-1.9L71.7-24z"/>
<path class="st54" d="M60.8-0.9c0.7-0.6,1.6-0.9,2.4-0.9c-1.5,3.2-2.5,6.7-6.2,8.1C58.3,3.9,58.4,0.9,60.8-0.9z"/>
<path class="st55" d="M69.5-10.9l0.2,1.7c-0.8,2.5-2.1,4.7-4.7,5.7c0.7-1.7,2.2-3,1.9-5.3C66.7-9.8,67.9-11.1,69.5-10.9z"/>
<path class="st56" d="M140.7,278.9c-2.5-2.7-1.1-5.5-1.1-8c0-2.1,2.1-0.4,3.2-0.7c1.4-0.4,1.7,1.2,1.2,2.3
	C143.1,274.6,141.9,276.6,140.7,278.9z"/>
<path class="st57" d="M137,286.2c-1.2-0.9-2.7,0.1-3.6-1.2c2.4-1-0.1-4.6,2.2-5c1.6-0.3,3.2,1.8,3.8,3.3
	C139.9,284.7,137.8,285.1,137,286.2z"/>
<path class="st58" d="M112.1,286.8c4.6-1,6.3-6.5,10.3-8.5c0.7-0.3,0.8-1.9,1.2-2.9c1-2.8,1.9-5.5,4.4-7.3c2.3-1.7,2.3-4.5,0.2-5.7
	c0.6-1.3,1.8-0.8,2.8-1.1c1.1,2.8,1.3,5.7-0.3,8.1c-1.4,2.4-3,4.6-4.7,6.7c-1.2,0.1-2.1,1.3-2.1,2.6c-2.6,2-5.2,4.2-6.6,7.6
	L112.1,286.8z"/>
<path class="st59" d="M98.7,280.7l5.1,3.1c-1,0.5-2.4,0-3.1,1.2c-0.4,0.8-0.7,1.5-1.8,0.8c-0.9-1.4-1.1-3.1-0.6-4.6L98.7,280.7z"/>
<path class="st60" d="M99.4,286l1.4-1c-0.7,3,2,3.8,4,5.1c-3.1,1.7-3.5-1.3-5-2.1l-0.4-1.3C99,286.5,99,286.2,99.4,286z"/>
<path class="st3" d="M92,288.2c0.7-0.1,1.4-0.2,2.1-0.2c-0.1,1.3,0.8,2.2,1.5,3.4C92.5,292.4,92.2,290.5,92,288.2z"/>
<path class="st59" d="M104.5,284.3l1.7,1.6c-0.1,0.1-0.2,0.1-0.3,0.2c-1,0.3-1.9,2-2.9,0.8C101.5,285.2,104.8,285.7,104.5,284.3z"/>
<path class="st61" d="M33.5,30.9c1-2.7,3.2-2.1,4.9-1.4c1.5,0.6,2,0.3,2.5-0.9c1.7-1.6,3-0.1,4.4,0.6c0.5,1.3,2.8,2,1.7,3.6
	c-1,1.7-3,2.6-4.9,2.1c-1-0.3-0.1,0.8-0.4,1.1c-1.1,2.5,1.4,3.2,2.4,4.5c0.5,0.7,1.5,1.1,2.2,1.8l1,1.9c0.5,2.6,2.1,5.5-1.9,6.8
	c-2.3-0.5-1.7-2.4-1.9-3.9c-0.2-1.5-0.6-2.3-2.4-1.6c-2.6,1.1-5.1,0.1-7.5-1c-0.8-2.4-2.9-4.4-1.8-7.3c0.2-0.8-0.2-1.6-1-1.8
	c0,0,0,0,0,0c-0.9-0.3-1.3,0.4-1.9,0.9c-2.4,2-5.3,1.6-6.1-0.7c-0.5-1.3-0.6-2.9,1.2-3.4c1.7-0.6,2.8-3.5,5.1-1.3
	c0.9,0.9,1.7,1.8,3.1,1.7c1.1,0.5,0.2,1.8,0.7,2.3C32.6,33.7,34.1,32.3,33.5,30.9z"/>
<path class="st62" d="M77.3,232.8c-0.5-1.3-1.3-1.2-2.3-0.6c-1.2-2-0.1-4.3-0.8-6.4c-0.3-2.1,1-3.7,1.5-5.6c-0.1-1-0.2-2.1-0.1-3.1
	c0.1-0.4,0.3-0.7,0.5-1c4.1-0.5,2.1,2.9,2.9,4.6c-1.9,2.8,0.9,5,1.9,6.5c4.4,6.1,8.2,12.7,14.3,17.3c1.3,1,3,1.4,3.6,3.1
	c-1.4,0.9-3.3,0.5-4.3-0.9c-2.7-3.6-8.1-3.5-10.2-7.9c-0.4-0.8-2.2-0.8-3.4-1.2c-1.6-0.5-1.9-1.7-1.5-3.1c2.4-1.9,0.5-3.3-0.5-4.5
	c0.7,1,2.2,2.1,1.1,3.9C78.5,234.7,78,233.4,77.3,232.8z"/>
<path class="st63" d="M49.9,86.3c3.3,4.9,3.6,9.7,0.7,15c-1.2,2.2-0.8,4.8,0.9,6.6c5.2,5,5.7,10.7,3.6,17c0.5,2.1-0.4,4.1-0.5,6.1
	c-1.2,1.2-2.6,2.4-4.1,1.1c-1.3-1.1-0.5-2.7,0.5-4c0.2-0.2,1.1-0.2,0.2-0.9c-2.7-2-1-3.9,0.4-5.6c1.5-1.7,1.8-3.5,0.4-5.3
	c-0.3-0.8-0.6-1.7-0.7-2.6c-1.1-2.2-3-3.8-4.2-6.1c-2.7-5.2-2.8-6.2,1-10.9c1.4-3.1,0.2-6.6,1.1-9.8C49.5,86.8,49.6,86.5,49.9,86.3z
	"/>
<path class="st64" d="M61.8,177.1c-0.6-1.1-2.1-1.6-3.2-1c-3,1.4-4.3-0.4-5.2-2.8c-1-2.6-0.7-5.3-1.3-8c-1.1-3.1-0.8-3.7,2.1-3.4
	c2.3,0.2,4-1,5.9-1.8c1.9-0.8,0.3-2.8,1.2-4c1.9-0.8,1.7,1.1,2.4,1.9c0.1,0.3,0.2,0.6,0.3,1c0.2,1.1-0.2,2.3,0.7,3.2
	c0.2,0.3,0.2,0.6-0.1,0.8l-1.4,1.7c-1.1,0.1-2.4,0.1-2,1.8c0.5,2-0.4,3.9,0.1,6.3c1-0.9,2.6-0.9,3.6,0c0.9,0.7,1.2,2,0.7,3
	C64.5,176.3,63.5,177.9,61.8,177.1z"/>
<path class="st65" d="M69.4,184.5c-0.2,0.6-0.7,0.9-1.2,1c-1.2,0.4-0.9,2-2,2.5c-1,0.9-2.4,0.4-3.6,0.8c-1,0.3-1.5,1.1-1,2
	c0.9,1.4,0.8-0.4,1.3-0.5c1.3-0.3,2.4-0.1,3,0.9c0.9,1.6,2.6,2.2,3.5,3.7c-1,3.9-4,2.7-6.6,2.8c-3.2,0.4-4.8-1.3-5.4-4.2
	c-0.4-2.2-0.7-4.3-0.9-6.5c-0.2-2.6,0.4-4.2,3.6-4c3.5,0.2,6-2.2,8.6-4.4C70.5,180.4,70.2,182.5,69.4,184.5z"/>
<path class="st66" d="M69.4,184.5c-0.6-1.9,0.4-4.2-1.5-5.7c-1.7-0.2-1.9-1.7-2.5-2.9c-0.6-3.2-0.6-3.2-3.3-2.1
	c-0.9,0.4-2.4-1.2-2.1-2.4c0.5-1.8,0.9-3.4,0-5.3c-0.4-1,0.4-2.3,1.3-2.8c0.9-0.5,1.1,1.2,1.9,1.4c-0.3,1.9,0.5,3,2.1,4.2
	c3.8,2.7,6,7.2,5.7,11.9C71.2,182.4,70.5,183.7,69.4,184.5z"/>
<path class="st67" d="M45,50.8c3.2-1.3,2.4-4.1,2.3-6.6c2.7,4.9,1.9,9.4-1.3,13.7c-0.9,1.2-1.7,2.1-0.6,3.5c0.1,1.2,0.7,2.6-0.7,3.2
	c-1.4,0.7-2.1-0.8-2.9-1.7c-0.7-0.7-1.3-1.4-2-2.1c-0.7-3.5,0.1-5,3.1-6.5c0.8-0.4,2.8-0.1,1.9-2.1C44.6,51.6,44.7,51.1,45,50.8z"/>
<path class="st68" d="M49.6,71.5c0,2.9-0.2,5.7-2.7,7.7c-1.6,1.4-0.9,2.8,0.2,4.2c0.9,1,2.3,1.5,2.7,3c-0.1,0.1-0.2,0.2-0.3,0.3
	c-1,0.3-1.7-0.6-2.6-0.4c-1.7,1.5-3,0.6-4-0.9c-1.3-1.9-2.8-4-1.9-6.5c0.5-1.4,1.7-0.9,3.2,1.6c-0.1-5-0.1-5,2.6-7.9
	C47.7,72.1,48.3,70.9,49.6,71.5z"/>
<path class="st69" d="M49.7,71.5l-2.1,1.7c-1.2-0.3-2.3-1.1-2.9-2.2c-0.4-1.2-0.2-2.6,0.7-3.6c-1-3.8-4.3-1.2-6.3-2.3
	c-0.4-1.6,0-3.4,1-4.7c1.9,0.6,2.6,2.6,4,3.8c1.5-0.5,0.3-2.2,1.3-2.8c1.3,0.7,2.3,1.9,2.8,3.3C48.9,66.8,49.4,69.1,49.7,71.5
	L49.7,71.5z"/>
<path class="st70" d="M64.7,163.1c-0.1-0.2-0.1-0.4-0.1-0.6c-1.4-0.9,0.2-2.7-1.1-3.7l0,0c-0.5-2.6-2-4.9-4.1-6.5
	c-0.3-0.1-0.6-0.3-0.9-0.5c-3.7-2.1-4.2-3,1-8.5c-0.8,4.5,2.7,7.3,4.8,10.4C66.2,157,65.8,159.9,64.7,163.1z"/>
<path class="st71" d="M59.4,143.4l-0.7,1.7c-0.8,1.9-0.7,5.5,0.2,6.7c-0.7,1-0.6,3.1-2.4,2.7c-1.8-0.4-2.6-2.2-2.4-4.1
	c0-1.5,0.4-2.9,1.2-4.2c-0.7-2.8,0.4-4.4,3.2-4.9c0.4-0.5,1.1-0.5,1.5-0.1c0,0,0,0,0,0c0.4,0.3,0.4,0.8,0.1,1.2c0,0,0,0.1-0.1,0.1
	L59.4,143.4z"/>
<path class="st72" d="M78.9,220.6c-1.5-1.2-0.1-4.1-2.7-4.5c-1.2-0.6-1.7-1.8-2.6-2.7c-0.8-1.1-1.3-2.3-2-3.5
	c-1.4-2.2-1-3.9,1.6-4.7c0,2.1,1.2,3.6,2.6,5.1C78.6,213,79.8,216.9,78.9,220.6z"/>
<path class="st73" d="M73.3,205.1c-3.6,3.3,0.8,5.4,1.1,8.1c-0.2,1.4-1,2.3-2.5,2.2c-1.3-0.1-1.6-1.3-2.3-2.2
	c-1.8-2.7,0.4-5.6-0.4-8.3c-0.1-0.8,0-1.6,0.3-2.4c2.1-2.5,3.3-1.5,4.2,1C74.3,204.3,73.5,204.7,73.3,205.1z"/>
<path class="st74" d="M39.9,34.1c2.9,1,5.2-6.8,7.8-1.9c0.6,1.4-0.2,1.3-1.4,2.5c-1.8,3-2.1,4.8-0.3,7.3c-2.6-0.3-4.3-3-6.3-4.4
	C38.4,36.7,39.7,35.3,39.9,34.1z"/>
<path class="st75" d="M68.5,187.5c6.2,4.2,8.2,8.4,6.6,13.8c-1.9-1.2-1.3-4.1-3.4-5.1c-0.3-0.2-0.5-0.5-0.7-0.7
	c-0.1-1.4-0.8-2.6-1.7-3.5c-1.1-0.8-1.7-2.2-1.5-3.6C67.9,188,68.1,187.7,68.5,187.5z"/>
<path class="st76" d="M54.2,131.2c-0.8-2.2,0.9-5.3,1.1-7.4c0.4,3.9,2.3,8.1,4.4,11.3c-1.1,1-1.9,0.2-2.8-0.5l-0.2,0.1
	c0.2-1.8-1.4-1.5-2.3-2.1C53.9,132.3,53.9,131.8,54.2,131.2z"/>
<path class="st77" d="M57,134.6c0.9,0.2,1.8,0.3,2.6,0.5c0.1,0,0.1,0.1,0.1,0.1c0.3,2.4,1.8,4.7,0.2,7.2c-0.1-1-0.7-1.3-1.6-1.2
	L57,134.6z"/>
<path class="st73" d="M71.5,195.6c3.8,0.3,2.2,3.9,3.6,5.7c0,0.5,0,1.1-0.6,1.3c-1.7-0.8-1.8-2.6-2.6-4
	C71.5,197.7,70.7,196.7,71.5,195.6z"/>
<path class="st78" d="M72.6,198.5c1.2,1.1,1.1,2.8,1.9,4.1l-0.7,1.1c-1.1-0.9-1.9-2.8-3.8-1c-0.3-0.2-0.5-0.5-0.5-0.8
	C69.5,199.7,72.2,200.2,72.6,198.5z"/>
<path class="st68" d="M49.7,71.4c-1.7-2-1.2-4.5-1.6-6.7C49.5,66.7,50.5,68.9,49.7,71.4z"/>
<path class="st79" d="M66,187.2c1.1-0.1-0.3-3.4,2.2-1.7l0.2,2l-0.3,0.3c-0.3,0.7-0.7,1.3-1.6,1.1C65.7,188.6,65.6,188,66,187.2z"/>
<path class="st80" d="M79.7,233.9c-0.1,1.3,0.4,2.6,1.2,3.6c-0.2,0.8,0.6,2.3-1.2,2.1c-2.9-0.3-5.2,3.3-8.5,1
	c-1-0.7-1.2,0.8-1.1,1.6c0.3,2.8,0.7,5.7,1,8.5c-4.6-0.5-5-1.1-2.8-4.5c0.5-0.8,0.7-1.9,0.4-2.9c-0.6-0.6-0.6-1.5-0.1-2.1
	c-0.2-1.2-0.1-2.5-1.3-3.3c-2.6-1.8,0.4-2.1,0.9-3c1.6,1.2,3.3-0.4,4.9,0.1c2.2,0.6,3.5-0.3,4.4-2.2
	C78.5,232.3,78.8,233.7,79.7,233.9L79.7,233.9z"/>
<path class="st81" d="M75.2,266.9c-2.5-1.3-2.5-4.2-1.9-5.8c1.2-3.3-0.6-3.5-2.8-4.1c-1-0.3-2.2-0.4-3.1-1.7
	c1.8-0.8,3.3-0.1,4.8,0.6c0.5,0.2,1.1,0.9,1.3-0.1c0.1-0.4-0.4-0.9-0.6-1.3c3.7,0,7.2-1.2,10.1-3.4c0.3,0,0.6,0.1,0.9,0.3
	c0.3,0.2,0.5,0.4,0.7,0.7c0.5,0.7,0.9,1.4,1.2,2.2c0.5,1.8,1.8,3.9-1.7,4.2c-1.5,0.2,0.2,3.4-2.2,3c-1.4-0.2-1.5-2.3-2.9-2.7
	c-1.2-0.3-2.5-0.5-2.4,1.6c0,1.3,0,2.7-0.1,4C76.5,265.4,76.9,266.7,75.2,266.9z"/>
<path class="st82" d="M87.3,247.5c-0.5,0.1-1.6-0.6-1,0.8c0.6,1.4,1.8,2.6,1.6,4.3c-1.8,1.7-2.8-0.2-4-1l0,0
	c-0.8-1.3-0.5-2.9-2.4-3.9c-2-1.1-2.2-3.4-0.9-5.5C85.2,242.3,87,243.7,87.3,247.5z"/>
<path class="st83" d="M80.7,242.2c0.4,2.3-0.1,4.9,2.6,6.4c0.6,0.3,0.5,2,0.7,3.1l-0.8-0.7c-0.2-1.9-0.8-2.7-2.4-0.9
	s-2.4,0.4-2.2-0.9c0.2-2.1,0-4.2,0-6.3C78.5,241.1,79.3,240.3,80.7,242.2z"/>
<path class="st84" d="M133.4,254.3c0,3.8-3.7,2.9-5.5,4.2C128.7,256,131.2,255.3,133.4,254.3z"/>
<path class="st85" d="M125.9,274.6c0.3-2.2,1.5-4.2,3.2-5.6c2.6-2,1.8-5.1,1.9-7.8c0.6-0.2,1.3,0,1.7,0.5c-0.3,2.2-0.8,4.3,0.5,6.5
	c0.7,1.2,0.3,2.4-0.6,3.4c-0.6,0.8-1.5,1.5-1.7,2.4c-0.9,4.2-2.4,3.4-4.3,0.7C126.5,274.6,126.1,274.6,125.9,274.6z"/>
<path class="st86" d="M45.3,67.4c0.6,1.3-0.5,2.5-0.2,3.8c0.6,0.4,1.5,1.4,0.6,1.6c-2.9,0.9-4.7,4.8-8.5,3.2
	c-0.6-0.3-1.1,0.3-1.6,0.7c-1.2,1.5-2.5,2.2-3.5-0.1c-1.2-2.5-2.8-1.7-4.4-0.7c-0.9,0.6-2.5,0.3-2.6,1.7c-0.2,1.3,1.2,2,2.2,2.7
	c0.8,0.3,1.5,0.8,2.2,1.3c1.5,1.8,0.2,3.3-0.6,4.9c-0.7,2.3-2.3,4.3,1.3,6.3c1.9,1.1,1.7-1.2,2.7-0.7c1.7-0.8,2.2-3.2,4.5-3.2
	c2.2,0.7,4.4,1.2,6.8,0.3c1.5-0.5,3.4-1,4.6,1.1c0,1.7,0.7,3.3,0.5,5c-2.6,0.6-4.4,3.1-7.3,2.8c-1.6-0.4-2.2,0.8-2.9,1.8
	c-1.3,1.8-2.8,1.8-3.7-0.1c-1.3-2.6-2.9-2.8-5.4-1.7c-3.3,1.4-3.8,1.1-4.6-2.6l-1.3-5.1c-0.1-2.4-3.2-2.7-3.5-4.9c0-0.1,0-0.3,0-0.4
	c1.9-4.5,2.1-7.3,1-14.9c0-0.2,0.1-0.5,0.2-0.7c0.9-0.6,1.9-1.4,2.3,0.5c2.3,2.3,4.5,1.2,6.8,0c1.9-2.1,3.7-3.3,7.1-2
	C39.8,68.6,42.7,67.6,45.3,67.4z"/>
<path class="st61" d="M40,60.4c0.5,1.8-0.2,3.3-1,4.7c-1.1-0.4-2-0.9-3.1,0.1c-2.1,2-2.9,0.4-3-1.4c-0.1-2.5,0.2-4.9,0.3-7.4
	c-0.1-2.5,1.7-4.6,4.2-4.7c0,0,0,0,0,0c2.7-1.2,5.3-1.4,7.7,0.6c0.5,0,1.1-0.1,1.4,0c0.7,0.4,0.1,0.9-0.2,1.1
	c-0.8,0.8-1.8,1.4-2.8,1.7C40.4,55.7,40,57.8,40,60.4z"/>
<path class="st87" d="M45.2,52.3c-2.6-0.2-5.1-0.4-7.7-0.6c-3-1.8-6.6,0-10-1.9c1.4-0.9,2.7-1.6,3.2-3.3c0.3-1.1,1.1-2.7,3-1.9
	c1.3-0.3,2.7-0.1,4,0.4c0.8,0.4,1.7,0.5,2.5,0.3c4.2-1.3,4.2-1.3,4.4,3.2c0,0.9-0.1,1.7,0.5,2.4L45.2,52.3z"/>
<path class="st88" d="M45.4,29.5c-1.8,0.8-2.8-1.7-4.6-0.9c-2.7-0.5-5.4-1.1-8.2,0.1c-1,0.4-2.5,0.9-3.5-0.1
	c-1.1-1.2,0.5-2.2,0.7-3.3l0.2-0.5c1.6-1.2,2-3.5,4.1-4.2c0.7,0.1,1.2,0.6,1.7,1c0.3,0.2,0.6,0.3,0.9,0.5c1.8,0.8,3.6,1.4,5.6,0.3
	c2.2-1.3,3.5-0.3,3.7,2.2C45.9,26.2,46.6,28,45.4,29.5L45.4,29.5z"/>
<path class="st89" d="M35.5,22.5c-0.5-0.3-0.9-0.8-0.9-1.4c-2.6,0.3-3.7,2.3-4.8,4.3l0,0c-2.2,0.4-4.1,3-6.6,0.8
	c0.8-4.1,2.8-7.4,6.6-9.3c2.1-1.1,1.5-2.7,0.8-4.4c1-0.1,2-0.2,3-0.3c0.3-0.5,0.9-0.6,1.4-0.3c0.1,0,0.1,0.1,0.2,0.2
	C36.5,13.4,36.7,20.6,35.5,22.5z"/>
<path class="st90" d="M30.5,69.8c-3.8,3.9-3.8,3.9-6.8,0c1.1-1.2,0.2-2.5,0.3-3.8c-0.4-1.8,0.6-3.5,2.4-4c0.1,0,0.1,0,0.2,0
	c4.2,0.3,4.7,0.9,3.3,4.3C29.4,67.6,30.8,68.6,30.5,69.8z"/>
<path class="st90" d="M23.3,59.3c-1.7-3.6-0.4-6.8,3.2-7.8c0.8-0.4,1.8-0.3,2.5,0.3c1.1,1.1,1.9,2.8,1.1,4.1c-1,1.5,1,5-2.9,4.6
	C25.6,61.1,24.4,60.3,23.3,59.3z"/>
<path class="st30" d="M17.3,60c-1.6-2.2-1.5-4.6-0.9-7c0.4-1.7,1.2-3.4,1.8-5.1c1.7,2.1,3.3,3.9,1.8,7c-0.9,1.8,0.6,3.9,1.9,5.7
	c-3,0.3-2.8-2.2-3.9-3.4C16.6,58.1,17.4,59.1,17.3,60z"/>
<path class="st91" d="M23.7,48.1c-1.4-3.1-0.3-5.5,1.9-7.4c0.8-0.9,2.1-1,3.1-0.2c1.1,0.8,0.5,1.9,0,2.6
	C27.4,44.9,26.3,47.1,23.7,48.1z"/>
<path class="st86" d="M23.3,59.3l3.9,1.1L26.6,62L24,66c-2.2-1.5-2.2-1.5-0.3-3.2C25.1,61.5,22.2,60.6,23.3,59.3z"/>
<path class="st92" d="M33.5,30.9c2.5,2-1.4,3.4-0.8,5.4l-0.4-3.6L33.5,30.9z"/>
<path class="st93" d="M68-15c-1.2,0.1-2.5-1.5-3.7,0.6c-0.8,1.5-1.2,2.4,0.2,3.7c0.5,0.5,0.5,1.4,0.8,2c0.3,0.7,0.4,1.6-0.5,1.8
	c-0.7,0.2-1.2,0.4-1.2-0.3c-0.2-2.6-0.8-3.1-2-1.3C60.5-6.7,59.2-5,58-3.3c-3.8,1.3-1.9-2.3-3.1-3.7c-1.2,0.3-2.4,2.1-3.9,0.7
	c1.6-5.3,3.1-4.7,7.5-1c1.1-3.4,4.4-5.6,4.3-9.5c0-0.1,0.1-0.3,0.2-0.3c3.7-0.8,4.3-7,7.2-6.5c0,0.6,0.3,1.2,0.8,1.4
	C71.3-19.1,69.6-17.1,68-15z"/>
<path class="st93" d="M68.2-28.1c2-0.6,4.6,2.8,6.1-1.7c1.2,3.5-1.2,4-2.7,5.1C69.6-25,68.2-25.9,68.2-28.1z"/>
<path class="st94" d="M35.5,22.5c1.4-3.3-1.8-6.3-0.5-9.6c0.2-0.6-0.8-0.7-1.4-0.8l-0.4-3c6.6-2.3,13.4-1,20.1-1.5
	c0.2,1,0.1,2.1-0.4,3c-0.7,1.3,0.3,2.6-0.3,3.9c-3.2,0.2-4.6,2-3,4.9c1.4,2.4-2.3,2.8-1.3,4.7c-0.4,0.1-0.8,0-1-0.3
	c-0.8-0.8-0.8-2-0.2-2.9c-1.1,1.3-2.7,0.9-4.1,1.3c-1.1,0.3-1.8,2.8-3.3,1c-1.2-1.4-0.1-2.8,1-3.9c0.9-1,2.2-1.5,3.1-2.5
	c-0.9,0.9-2.8,0.4-3,2.4c-1.1,0.7-2.3,1.1-2.8,2.5C37.8,22.8,36.7,22.8,35.5,22.5L35.5,22.5z"/>
<path class="st95" d="M53.5,7.5c-0.2,0-0.6,0-0.7,0.1c-3.4,3.1-7.2,0.6-10.7,0.7c-2.9,0.1-5.6,2.3-8.7,0.7c-1.3-2.6,0.6-3.8,2.2-5
	C37,3.2,38.5,2.3,40,1.5c0.5-0.9,1.2-1.5,2-0.5c1.8,2.8,4.7,2.6,7.4,3.1C53.5,4,53.5,4,53.5,7.5z"/>
<path class="st96" d="M49.3,4.2c-2.8,0.5-5.7,1.4-7.5-1.9c-0.5-0.9-0.8-1.4-1.8-0.8c-0.1-1.3-3.6-2.1-0.4-3.8
	c2.4,1.7,5.4,0.3,8.1,1.8c2.4,1.3,2.1,1.5,0.7,3.1C47.6,3.5,48.6,3.9,49.3,4.2z"/>
<path class="st97" d="M51.1,13.7c-0.2-1.6-2.9-3.6-0.4-4.8c0.3-0.2,0.7-0.1,1,0.2c1,1.2,0.9,2.5,2.7,0.1c0.5,0.1,1.1,0.6,1.5,0.5
	c1,0,1.9,1.6,0.9,2.4c-1.1,0.9-2.9,0.7-3.8,2c-0.3,0.3-0.7,0.5-1,0.3C51.6,14.3,51.3,14.1,51.1,13.7z"/>
<path class="st28" d="M45.1-6.5c1.5-0.2,3-0.4,4.4-0.6C48.3-4.8,46.8-4.7,45.1-6.5z"/>
<path class="st98" d="M20.9,80.2c-3.5-1.5-4.1-3.5-2.3-8.1C19.9,74.8,21.2,77.2,20.9,80.2z"/>
<path class="st99" d="M92.6,273.1c3.8,1.1,6.1,3.5,6.1,7.7l-0.2,0.4c-1.5,2.5-3.3,1.3-5,0.3c-0.9-0.5-1.3-1.7-2.5-2l-0.1,0
	c0-0.6-0.3-1.2-0.9-1.4c-1.5-1.7-0.3-2.5,1.1-3.1c-0.1-0.6,0.1-1.2,0.5-1.6c0.1-0.2,0.3-0.3,0.6-0.3C92.5,272.9,92.6,273,92.6,273.1
	z"/>
<path class="st3" d="M91.2,274.8c-0.5,1-1.6,1.8-1.1,3.1c-1.4,0.4-2.6-0.4-4.2-0.4c1.9-1.2,1.9-2.9,2.1-4.6
	C89.9,272,89.5,275.1,91.2,274.8z"/>
<path class="st3" d="M91,279.4c0.7,0,1.6-0.3,2.1,0.5c1.4,2.5,3.3,2.2,5.4,1.2l0.9,4.9l-0.1,0.8C97.5,283.2,92.5,283.2,91,279.4z"/>
<path class="st100" d="M65.4,176c2.2-0.3,1.3,2.3,2.5,2.9c1.4,3.7-2.4,3.4-3.9,4.3c-1.2,0.7-3,2.3-5.2,0.7c-1.2-0.9-1.4,1-1.4,2.1
	c-1.6,0.2-2.3-0.4-1.6-2c0.5-0.4,0.7-1,0.5-1.6c-0.1-3.7,1.6-5.6,5.4-5.2C63.2,177.1,63.8,175.1,65.4,176z"/>
<path class="st101" d="M61.6,156c0.1,2.2,1.5,5.5-2,5.6c-2,0.1-3.1,3-5.9,1.1c-2.1-1.4-1.5,1.4-1.6,2.7c-2.1-0.1-1.8-1.8-1.6-3
	c0.2-1.2,0.3-2.4,0.1-3.6l0.6-1.5c2.7-2.1,6.2-1.6,9.1-3.1C61.1,154.5,61.8,155,61.6,156z"/>
<path class="st102" d="M46,177.5c-2.6-1.2-2.8-3.6-0.8-6.8c2,1.2,4.8,1.8,5.3,4.5c0.2,0.9,1.3,2.2,0,3c-0.9,0.6-1.9,0.2-2.8-0.4
	C47.2,177.7,46.6,177.6,46,177.5z"/>
<path class="st103" d="M75.2,266.9l0.7-10.1c2.4,0.9,5.4,0.8,6.2,4.3c1.5-1.1-1.9-6.8,3.4-3.4c1-1.5-0.8-2.6-0.5-4
	c0.8-0.4,1.8-0.2,2.3,0.6c0.2,1.6,0.9,3.3-0.8,4.6c-0.5,1.9-1.5,3.7-2.7,5.3c-0.7,1.1-0.6,2,0.8,1.9c1.5-0.1,2.4,0,2.7,1.6
	c-0.8,2.6-3.4,3-5.2,4.3c-1.4,1-1.4-0.8-2-1.3c-0.9-1.2-0.2-2.6-0.8-3.9c-1.1,0.6-0.6,2.2-1.6,2.8c-4.4,1.4-8.8-0.6-10.3-4.9
	c-0.4-1.2-0.5-2.4-1.9-2.8c-0.5-0.7-1-1.4-1.5-2.1c-0.5-0.9-2.7-1-2-2.1c1.1-1.7,2.4,0.3,3.5,0.7c1.5,0.8,3,1.6,4.4,2.6
	c3.1,1.8,3.2,2.6,0,5.7C72,266.9,73.6,266.9,75.2,266.9z"/>
<path class="st104" d="M69.9,201.8l0.2,0.8l0.2,2.2c-2.2-0.1-4.4-0.4-6.6-0.8c0.4,2.5,0.2,5.1,0.6,7.7c0.3,2,0.6,4.1,3.7,3.2
	c1.8-0.5,2.1,0.8,1.7,2.2c-1.3,1.4-3.6,0.9-4.7,2.6c-1.3,1.5-2.3-1.2-3.5-0.3c-1.9,3.8-3.6,1.1-5.3-0.1l-0.2-1.5
	c3.1-2.6,3.1-2.9-0.3-5.2c-1.2-0.7-2.2-1.6-2.9-2.8l1.3-1.7c0.8,0.3,1.7,0.4,2.5,0.2c1.1-0.3,2.9,0.6,3-1.2c0.1-1.7-1.6-0.7-2.5-1
	c-1.9-0.5-2.6-2.5-4.3-3.2c1.1-1.4,2.7-1.1,4.2-0.9c0.9-0.3,2,1.6,2.6-0.3c0-0.7,0.4-1.3,1-1.5C63.6,201.2,67,199.9,69.9,201.8z"/>
<path class="st105" d="M64.4,219.9c-0.2-4.1,3.3-2,5-2.9c1-1.4,2.9-1.1,4.3-1.9c1.6-0.9,1.7,1.1,2.4,2l0.4,3.7
	c-2.8,1.3-5.7,2.2-8.7,2.6c-0.7,0.6-0.6,1.7-1.3,2.3c-0.4,1-0.4,2.2-0.1,3.2c0.6,2-0.5,3.2-2.6,2.5c-1.2-0.4-3.2,0-3.4-1.6
	c-0.2-1.6,1.9-1.2,2.8-1.9s1.8-0.6,0.8-2c-1.1-1.4,1.4-2.9,0.4-4.5C64.1,221,64.1,220.4,64.4,219.9
	C64.4,219.9,64.4,219.9,64.4,219.9z"/>
<path class="st106" d="M66.7,225.6c-0.1-1.1-0.6-2.2,0.4-3.1c0.4-0.3,1-0.2,1.3,0.2c1.6,2.5,4.1,2.5,6.6,2.8c1.4,2.2-0.4,4.5,0,6.8
	c-1.4-0.6-0.5-3.1-2.9-3.1c1.6,5.1-1.9,4.1-4.8,4.2c-0.5-2,3.8-1.3,1.9-3.8C68.2,228.3,68.7,226.1,66.7,225.6z"/>
<path class="st107" d="M64.4,219.9l0.2,1.4c-0.9,0.5-1.4,2.2-3.1,1.5c-0.6-1.1,2-2.3-0.1-3.4c-0.2-0.5-1.2-1.6,0.5-1.1
	C62.9,218.7,63.7,219.3,64.4,219.9z"/>
<path class="st108" d="M68.5,241.2l0.1,2.1c-1.2-0.5-2.4-1.1-3.8-1.7C66,240,67.4,241.8,68.5,241.2z"/>
<path class="st109" d="M52.8,209.8c1.8,0.1,2.7,1.9,4.3,2.5c1.6,0.5,2.6,2.1,2.4,3.7c-0.3,2.2-2.3,1.2-3.5,1.7
	c-2.3-0.9-4.8-1.7-3.2-5C53.2,211.8,51.5,210.8,52.8,209.8z"/>
<path class="st110" d="M25.1,95.3c0.9,2.4,2.2,3.3,4.7,1.7s4.8-2,5.9,1.9c0.6,2.1,1.6,1.6,2.6-0.1c0.7-1.1,1.4-3.3,3.6-1.8
	c0.3,0.2,0.4,0.6,0.3,1c-4.9,3.5-3.3,8-2.1,12.5c0.1,0.3,0.1,0.7,0.1,1l-0.1,0.5c-1.3,2.2-1.2,4.5,0.6,6.1c1.5,1.4,1.4,2.7,1,4.3
	c-0.7,2.9-1.5,5.7-1.1,8.7c-3.1,0.3-4.2-0.7-2.6-3.7c2.1-3.9-2-5.2-3.3-7.7c2.8-0.2,3-1.4,1.1-3.2c-1.1-0.6-1.8-1.7-1.9-3
	c0-2.4-1.2-4.4-2.3-6.4l-0.2-1.4c2.7-2.7-1.9-3.9-1.2-6.1c-0.8-0.1-1.3,0.4-1.9,0.7c-0.7,0.2-1.1,0.9-0.9,1.6c0,0.1,0,0.1,0.1,0.2
	c0.3,0.9,1.7,1.1,1.5,2.4c-0.7,0.3-1.4,0.7-2.2,1c-1.1-1.7-3.4-1.2-4.7-2.5c0.1-1.7,3.6-0.4,2.6-3.2C24.6,98.5,24.1,96.8,25.1,95.3z
	"/>
<path class="st111" d="M31.8,107.4c2.3,0.6,2.9,2.6,2.9,4.4c0.2,1.7,0.6,3.3,1.2,4.9c-2.2,1.1-5,0.5-6.5-1.5
	C28.2,112.4,29.2,109,31.8,107.4z"/>
<path class="st111" d="M29.3,104.7c-1.5-0.7-3.4-1.5-2.8-3.6c0.6-2.3,3.6-1.5,4.8-3.3c0,0,0.7,0.3,0.8,0.5c0.6,1.3-1,1.5-1.2,2.6
	c0.8,1,3.1-0.2,3.1,1.7c0.1,1.5-0.9,2.9-2.3,3.4L29.3,104.7z"/>
<path class="st51" d="M27.5,120.8c-0.4-1.5-3.4-2.6-0.6-4.5C26.1,117.9,30.1,118.8,27.5,120.8z"/>
<path class="st37" d="M57.3,203.3c-1.5-0.5-3.1-0.6-4.6-0.2l0,0c-1.3-2.3,0.9-2.4,2-3c1.2-0.5,2.5-0.7,1.6-2.5
	c-1.3-3.2-3.7-5.9-6.7-7.8l-0.2-1.5c0.9,0.2,1.9,0.4,2.8,0.4c1.4-0.2,3.6,0.1,1.9-2.6c-0.9-1.5,0.9-1.6,1.6-2.3c0,1,0.7,1.8,1.6,2
	c0.3,2.3,0.5,4.7,0.9,7c0.4,2.9,1.7,4.7,4.9,3.7c0,1.9-1.9,2.6-2.5,4.1c-0.5,0.4-0.7,1-0.6,1.6C59.4,203,57.9,202,57.3,203.3z"/>
<path class="st47" d="M49.7,189.9c4.6,0.3,5.8,4.2,7.6,7.4c-1.4,1.5-3,2.5-5.1,1.4C47.5,197.1,46.5,193.5,49.7,189.9z"/>
<path class="st104" d="M52.2,198.6c1.7-0.5,3.4-0.9,5.1-1.4c0.8,1.9,2,3.9-1.9,3.5c-1.3-0.2-2.5,0.7-2.7,2c0,0.1,0,0.2,0,0.3
	l-1.7-1.3C52.1,201.2,52.6,199.9,52.2,198.6z"/>
<path class="st52" d="M33.2,138.2c2.3-0.4,4.5,3.5,6.7,0.8c3-3.6,6.4-2.9,10.1-2.3c2.3,0.4,4.1-1.2,6.1-1.9c1.5,3.2-0.9,5.4-2.2,7.8
	c-0.3,0.5-0.9,0.7-1.4,0.4c-0.1,0-0.1-0.1-0.2-0.1c-0.9-0.7-2.1-0.9-3.2-0.6c-3.2,0.7-4-0.7-3.6-4c-1.6,3.9-4.4,4-7.5,3.5
	c-0.5-0.1-1-0.1-1.5,0C31.8,142.7,31.9,142.7,33.2,138.2z"/>
<path class="st112" d="M60.7,154.6c-2.8,2.2-6.2,2.2-9.5,2.7c-0.2-2.2-2-3.5-2.9-5.4c-0.5-0.8-0.9-1.8-1-2.7c0-1.5-1.2-3.8,1-4.1
	c2.6-0.3,0.9,2.5,1.6,3.5c2.7,0.9,1-6.9,5.3-2.5c0.9,2.5-2.1,5.7,1.6,7.9c0.8-0.4,0.2-2.7,2-2.2l0,0
	C59.9,152.5,61.5,152.7,60.7,154.6z"/>
<path class="st3" d="M87.4,267.8c-0.8-0.1-1.2-1.7-2.1-0.7c-1.4,1.6-1.9-0.1-2.5-0.7c-1.2-1-0.7-1.9,0.4-2.7
	c3.6-0.4,5.5,0.9,6.1,4.3l-0.4,0.4L87.4,267.8z"/>
<path class="st113" d="M77.8,269.6c0.2-1.8-0.3-5.1,1.6-4.9s1.2,3.4,1.1,5.3c0,0.2-0.1,0.5-0.2,0.7C79.3,271,78.3,270.5,77.8,269.6z
	"/>
<path class="st3" d="M92.6,273.1c-0.3,0-0.6,0.1-0.9,0.1c0.2-2.3-3.1-2.5-2.8-4.8l0.2-0.2c2.6,0.3,3.9,1.7,3.5,4.4
	C92.7,272.7,92.7,272.9,92.6,273.1z"/>
<path class="st52" d="M40.6,131.3c-1.3-0.9-2-1.6-1-3.6c1-2.1,1.2-4.8,1.7-7.2c0.1-0.5-0.1-1-0.6-1.2c-2.9-2.2-3.2-4.9-0.9-7.6
	c2.3,1.5,4.8,1.6,7.3,1.2c1.7-0.2,3.4-0.7,5,0.4l0.5,3c1.5,3.9,1.3,4.2-2.4,5.4c-0.7,0.2-1.4,0.5-2.1,0.7c-4.8,1.2-4.8,1.2-4.5,6.2
	c0.1,1.3,0.5,2.7-0.6,3.9c0,0.4,0,1.1-0.5,1.1C41.5,133.3,40.7,132.4,40.6,131.3z"/>
<path class="st114" d="M43.1,132.5c-0.3-3.2-1.1-6.3-0.4-9.5c0.2-0.9,0.2-1.9,1.5-1.4c2.2,0.8,4-0.6,6-0.8c3.7-0.2,2.6-2.5,2.5-4.5
	c3,2.4,1.4,4.4-0.5,6.4c-0.9,0.9-1.7,1.8-1.4,3.2c0.4,1.8,1.8,0.5,2.9,0.9c-0.6,1.9-4.2,2.4-2.7,4.9c0.7,1.2,2.1-0.8,3.4-0.5
	l0.3,1.4c-1.4,1-2.5,3.5-4.6,0.7c-0.4-0.6-1.3-0.5-2,0.2C45.7,136.3,44.5,134,43.1,132.5z"/>
<path class="st33" d="M68.2-15.3l2.9-7.1c3.2,0.2,2.2,3.5,3.7,4.9c0.5,0.5-0.9,1.2-1.5,1.8C71.4-18.3,69.9-14.9,68.2-15.3z"/>
<path class="st115" d="M92.5,272.6c0.1-2.5-2.2-3-3.5-4.4c-0.9-2.5-2.4-4-5.3-3.4c-0.2,0-0.5-0.7-0.7-1.1l3.5-4.9
	c2.5,2.7,5.7,4.9,6.3,9.1C93,269.6,93.3,271.1,92.5,272.6z"/>
<path class="st83" d="M87.3,254.2c-0.8-0.2-1.6-0.4-2.3-0.6l-1.1-2.1c1.5-0.2,2.4,1.7,4,1C88.2,253.3,88.2,253.9,87.3,254.2z"/>
<path class="st78" d="M76.1,217c-1-1-1.7-2.6-3.5-0.7c-0.6,0.7-2.1,0.5-3.2,0.7c-0.2-0.9-0.1-2.3-1.7-1.3c-2.7,1.8-3.3,0-4-2.1
	c-1-2.9-0.5-5.8-0.9-8.7c-0.2-1.4,3.3-2.4,5.2-1.5c0.7,0.4,1.5,0.9,2.2,1.3c1.8,2.4-1,4.7,0.1,7.7c1.4,3.8,2.4,2.3,4.1,0.8
	c1.1,0.5,1.8,1.6,1.8,2.8L76.1,217z"/>
<path class="st116" d="M74.9,225.4c-1.3,1.5-3.3-0.1-4.8,1c-0.6,0.5-1-0.3-0.8-1.1c0.4-1.8-1.1-2.2-2.2-2.9c3.3-0.1,6.2-2,9.6-1.8
	C75.6,222.1,75,223.7,74.9,225.4z"/>
<path class="st117" d="M79.7,234c0.6-2.6-3-4-1.8-7.1c1.5,1.7,2.4,3.7,3.6,5.3C82.4,233.4,81.4,234.4,79.7,234L79.7,234z"/>
<path class="st118" d="M52.1,113.4c-3.5,0.2-7,0.5-10.5,0.7c-1.6,0.1-1.4-1.4-1.7-2.3l0.2,0c0.5-0.4,1.1-1.1,0.9-1.3
	c-0.5-0.5-0.6,0.6-1.1,0.7c-2.7-7-3.4-10.1,2.3-13.1c0.9,0.3,1.8,0.6,2.7-0.2c0.9-1,2.4-1.4,3.7-0.9l0.4,0.4c-1,1.3-1.8,2.7-2.5,4.1
	c-1,2.7,1.9,8.6,5.3,10.6C52.4,112.3,52.9,112.5,52.1,113.4z"/>
<path class="st118" d="M48.6,95.6l-0.7-5.9c-1.4-1-1.7-2.9-0.7-4.3c0.1-0.1,0.2-0.2,0.3-0.3l2.2,1.5c0.3,3.5,1.2,7.1-0.8,10.5
	l-0.1-0.1C48.3,96.7,48.2,96.1,48.6,95.6C48.6,95.7,48.6,95.6,48.6,95.6z"/>
<path class="st66" d="M60.7,154.6c0-1.3-1.4-1.8-1.8-2.8c3.8-1,2.8,2.8,4.1,4.2c0.5,0.5,0.2,1.9,0.3,2.8c-1.2-0.5-0.5-2.3-1.8-2.8
	L60.7,154.6z"/>
<path class="st119" d="M56.4,171.2c1,0,1.6,0.5,1.6,1.3c0,0.7-0.2,1.6-1,1.8c-0.9,0.1-1.2-0.8-1.4-1.4
	C55.2,172,55.8,171.5,56.4,171.2z"/>
<path class="st66" d="M59,167.4c0.2,1,0,1.6-0.8,1.5s-1.5-0.2-1.8-1c-0.1-0.6,0.2-1.2,0.8-1.3c0,0,0.1,0,0.1,0
	C58.1,166.5,58.8,166.8,59,167.4z"/>
<path class="st66" d="M63.4,158.9c0.5-0.2,1.3-1.1,1.2,0.5c-0.1,1-0.1,2.1-0.2,3.2C61.8,162,63.8,160.1,63.4,158.9z"/>
<path class="st66" d="M54.1,166.3c1.5,1,1.6,1.9,0.6,2.9c-0.3,0.2-0.6,0.2-0.9,0.1C53.3,168.3,53.9,167.4,54.1,166.3z"/>
<path class="st120" d="M60.8,200.6c-0.8-2.4,1.4-2.9,2.5-4.1c2.2,0,5,1.6,5.7-2.2c1.1-1.6,1.2-1.6,2.5,1.2l0,0l1.1,2.9
	c0.9,2.5-2.8,1.4-2.7,3.3C66.9,201.2,63.6,202.7,60.8,200.6z"/>
<path class="st73" d="M71.5,195.6c-1.2,0.5-0.6-3.1-2.5-1.2c-1.2,0.1-2.4,0.3-2.9-1c-0.5-1.3-0.9-2.8-2.6-2.5s0.1,2.3-1.1,3.2
	c-2.3-3.6-2.4-5.2-0.4-6.4c1.3-0.8,2.8,1.3,4-0.4c0.3,1.7,1.1,1.2,2.1,0.6c0.4,1.4,0.4,2.9,2,3.7C71.9,192.4,71.9,194,71.5,195.6z"
	/>
<path class="st89" d="M41.2,18.7c0,0.9-0.3,1.7-0.8,2.4c-0.3,0.6-0.5,1.3,0.1,1.7c0.6,0.4,1.2-0.1,1.5-0.6c1.1-2.2,3.9,0,4.9-2.2
	c1.1,1.3,1.1,2.4,1.5,4l0.1,0.8c-0.5,0.7,0.4,2.2-0.6,2.3c-1.7,0.2-1.9-1.6-2.4-2.7c-0.2-1.2-1-2.5-2.1-1.5
	c-2.8,2.6-5.3,1.1-7.8-0.3c0.8-0.2,2.1-0.1,2-1.2C37.3,18.1,39.6,19,41.2,18.7L41.2,18.7z"/>
<path class="st94" d="M45.5,24.2c0.4,0.2,1,0.4,1.2,0.7c0.9,2.3,1.3,0.8,1.8-0.2c0.3,2.4,0.6,5-3.1,4.8C45.5,27.8,44.4,26,45.5,24.2
	z"/>
<path class="st121" d="M47.4,85.2c-0.3,1.5-0.2,3.2,0.5,4.6c-1.5-0.5-3.1-0.4-4.5,0.3c-2.5,1.5-4.1,0.3-6.1-0.7
	c-3.2-1.9-4.6-6.2-3.4-10.2c0.3-1,0.8-2,1.1-3.1c1.4-3.2,3-0.9,4.8,0.1c0.4-2,1-3.5,3.4-2.9c0.4,0.1,2.9,0,1.8-2.2
	c1.5-0.1,1.8,1.2,2.5,2c-3.2,1.7-2.2,5.1-2.9,8.2c-1.1-0.8-1.2-2.4-3.2-2.4c0,2.8,1.4,4.9,3,7C46,88,46.2,84.8,47.4,85.2z"/>
<path class="st122" d="M35,76.1c0.3,3.3-1.5,6.5,0.3,9.9c0.6,1.2,1.3,2.3,2,3.4c-2.3,0-2.1,3.1-4.2,3.5c-0.8-0.6-1.3-1.5-1.3-2.5
	c0.3-3-1.6-3.8-3.9-4.4c0.8-1.2,2.3-2.2,1.1-3.9c2.4-2.9,0.2-4.7-1.6-6.6c3.3-2.7,3.6-2.6,5.4,1C34,78.9,34.3,76.2,35,76.1z"/>
<path class="st123" d="M27.9,86c1.1-0.1,2.2-0.3,3.3-0.4c1.1-0.1,2.4,0.6,1.7,1.6c-1.3,2.1,0.6,3.7,0.3,5.6c-1.6,0.2-2,2.1-3.3,2.5
	C28.4,95,31.5,91.5,28,93c-1.5,0.6-1.2-0.4-1.2-1.3C26.7,89.7,27.1,87.8,27.9,86z"/>
<path class="st124" d="M27.4,75.4c5,2.7,5.2,3.4,1.6,6.6c-0.8-0.2-1.6-0.6-2.4-0.9c-1.5-0.9-3.3-2-3.2-3.8
	C23.6,75.1,26,75.9,27.4,75.4z"/>
<path class="st125" d="M49.8,94.9l-0.7,1.8c-1.3,0-2.6,0.5-3.7,1.3c-1.2,1-2.5,1.3-3.3,0L41.6,97c0.6,0.1,2,0,2.6,0.1
	C44.5,92.9,47.9,94.7,49.8,94.9z"/>
<path class="st27" d="M29.9,25.4c0-2.4,1.9-4.3,4.3-4.3c0.1,0,0.3,0,0.4,0C32.7,22.1,32.4,25,29.9,25.4z"/>
<path class="st10" d="M31.5,18.7c-1.5,1.4-2.3,3.6-5.2,4.5C26.7,20.7,28.9,18.8,31.5,18.7z"/>
<path class="st126" d="M41.2,18.7c-0.4-0.7-1.9-0.7-1.6-1.8c0.5-1.7,1.3,0,1.9,0c1.2,0,1.5-1.2,2.2-1.8c0.5-0.5,1.3-0.5,1.7,0
	c0.1,0.1,0.1,0.2,0.2,0.3c0.5,0.6,0.7,1.8-0.1,1.9C44,17.4,43.1,19.5,41.2,18.7L41.2,18.7z"/>
<path class="st127" d="M38.2,10.1c-0.2,1.6-1.1,2.4-2,3.7C35.8,11.7,35.9,10.4,38.2,10.1z"/>
<path class="st128" d="M57.3,203.3c0.1-2.6,1.7-1.4,2.9-1.1c0.2,0.5,0.7,1.2,0.6,1.6c-0.3,0.7-0.9,0.3-1.5,0.1
	C58.8,203.7,58,203.5,57.3,203.3z"/>
<path class="st129" d="M39.8,111c0-1.2-0.4-2.6,1.3-2.9c0.6-0.1,1.2,0.3,1.3,0.9c0,0.2,0,0.3,0,0.5c-0.3,1.1-0.1,3-2.3,2.3
	C39.9,111.5,39.8,111.3,39.8,111z"/>
</svg>
